<?xml version="1.0" encoding="utf-8"?>
<!-- Generator: Adobe Illustrator 22.0.1, SVG Export Plug-In . SVG Version: 6.00 Build 0)  -->
<svg version="1.1" id="Layer_1" xmlns="http://www.w3.org/2000/svg" xmlns:xlink="http://www.w3.org/1999/xlink" x="0px" y="0px"
	 viewBox="0 0 100 100" style="enable-background:new 0 0 100 100;" xml:space="preserve">
<style type="text/css">
	.st0{fill:none;stroke:#FFFFFF;stroke-linecap:round;stroke-linejoin:round;stroke-miterlimit:10;}
	.st1{fill:#FFFFFF;stroke:#FFFFFF;stroke-miterlimit:10;}
</style>
<g>
	<path class="st0" d="M73.7,46.6l-6.5,6.1c0,0-13.5-7.4-14.3-16.2c-0.9-8.8,4.8-15.1,8.8-16.6c4-1.6,8.7,6.8,8.7,6.8
		s5.5-4.8,12.5,4.4c0,0,5.5,12.9,5.7,13.8"/>
	<path class="st0" d="M76.6,45.7c0,0,9.4,9.9,20.2,0c0,0,1.4-0.7,1.4-5.1c0,0-7.4,6.7-15.6,3.4"/>
	<path class="st0" d="M89.8,49.7c0,0,3.8,7.8,2.9,10.9s-4,6.3-7.7,6.3c-3.7,0-8.7-4.3-9.2-7.8l5.3-2.1c0,0,2.5,4.8,3.3,4.8
		s5.2-1.6,0-11.5"/>
	<path class="st0" d="M78.7,47.5c0,0-11.7,6.5-4.3,29.4c0,0-4.7,1.3-6.8,0"/>
	<path class="st0" d="M66.5,56.7c0,0-5.7,14.6,1.1,23.4c0,0-10.4,1.1-14.9-2.1c0,0,3.5-6.4,1.8-8.5c-1.7-2.1-1.8-14.2-1.8-14.2"/>
	<path class="st0" d="M34,62.4c0,0,10.1,5.1,19.3,1.4"/>
	<path class="st0" d="M34,57c0,0-3.4,15.3,0,22.7c0,0-8.7,2.7-15.2-1.7c0,0,3.7-12.4,0-17s-8.1-18.8,0-27.7s35.9-6.5,35.9-6.5"/>
	<path class="st0" d="M10.5,58.2l0.3,1.8C5.7,64.6,1,59.4,1,59.4C3,56.7,10.5,58.2,10.5,58.2s4.7-2.3,3.9-8.8"/>
	<circle class="st1" cx="75.7" cy="33.9" r="0.9"/>
</g>
</svg>
