<?xml version="1.0" encoding="utf-8"?>
<!-- Generator: Adobe Illustrator 22.0.1, SVG Export Plug-In . SVG Version: 6.00 Build 0)  -->
<svg version="1.1" id="Layer_1" xmlns="http://www.w3.org/2000/svg" xmlns:xlink="http://www.w3.org/1999/xlink" x="0px" y="0px"
	 viewBox="0 0 100 100" style="enable-background:new 0 0 100 100;" xml:space="preserve">
<style type="text/css">
	.st0{fill:none;stroke:#FFFFFF;stroke-width:2;stroke-miterlimit:10;}
	.st1{fill:#F05328;stroke:#FFFFFF;stroke-width:2;stroke-miterlimit:10;}
	.st2{fill:#F05328;stroke:#FFFFFF;stroke-width:2;stroke-linecap:round;stroke-linejoin:round;stroke-miterlimit:10;}
	.st3{fill:#FFFFFF;}
</style>
<g>
	<path class="st0" d="M55.7,25.8c-4,0-8.1,1.8-11.8,4.9c-6.3-3.2-13-4.9-17.4-4.9C15.2,25.8,1.8,38,1.8,58.5s17.7,37.3,29,37.3
		c2.9,0,6.6-1.3,10.5-3.7c2.9,2.7,6.2,4.1,9.6,4.1c11.2,0,25.9-17.1,25.9-37.4C76.6,38.3,66.9,25.8,55.7,25.8z"/>
	<path class="st1" d="M21.5,1.2c-3.7,24.2,21.9,26.7,21.9,26.7C44.8,9.4,21.5,1.2,21.5,1.2z"/>
	<g>
		<path class="st2" d="M48.3,79.2c3.8,11.9,14.3,20.2,25.9,19.6c11.8-0.6,21.2-9.9,23.9-22.1L48.3,79.2z"/>
		<ellipse transform="matrix(0.4564 -0.8898 0.8898 0.4564 -36.1913 107.332)" class="st3" cx="69.7" cy="83.3" rx="2.7" ry="0.6"/>
		
			<ellipse transform="matrix(0.9988 -4.959577e-02 4.959577e-02 0.9988 -4.051 3.7482)" class="st3" cx="73.5" cy="83.5" rx="0.6" ry="2.7"/>
		<ellipse transform="matrix(0.7785 -0.6276 0.6276 0.7785 -34.8574 67.0735)" class="st3" cx="77.6" cy="82.9" rx="0.6" ry="2.7"/>
	</g>
	<path class="st2" d="M37,33.6c0,0,5,3.4,13,0"/>
</g>
</svg>
