<?xml version="1.0" encoding="utf-8"?>
<!-- Generator: Adobe Illustrator 22.0.1, SVG Export Plug-In . SVG Version: 6.00 Build 0)  -->
<svg version="1.1" id="Layer_1" xmlns="http://www.w3.org/2000/svg" xmlns:xlink="http://www.w3.org/1999/xlink" x="0px" y="0px"
	 viewBox="0 0 100 100" style="enable-background:new 0 0 100 100;" xml:space="preserve">
<style type="text/css">
	.st0{fill:#FF000D;stroke:#BF192A;stroke-width:2;stroke-miterlimit:10;}
	.st1{fill:#FBFCBE;stroke:#CC0033;stroke-width:2;stroke-miterlimit:10;}
	.st2{fill:#FBFCBE;}
	.st3{fill:none;stroke:#CC0033;stroke-width:2;stroke-miterlimit:10;}
	.st4{fill:none;stroke:#512D0D;stroke-width:2;stroke-linecap:round;stroke-linejoin:round;stroke-miterlimit:10;}
	.st5{fill:#34A341;stroke:#2F7339;stroke-width:2;stroke-miterlimit:10;}
</style>
<path class="st0" d="M55.4,25.6c-3.8,0-7.8,1.7-11.3,4.6c-6-3-12.4-4.6-16.7-4.6C16.6,25.6,3.8,37,3.8,56.2S20.7,91,31.6,91
	c2.8,0,6.3-1.2,10.1-3.5c2.8,2.5,5.9,4.1,9.2,3.8c13.1-1.1,25.3-16.2,24.8-34.9C75.4,37.3,66.1,25.6,55.4,25.6z"/>
<path class="st1" d="M48,75.6c2.9,9.2,14.5,17.9,24.8,17.4c11.3-0.6,20.3-7.8,22.9-19.9L48,75.6z"/>
<path class="st2" d="M48.3,74.6C52,85.7,62,93.4,73.1,92.9c11.3-0.6,20.3-9.2,22.9-20.6L48.3,74.6z"/>
<ellipse transform="matrix(0.4665 -0.8845 0.8845 0.4665 -33.217 103.0819)" cx="68.8" cy="79.1" rx="2.8" ry="0.7"/>
<ellipse transform="matrix(0.9987 -5.099636e-02 5.099636e-02 0.9987 -3.9467 3.8173)" cx="72.8" cy="79.2" rx="0.7" ry="2.8"/>
<ellipse transform="matrix(0.7699 -0.6382 0.6382 0.7699 -32.469 67.3479)" cx="77.2" cy="78.7" rx="0.7" ry="2.8"/>
<path class="st3" d="M37.5,32.9c0,0,4.8,3.2,12.4,0"/>
<path class="st4" d="M43.6,34.6c0,0,7-17.2-1.6-21.1"/>
<path class="st5" d="M22.7,9.4c-3.5,22.6,21,24.9,21,24.9C45,17.1,22.7,9.4,22.7,9.4z"/>
</svg>
