<?xml version="1.0" encoding="utf-8"?>
<!-- Generator: Adobe Illustrator 22.0.1, SVG Export Plug-In . SVG Version: 6.00 Build 0)  -->
<svg version="1.1" id="Layer_1" xmlns="http://www.w3.org/2000/svg" xmlns:xlink="http://www.w3.org/1999/xlink" x="0px" y="0px"
	 viewBox="0 0 72.7 68" style="enable-background:new 0 0 72.7 68;" xml:space="preserve">
<style type="text/css">
	.st0{fill:none;stroke:#FFFFFF;stroke-miterlimit:10;}
	.st1{fill:#F05127;stroke:#FFFFFF;stroke-miterlimit:10;}
	.st2{fill:#F05127;stroke:#FFFFFF;stroke-linecap:round;stroke-linejoin:round;stroke-miterlimit:10;}
	.st3{fill:#FFFFFF;}
</style>
<g>
	<path class="st0" d="M40.5,17.7c-2.7,0-5.5,1.2-8,3.3c-4.3-2.2-8.8-3.3-11.8-3.3c-7.7,0-16.8,8.3-16.8,22.2
		c0,13.9,12,25.3,19.7,25.3c2,0,4.5-0.9,7.1-2.5c2,1.8,4.2,2.8,6.5,2.8c7.6,0,17.6-11.6,17.6-25.4C54.7,26.2,48.1,17.7,40.5,17.7z"
		/>
	<path class="st1" d="M17.3,1c-2.5,16.4,14.9,18.1,14.9,18.1C33.1,6.6,17.3,1,17.3,1z"/>
	<g>
		<path class="st2" d="M35.5,54c2.6,8.1,9.7,13.7,17.6,13.3c8-0.4,14.4-6.7,16.2-15L35.5,54z"/>
		<ellipse transform="matrix(0.4564 -0.8898 0.8898 0.4564 -23.344 75.3111)" class="st3" cx="50" cy="56.8" rx="1.8" ry="0.4"/>
		
			<ellipse transform="matrix(0.9988 -4.959881e-02 4.959881e-02 0.9988 -2.7592 2.6765)" class="st3" cx="52.6" cy="56.9" rx="0.4" ry="1.8"/>
		<ellipse transform="matrix(0.7785 -0.6276 0.6276 0.7785 -23.1849 47.2847)" class="st3" cx="55.4" cy="56.5" rx="0.4" ry="1.8"/>
	</g>
	<path class="st2" d="M27.8,23c0,0,3.4,2.3,8.8,0"/>
</g>
</svg>
