<?xml version="1.0" encoding="utf-8"?>
<!-- Generator: Adobe Illustrator 22.0.1, SVG Export Plug-In . SVG Version: 6.00 Build 0)  -->
<svg version="1.1" id="Layer_1" xmlns="http://www.w3.org/2000/svg" xmlns:xlink="http://www.w3.org/1999/xlink" x="0px" y="0px"
	 viewBox="0 0 58.3 68" style="enable-background:new 0 0 58.3 68;" xml:space="preserve">
<style type="text/css">
	.st0{fill:#F05127;stroke:#FFFFFF;stroke-miterlimit:10;}
	.st1{fill:#FFFFFF;stroke:#FFFFFF;stroke-miterlimit:10;}
	.st2{fill:#FFFFFF;}
</style>
<g>
	<path class="st0" d="M42.6,36.4c0.1-0.2,0-0.5-0.2-1c-0.6-2.1-1.4-4-2.5-5.8c-1-2.8-2.1-6.6-3-11.7c-1.6-9-6-16.6-13.5-16.6
		c0,0,0,0,0,0c0,0,0,0,0,0C15.9,1.4,11.4,9,9.8,17.9c-0.9,5.2-2,9-3,11.7c-1.1,1.8-1.9,3.7-2.5,5.8c-0.2,0.5-0.3,0.8-0.2,1
		c-0.4,1.8-0.6,3.6-0.6,5.6c0,12.3,8.9,22.2,19.9,22.2S43.2,54.3,43.2,42C43.2,40.1,43,38.2,42.6,36.4z"/>
	<ellipse class="st1" cx="22.9" cy="3" rx="2.9" ry="1.1"/>
	<ellipse class="st2" cx="24.2" cy="9.3" rx="0.9" ry="1"/>
	<ellipse class="st2" cx="24.2" cy="60" rx="0.9" ry="1"/>
	<ellipse class="st2" cx="32.2" cy="15.3" rx="0.9" ry="1"/>
	<ellipse class="st2" cx="28.7" cy="6.2" rx="0.9" ry="1"/>
	<ellipse class="st2" cx="31.5" cy="10.2" rx="0.9" ry="1"/>
	<ellipse class="st2" cx="28.7" cy="18.6" rx="0.9" ry="1"/>
	<ellipse class="st2" cx="35.2" cy="19.9" rx="0.9" ry="1"/>
	<ellipse class="st2" cx="33.9" cy="25.5" rx="0.9" ry="1"/>
	<ellipse class="st2" cx="22.1" cy="44.8" rx="0.9" ry="1"/>
	<ellipse class="st2" cx="36.5" cy="28.9" rx="0.9" ry="1"/>
	<ellipse class="st2" cx="29.5" cy="28.3" rx="0.9" ry="1"/>
	<ellipse class="st2" cx="24.2" cy="20.9" rx="0.9" ry="1"/>
	<ellipse class="st2" cx="29.5" cy="34.7" rx="0.9" ry="1"/>
	<ellipse class="st2" cx="34.3" cy="39.2" rx="0.9" ry="1"/>
	<ellipse class="st2" cx="38.2" cy="34.5" rx="0.9" ry="1"/>
	<g>
		<path class="st0" d="M54.2,52.8c0.1-0.1,0.1-0.3,0.1-0.7c0.1-1.6,0-3.1-0.2-4.6c0-2.1,0.2-5,0.9-8.7c1.1-6.4,0-12.8-4.9-15.1
			c0,0,0,0,0,0c0,0,0,0,0,0c-5-2.3-9.8,1.4-13,6.9c-1.9,3.2-3.5,5.4-4.9,6.9c-1.1,0.9-2.2,1.9-3,3.1c-0.3,0.3-0.4,0.4-0.4,0.6
			c-0.7,1.1-1.3,2.2-1.8,3.5c-3,8.2,0.5,17.5,7.8,20.8c7.3,3.3,15.6-0.6,18.6-8.7C53.7,55.4,54,54.1,54.2,52.8z"/>
		<ellipse transform="matrix(0.2893 -0.9572 0.9572 0.2893 -18.2219 73.7405)" class="st1" cx="40.6" cy="49.1" rx="7.7" ry="5"/>
	</g>
</g>
</svg>
