<?xml version="1.0" encoding="utf-8"?>
<!-- Generator: Adobe Illustrator 22.0.1, SVG Export Plug-In . SVG Version: 6.00 Build 0)  -->
<svg version="1.1" id="Layer_1" xmlns="http://www.w3.org/2000/svg" xmlns:xlink="http://www.w3.org/1999/xlink" x="0px" y="0px"
	 viewBox="0 0 100 100" style="enable-background:new 0 0 100 100;" xml:space="preserve">
<style type="text/css">
	.st0{fill:#F05328;stroke:#FFFFFF;stroke-width:2;stroke-miterlimit:10;}
	.st1{fill:#FFFFFF;stroke:#FFFFFF;stroke-width:2;stroke-miterlimit:10;}
	.st2{fill:#FFFFFF;}
</style>
<g>
	<path class="st0" d="M69.1,53.7c0.1-0.3,0-0.7-0.3-1.5c-0.9-3.1-2.1-6-3.7-8.7c-1.5-4.2-3.1-9.9-4.5-17.5
		c-2.4-13.5-9-24.9-20.2-24.9l0,0l0,0C29.1,1.3,22.3,12.7,19.9,26c-1.3,7.8-3,13.5-4.5,17.5c-1.6,2.7-2.8,5.5-3.7,8.7
		c-0.3,0.7-0.4,1.2-0.3,1.5c-0.6,2.7-0.9,5.4-0.9,8.4c0,18.4,13.3,33.3,29.8,33.3S70,80.5,70,62.1C70,59.3,69.7,56.4,69.1,53.7z"/>
	<ellipse class="st1" cx="39.6" cy="3.7" rx="4.3" ry="1.6"/>
	<ellipse class="st2" cx="41.5" cy="13.1" rx="1.3" ry="1.5"/>
	<ellipse class="st2" cx="41.5" cy="89.1" rx="1.3" ry="1.5"/>
	<ellipse class="st2" cx="53.5" cy="22.1" rx="1.3" ry="1.5"/>
	<ellipse class="st2" cx="48.3" cy="8.5" rx="1.3" ry="1.5"/>
	<ellipse class="st2" cx="52.5" cy="14.5" rx="1.3" ry="1.5"/>
	<ellipse class="st2" cx="48.3" cy="27" rx="1.3" ry="1.5"/>
	<ellipse class="st2" cx="58" cy="29" rx="1.3" ry="1.5"/>
	<ellipse class="st2" cx="56.1" cy="37.4" rx="1.3" ry="1.5"/>
	<ellipse class="st2" cx="38.4" cy="66.3" rx="1.3" ry="1.5"/>
	<ellipse class="st2" cx="59.9" cy="42.5" rx="1.3" ry="1.5"/>
	<ellipse class="st2" cx="49.5" cy="41.6" rx="1.3" ry="1.5"/>
	<ellipse class="st2" cx="41.5" cy="30.5" rx="1.3" ry="1.5"/>
	<ellipse class="st2" cx="49.5" cy="51.2" rx="1.3" ry="1.5"/>
	<ellipse class="st2" cx="56.7" cy="57.9" rx="1.3" ry="1.5"/>
	<ellipse class="st2" cx="62.5" cy="50.9" rx="1.3" ry="1.5"/>
	<g>
		<path class="st0" d="M86.5,78.3c0.1-0.1,0.1-0.4,0.1-1c0.1-2.4,0-4.6-0.3-6.9c0-3.1,0.3-7.5,1.3-13c1.6-9.6,0-19.2-7.3-22.6l0,0
			l0,0c-7.5-3.4-14.7,2.1-19.5,10.3c-2.8,4.8-5.2,8.1-7.3,10.3c-1.6,1.3-3.3,2.8-4.5,4.6c-0.4,0.4-0.6,0.6-0.6,0.9
			c-1,1.6-1.9,3.3-2.7,5.2c-4.5,12.3,0.7,26.2,11.7,31.2c10.9,4.9,23.4-0.9,27.9-13C85.7,82.2,86.2,80.2,86.5,78.3z"/>
		<ellipse transform="matrix(0.2893 -0.9572 0.9572 0.2893 -22.697 114.8032)" class="st1" cx="66" cy="72.7" rx="11.5" ry="7.5"/>
	</g>
</g>
</svg>
