<?xml version="1.0" encoding="utf-8"?>
<!-- Generator: Adobe Illustrator 22.0.1, SVG Export Plug-In . SVG Version: 6.00 Build 0)  -->
<svg version="1.1" id="Layer_1" xmlns="http://www.w3.org/2000/svg" xmlns:xlink="http://www.w3.org/1999/xlink" x="0px" y="0px"
	 viewBox="0 0 100 100" style="enable-background:new 0 0 100 100;" xml:space="preserve">
<style type="text/css">
	.st0{fill:#0B4924;stroke:#004520;stroke-width:2;stroke-miterlimit:10;}
	.st1{fill:#00A651;stroke:#000000;stroke-width:2;stroke-miterlimit:10;}
	.st2{fill:#004520;stroke:#000000;stroke-width:2;stroke-miterlimit:10;}
	.st3{fill:#8DC63F;stroke:#004520;stroke-width:2;stroke-miterlimit:10;}
	.st4{fill:#603913;stroke:#532E12;stroke-width:2;stroke-miterlimit:10;}
</style>
<path class="st0" d="M69.6,53.5c0.1-0.2,0-0.7-0.4-1.4c-0.8-3-2-5.8-3.6-8.4c-1.4-4-3-9.5-4.4-17c-2.3-13-8.8-24-19.6-24l0,0l0,0
	c-10.8,0-17.3,11-19.6,24c-1.3,7.5-2.9,13-4.4,17c-1.5,2.6-2.7,5.4-3.6,8.4c-0.3,0.7-0.5,1.1-0.4,1.4c-0.6,2.6-0.9,5.3-0.9,8.1
	c0,17.8,12.9,32.2,28.8,32.2s28.8-14.4,28.8-32.2C70.5,58.8,70.1,56.1,69.6,53.5z"/>
<ellipse class="st1" cx="40.9" cy="5.1" rx="4.2" ry="1.6"/>
<ellipse class="st2" cx="42.9" cy="14.1" rx="1.3" ry="1.4"/>
<ellipse class="st2" cx="42.9" cy="87.8" rx="1.3" ry="1.4"/>
<ellipse class="st2" cx="54.5" cy="22.8" rx="1.3" ry="1.4"/>
<ellipse class="st2" cx="49.3" cy="9.6" rx="1.3" ry="1.4"/>
<ellipse class="st2" cx="53.5" cy="15.5" rx="1.3" ry="1.4"/>
<ellipse class="st2" cx="49.3" cy="27.7" rx="1.3" ry="1.4"/>
<ellipse class="st2" cx="58.8" cy="29.5" rx="1.3" ry="1.4"/>
<ellipse class="st2" cx="57" cy="37.7" rx="1.3" ry="1.4"/>
<ellipse class="st2" cx="39.8" cy="65.7" rx="1.3" ry="1.4"/>
<ellipse class="st2" cx="60.6" cy="42.6" rx="1.3" ry="1.4"/>
<ellipse class="st2" cx="50.6" cy="41.8" rx="1.3" ry="1.4"/>
<ellipse class="st2" cx="42.9" cy="30.9" rx="1.3" ry="1.4"/>
<ellipse class="st2" cx="50.6" cy="51" rx="1.3" ry="1.4"/>
<ellipse class="st1" cx="57.5" cy="57.5" rx="1.3" ry="1.4"/>
<ellipse class="st1" cx="63.2" cy="50.8" rx="1.3" ry="1.4"/>
<path class="st3" d="M86.4,77.3c0.1-0.1,0.1-0.5,0.1-1c0.2-2.3,0.1-4.5-0.3-6.7c0-3.1,0.3-7.3,1.3-12.7c1.6-9.3,0-18.6-7.2-21.9l0,0
	l0,0c-7.2-3.3-14.2,2-18.9,10c-2.7,4.6-5.1,7.8-7,10c-1.6,1.2-3.1,2.7-4.4,4.5c-0.4,0.4-0.6,0.6-0.6,0.8c-1,1.5-1.9,3.2-2.6,5.1
	C42.4,77.2,47.4,90.8,58,95.6c10.6,4.8,22.7-0.8,27-12.6C85.7,81.1,86.1,79.2,86.4,77.3z"/>
<ellipse transform="matrix(0.2893 -0.9572 0.9572 0.2893 -21.551 114.8987)" class="st4" cx="66.6" cy="72" rx="11.2" ry="7.3"/>
</svg>
