<?xml version="1.0" encoding="utf-8"?>
<!-- Generator: Adobe Illustrator 22.0.1, SVG Export Plug-In . SVG Version: 6.00 Build 0)  -->
<svg version="1.1" id="Layer_1" xmlns="http://www.w3.org/2000/svg" xmlns:xlink="http://www.w3.org/1999/xlink" x="0px" y="0px"
	 viewBox="0 0 100 100" style="enable-background:new 0 0 100 100;" xml:space="preserve">
<style type="text/css">
	.st0{fill:#EFDB7D;stroke:#DABB27;stroke-width:2;stroke-linecap:round;stroke-linejoin:round;stroke-miterlimit:10;}
	.st1{fill:#FFF5CB;stroke:#DABB27;stroke-width:2;stroke-linecap:round;stroke-linejoin:round;stroke-miterlimit:10;}
	.st2{fill:#8B5E3C;stroke:#8B5E3C;stroke-width:2;stroke-miterlimit:10;}
	.st3{fill:#FFDE17;stroke:#DABB27;stroke-width:2;stroke-linecap:round;stroke-linejoin:round;stroke-miterlimit:10;}
	.st4{fill:#603913;stroke:#8B5E3C;stroke-width:2;stroke-miterlimit:10;}
</style>
<g>
	<path class="st0" d="M97.1,47.3c-3.1-7.1-11-7.5-12.8-7.5c-2.4,4.4-5.3,8.7-8.5,12.5c10.6-1.7,12.8,19.4,12.8,19.4
		S100.6,55.3,97.1,47.3z"/>
	<path class="st0" d="M46.5,44.3l3.3-3.6c1.4-1.6,2.8-3.2,4.2-4.8c-1.8-2.2-17.4-19.7-34.9-4.2C0.3,48,12.8,47.9,12.8,47.9
		C37,34,41.6,46.3,42.2,48.5C43.7,47.1,45.1,45.8,46.5,44.3z"/>
	<path class="st1" d="M84.5,41.3C84.5,41.3,84.2,41.3,84.5,41.3c4.6-8.9,6.9-18.5,4.2-27.6c-8.5-28.1-21.4,0-21.4,0
		c-4.5,8.6-9.2,15.9-14,22.1c0.1,0.1,0,0,0,0l-3.9,4.8c-1,1.2-2.1,2.4-3.1,3.6l-3.6,4c3.4-3.3,14.6-3.3,14.6-3.3
		c8.8-0.6,15.2,3.3,19,9.1c0.1-0.1,0.1-0.2,0.2-0.3c-0.1,0-0.2,0-0.3,0L84.5,41.3z"/>
	<path class="st2" d="M3.2,76.6c-4.3,6.5,4.1,9,4.1,9c0.3,0,0.6,0,1,0C7.7,80.7,5.3,78,3.2,76.6z"/>
	<path class="st3" d="M42.3,48.7c0,0,0-0.1-0.1-0.3C24.8,64.7,9,70.1,4.4,75.2c-0.3,0.3-0.6,0.7-0.8,1c2.2,1.5,4.8,4.3,5.2,9.4
		c-0.2,0-0.4,0-0.5,0l0,0c37.1,0.1,49.1-10.8,49.1-10.8s0.5-0.3,1.3-1c0.2-1.1,0.5-2.3,0.7-3.6C63.7,49,42.3,48.7,42.3,48.7z"/>
	<path class="st4" d="M3.5,76.2c-0.1,0.1-0.1,0.2-0.2,0.3c0,0.1-0.1,0.1-0.1,0.2c2.1,1.4,4.6,4.1,4.9,9c0.2,0,0.4,0,0.5,0
		C8.3,80.5,5.7,77.7,3.5,76.2z"/>
	<path class="st0" d="M78.6,54.1c-4-5.8-10.9-9.7-20.3-9.1c0,0-12,0-15.5,3.3l-0.4,0.5c0,0,21.4,0.2,17,21.5
		c-0.3,1.3-0.5,2.4-0.7,3.6c-3.6,18.3-2.6,21.7-2.6,21.7s2.4,8.7,18.2-7.9C83.9,77.5,84.8,63.2,78.6,54.1z"/>
</g>
</svg>
