<?xml version="1.0" encoding="utf-8"?>
<!-- Generator: Adobe Illustrator 22.0.1, SVG Export Plug-In . SVG Version: 6.00 Build 0)  -->
<svg version="1.1" id="Layer_1" xmlns="http://www.w3.org/2000/svg" xmlns:xlink="http://www.w3.org/1999/xlink" x="0px" y="0px"
	 viewBox="0 0 100 100" style="enable-background:new 0 0 100 100;" xml:space="preserve">
<style type="text/css">
	.st0{fill:#FFFFFF;stroke:#FFFFFF;stroke-width:2;stroke-miterlimit:10;}
	.st1{fill:none;stroke:#FFFFFF;stroke-width:2;stroke-linecap:round;stroke-linejoin:round;stroke-miterlimit:10;}
	.st2{fill:#F05127;stroke:#FFFFFF;stroke-width:2;stroke-linecap:round;stroke-linejoin:round;stroke-miterlimit:10;}
	.st3{fill:#FFFFFF;stroke:#FFFFFF;stroke-width:2;stroke-linecap:round;stroke-linejoin:round;stroke-miterlimit:10;}
</style>
<g>
	<path class="st0" d="M3.2,76.8c-4.2,6.6,4,9,4,9c0.3,0,0.6,0,1,0C7.7,81,5.2,78.2,3.2,76.8z"/>
	<g>
		<path class="st1" d="M96.5,47.3c-3.1-7.1-10.9-7.5-12.7-7.5c-2.4,4.4-5.3,8.7-8.5,12.6C85.9,50.8,88,71.9,88,71.9
			S100,55.4,96.5,47.3z"/>
		<path class="st2" d="M42,48.8c0,0,0-0.1-0.1-0.3C24.6,64.9,9,70.3,4.3,75.4c-0.3,0.3-0.6,0.7-0.8,1c2.1,1.5,4.7,4.4,5.2,9.5
			c-0.2,0-0.3,0-0.5,0c0,0,0,0,0,0C45.1,86,57,75,57,75s0.5-0.3,1.2-1c0.2-1.1,0.5-2.3,0.7-3.6C63.3,49,42,48.8,42,48.8z"/>
		<path class="st3" d="M83.5,41.3c0,0,0.1,0,0.3,0c4.5-8.9,6.9-18.6,4.1-27.7c-8.5-28.3-21.2,0-21.2,0c-4.5,8.7-9.1,16-13.9,22.3
			c0.1,0.1,0.2,0.2,0.2,0.2l-4,4.7c-1,1.2-2.1,2.4-3.1,3.6l-3.5,4C45.8,45,56.9,45,56.9,45c8.8-0.6,15.2,3.3,18.9,9.1
			c0.1-0.1,0.1-0.2,0.2-0.3c-0.1,0-0.2,0-0.3,0L83.5,41.3z"/>
		<path class="st0" d="M3.5,76.4c-0.1,0.1-0.1,0.2-0.2,0.3c0,0.1-0.1,0.1-0.1,0.2c2,1.4,4.5,4.2,5,9c0.2,0,0.3,0,0.5,0
			C8.3,80.7,5.6,77.9,3.5,76.4z"/>
		<path class="st1" d="M46.2,44.3l3.3-3.6c1.4-1.5,2.8-3.2,4.1-4.9c-1.8-2.1-17.3-19.8-34.7-4.3c-18.5,16.5-6.2,16.4-6.2,16.4
			c24-14,28.7-1.6,29.2,0.6C43.4,47.2,44.8,45.8,46.2,44.3z"/>
		<path class="st2" d="M78.1,54.2c-4-5.9-10.8-9.7-20.2-9.1c0,0-11.9,0-15.4,3.3L42,48.8c0,0,21.2,0.2,16.9,21.7
			c-0.3,1.2-0.5,2.4-0.7,3.6C54.7,92.4,55.7,96,55.7,96s2.4,8.8,18.1-8C83.4,77.7,84.3,63.4,78.1,54.2z"/>
	</g>
</g>
</svg>
