<?xml version="1.0" encoding="utf-8"?>
<!-- Generator: Adobe Illustrator 22.0.1, SVG Export Plug-In . SVG Version: 6.00 Build 0)  -->
<svg version="1.1" id="Layer_1" xmlns="http://www.w3.org/2000/svg" xmlns:xlink="http://www.w3.org/1999/xlink" x="0px" y="0px"
	 viewBox="0 0 100 100" style="enable-background:new 0 0 100 100;" xml:space="preserve">
<style type="text/css">
	.st0{fill:#EFDB7D;stroke:#DABB27;stroke-linecap:round;stroke-linejoin:round;stroke-miterlimit:10;}
	.st1{fill:#FFF5CB;stroke:#DABB27;stroke-linecap:round;stroke-linejoin:round;stroke-miterlimit:10;}
	.st2{fill:#8B5E3C;stroke:#8B5E3C;stroke-miterlimit:10;}
	.st3{fill:#FFDE17;stroke:#DABB27;stroke-linecap:round;stroke-linejoin:round;stroke-miterlimit:10;}
	.st4{fill:#603913;stroke:#8B5E3C;stroke-miterlimit:10;}
</style>
<g>
	<path class="st0" d="M95.6,47.5c-2.9-6.8-10.5-7.2-12.2-7.2c-2.3,4.3-5.1,8.4-8.1,12.1c10.1-1.6,12.2,18.7,12.2,18.7
		S98.9,55.3,95.6,47.5z"/>
	<path class="st0" d="M47.3,44.6l3.2-3.4c1.3-1.5,2.6-3,4-4.7c-1.7-2.1-16.6-19-33.4-4.1c-17.8,15.8-5.9,15.7-5.9,15.7
		c23.1-13.5,27.5-1.5,28.1,0.5C44.5,47.3,45.9,46,47.3,44.6z"/>
	<path class="st1" d="M83.1,41.7c0,0,0.1,0,0.3,0c4.3-8.5,6.6-17.8,4-26.7c-8.1-27.2-20.4,0-20.4,0c-4.3,8.3-8.8,15.4-13.3,21.4
		c0.1,0.1,0.2,0.2,0.2,0.2L50,41.2c-1,1.2-2,2.3-3,3.4l-3.4,3.9c3.2-3.2,13.9-3.2,13.9-3.2c8.4-0.5,14.6,3.1,18.1,8.8
		c0.1-0.1,0.1-0.2,0.2-0.2c-0.1,0-0.2,0-0.3,0L83.1,41.7z"/>
	<path class="st2" d="M5.9,75.8c-4.1,6.3,3.9,8.7,3.9,8.7c0.3,0,0.6,0,0.9,0C10.3,79.8,7.9,77.2,5.9,75.8z"/>
	<path class="st3" d="M43.2,48.9c0,0,0-0.1-0.1-0.3C26.5,64.4,11.4,69.6,7,74.5c-0.3,0.3-0.5,0.6-0.8,0.9c2,1.4,4.6,4.2,5,9.1
		c-0.2,0-0.3,0-0.5,0c0,0,0,0,0,0c35.4,0.1,46.9-10.4,46.9-10.4s0.4-0.3,1.2-1c0.2-1.1,0.4-2.2,0.7-3.4
		C63.7,49.1,43.2,48.9,43.2,48.9z"/>
	<path class="st4" d="M6.2,75.4c-0.1,0.1-0.1,0.2-0.2,0.2c0,0.1-0.1,0.1-0.1,0.2c2,1.4,4.4,4,4.8,8.7c0.2,0,0.3,0,0.5,0
		C10.8,79.6,8.3,76.9,6.2,75.4z"/>
	<path class="st0" d="M77.9,54.1c-3.8-5.6-10.4-9.3-19.4-8.8c0,0-11.4,0-14.8,3.2l-0.4,0.5c0,0,20.4,0.2,16.2,20.9
		c-0.2,1.2-0.5,2.3-0.7,3.4c-3.4,17.6-2.5,21-2.5,21s2.3,8.4,17.4-7.7C82.9,76.7,83.8,63,77.9,54.1z"/>
</g>
</svg>
