<?xml version="1.0" encoding="utf-8"?>
<!-- Generator: Adobe Illustrator 22.1.0, SVG Export Plug-In . SVG Version: 6.00 Build 0)  -->
<svg version="1.1" id="Layer_1" xmlns="http://www.w3.org/2000/svg" xmlns:xlink="http://www.w3.org/1999/xlink" x="0px" y="0px"
	 viewBox="0 0 100 100" style="enable-background:new 0 0 100 100;" xml:space="preserve">
<style type="text/css">
	.st0{fill:none;stroke:#FFFFFF;stroke-linecap:round;stroke-linejoin:round;stroke-miterlimit:10;}
	.st1{fill:none;stroke:#FFFFFF;stroke-miterlimit:10;}
	.st2{fill:#FFFFFF;stroke:#FFFFFF;stroke-miterlimit:10;}
</style>
<path class="st0" d="M27.6,57.9l-12.1-5.5V36.1c0,0,10.7-19,35.8-18c0,0,0.4,9.6,7.9,13.6c0,0,10.9,6.4,19.7-1.5l4.5,5.2V52L72,57.9
	c0,0-0.8-1.8-6.7-0.8V38H34.2v18.8C34.2,56.8,29.1,55.9,27.6,57.9z"/>
<path class="st0" d="M32.6,69.4l-2.4-5c0,0-4.3,0.3-4.2-4.5l-12.8-6.1V35.6c0,0,10.3-20,38.2-20c0,0-0.6-2.4,2-5.9
	c0,0-30.4-4.5-46.6,24.1v24.2L32.6,69.4z"/>
<path class="st0" d="M67,69.4l2.1-4.8c0,0,4.2,0.8,4.2-5L86,53.8v-19l-5.1-6.3c0,0,3.2-2.5,3.2-5.6l7.4,9.6v24.8L67,69.4z"/>
<path class="st0" d="M32.7,61.2c0,0,9.2,11.4,6.7,31.6"/>
<path class="st0" d="M66.3,61.2c0,0-10.2,16.7-6,31.6"/>
<line class="st0" x1="33.9" y1="62.9" x2="60.1" y2="92"/>
<polyline class="st0" points="44.3,62.1 45.3,67.1 59.3,83.6 "/>
<polyline class="st0" points="54.3,62.1 53.5,67.3 60.5,75.8 "/>
<line class="st0" x1="45.6" y1="67.5" x2="38.6" y2="74.9"/>
<line class="st0" x1="53.5" y1="67.5" x2="39.8" y2="82"/>
<line class="st0" x1="65.3" y1="62.9" x2="39.6" y2="91.3"/>
<line class="st0" x1="39.1" y1="77" x2="52.4" y2="91.3"/>
<line class="st0" x1="60.3" y1="76.4" x2="46.6" y2="92"/>
<line class="st0" x1="39.8" y1="86.7" x2="44.6" y2="92.3"/>
<line class="st0" x1="59.3" y1="85.7" x2="54" y2="92.3"/>
<path class="st1" d="M60.1,57.3h-21c-0.8,0-1.4-0.6-1.4-1.4V42.5c0-0.8,0.6-1.4,1.4-1.4h21c0.8,0,1.4,0.6,1.4,1.4V56
	C61.5,56.7,60.9,57.3,60.1,57.3z"/>
<path class="st2" d="M29.5,59.2c0,0-1.3,0.4-1.3,1.7c0,0-0.2,1.4,1.3,1.6h40.3c0,0,1.4-0.3,1.5-1.7c0,0,0.3-1.7-1.4-1.7H29.5z"/>
<circle class="st0" cx="68.2" cy="17.4" r="13.6"/>
<path class="st0" d="M59.5,6.9c0,0,3.1,9.8-3.7,16"/>
<path class="st0" d="M67,3.9c0,0-8,15.8-0.7,26.7"/>
<path class="st0" d="M74.9,6.2c0,0-6.9,1.6-6.8,6.6c0,0-0.7,6.5,9.7,13.4"/>
</svg>
