<?xml version="1.0" encoding="utf-8"?>
<!-- Generator: Adobe Illustrator 22.0.1, SVG Export Plug-In . SVG Version: 6.00 Build 0)  -->
<svg version="1.1" id="Layer_1" xmlns="http://www.w3.org/2000/svg" xmlns:xlink="http://www.w3.org/1999/xlink" x="0px" y="0px"
	 viewBox="0 0 77 77.9" style="enable-background:new 0 0 77 77.9;" xml:space="preserve">
<style type="text/css">
	.st0{fill:#FFFFFF;stroke:#FFFFFF;stroke-miterlimit:10;}
	.st1{fill:none;stroke:#FFFFFF;stroke-linecap:round;stroke-linejoin:round;stroke-miterlimit:10;}
	.st2{fill:#F05127;stroke:#FFFFFF;stroke-linecap:round;stroke-linejoin:round;stroke-miterlimit:10;}
	.st3{fill:#FFFFFF;stroke:#FFFFFF;stroke-linecap:round;stroke-linejoin:round;stroke-miterlimit:10;}
</style>
<path class="st0" d="M3.1,59.7c-3.2,5,3.1,6.9,3.1,6.9c0.2,0,0.5,0,0.7,0C6.6,62.9,4.7,60.8,3.1,59.7z"/>
<g>
	<path class="st1" d="M74.3,37.2c-2.3-5.4-8.3-5.7-9.7-5.7c-1.8,3.4-4.1,6.6-6.5,9.6c8-1.3,9.7,14.9,9.7,14.9S77,43.4,74.3,37.2z"/>
	<path class="st2" d="M32.8,38.3c0,0,0-0.1-0.1-0.2C19.5,50.6,7.5,54.8,4,58.6c-0.2,0.3-0.4,0.5-0.6,0.7C5,60.5,7,62.7,7.3,66.6
		c-0.1,0-0.3,0-0.4,0c0,0,0,0,0,0c28.1,0.1,37.2-8.3,37.2-8.3s0.3-0.3,0.9-0.8c0.2-0.9,0.3-1.8,0.5-2.7C49,38.5,32.8,38.3,32.8,38.3
		z"/>
	<path class="st3" d="M64.4,32.6c0,0,0.1,0,0.3,0c3.4-6.8,5.2-14.2,3.1-21.2c-6.5-21.6-16.2,0-16.2,0c-3.4,6.6-7,12.2-10.6,17
		c0.1,0.1,0.1,0.2,0.1,0.2l-3.1,3.6c-0.8,0.9-1.6,1.8-2.4,2.7L33.1,38c2.5-2.5,11-2.5,11-2.5c6.7-0.4,11.6,2.5,14.4,7
		c0-0.1,0.1-0.1,0.1-0.2c-0.1,0-0.1,0-0.2,0L64.4,32.6z"/>
	<path class="st0" d="M3.4,59.4c-0.1,0.1-0.1,0.1-0.1,0.2c0,0-0.1,0.1-0.1,0.1c1.6,1.1,3.5,3.2,3.8,6.9c0.1,0,0.3,0,0.4,0
		C7,62.7,5,60.5,3.4,59.4z"/>
	<path class="st1" d="M36,34.9l2.5-2.7c1.1-1.2,2.1-2.4,3.2-3.7c-1.4-1.6-13.2-15.1-26.5-3.3C1,37.8,10.4,37.7,10.4,37.7
		c18.3-10.7,21.9-1.2,22.3,0.4C33.8,37.1,34.9,36,36,34.9z"/>
	<path class="st2" d="M60.3,42.4c-3-4.5-8.3-7.4-15.4-7c0,0-9.1,0-11.8,2.5l-0.3,0.4c0,0,16.2,0.2,12.9,16.6c-0.2,1-0.4,1.9-0.5,2.7
		c-2.7,14-2,16.7-2,16.7S45,81,57,68.2C64.3,60.4,65,49.5,60.3,42.4z"/>
</g>
</svg>
