<?xml version="1.0" encoding="utf-8"?>
<!-- Generator: Adobe Illustrator 22.1.0, SVG Export Plug-In . SVG Version: 6.00 Build 0)  -->
<svg version="1.1" id="Layer_1" xmlns="http://www.w3.org/2000/svg" xmlns:xlink="http://www.w3.org/1999/xlink" x="0px" y="0px"
	 viewBox="0 0 60 60" style="enable-background:new 0 0 60 60;" xml:space="preserve">
<style type="text/css">
	.st0{fill:#E2574C;stroke:#D34D46;stroke-width:2;stroke-miterlimit:10;}
	.st1{fill:#BF392C;stroke:#AF2F28;stroke-width:2;stroke-miterlimit:10;}
	.st2{fill:#EFC75E;stroke:#F2BB40;stroke-width:2;stroke-miterlimit:10;}
	.st3{fill:#D87100;stroke:#000000;stroke-linecap:round;stroke-linejoin:round;stroke-miterlimit:10;}
	.st4{fill:none;stroke:#000000;stroke-linecap:round;stroke-linejoin:round;stroke-miterlimit:10;}
</style>
<g>
	<path class="st0" d="M8.1,9.5h14.8l10.9,16.3c0,0-6.7-1.7-12.9,3L8.1,9.5z"/>
	<path class="st1" d="M37.4,9.5h14.7L39.5,27.8c0,0-5.1-3.4-12.3-1.9L37.4,9.5z"/>
	<circle class="st2" cx="30.7" cy="38.2" r="13.8"/>
	<circle class="st2" cx="30.7" cy="38.2" r="7.1"/>
</g>
<g id="kA2A1s_1_">
	
		<image style="overflow:visible;" width="225" height="225" id="kA2A1s" xlink:href="D44274A636E95ADE.jpg"  transform="matrix(0.4862 0 0 0.4862 -213.9324 99.6046)">
	</image>
</g>
<circle class="st3" cx="30.7" cy="38.5" r="8.2"/>
<path class="st4" d="M25.4,32.2c0,0,1.9,5.9-2.2,9.6"/>
<path class="st4" d="M29.9,30.4c0,0-4.8,9.5-0.4,16.1"/>
<path class="st4" d="M34.7,31.8c0,0-4.2,1-4.1,4c0,0-0.4,3.9,5.9,8.1"/>
</svg>
