<?xml version="1.0" encoding="utf-8"?>
<!-- Generator: Adobe Illustrator 22.1.0, SVG Export Plug-In . SVG Version: 6.00 Build 0)  -->
<svg version="1.1" id="Layer_1" xmlns="http://www.w3.org/2000/svg" xmlns:xlink="http://www.w3.org/1999/xlink" x="0px" y="0px"
	 viewBox="0 0 60 60" style="enable-background:new 0 0 60 60;" xml:space="preserve">
<style type="text/css">
	.st0{fill:#E93745;stroke:#D9364A;stroke-miterlimit:10;}
	.st1{fill:#8DC63F;stroke:#88B840;stroke-miterlimit:10;}
	.st2{fill:#723817;stroke:#603013;stroke-miterlimit:10;}
</style>
<path class="st0" d="M13.3,20.7c0,0,6.7-5,15.2-1.4c0,0,1-8.3,5.9-12.3c0,0,1.2-0.9,2.9,0c0,0,1.9,1.5,0.5,3.6c0,0-3.5,3.2-4.2,8.6
	c0,0,7.6-3.5,14.9,1.5c0,0-7.6,3.4-9.7,12.6c0,0-1.2,5.2,1.2,10.4c0,0,2.5,6.2,8.6,8.8c0,0-8.6,10.2-17.1,5.2c0,0-6.8,5.9-18.1-5.2
	c0,0,4-1.2,7.8-7.2c0,0,4.1-6.7,1.4-14.1C22.5,31.1,20.9,24.5,13.3,20.7z"/>
<path class="st1" d="M11.5,0.7c0,0,16.5-2.4,14.8,14.8C26.3,15.5,10.6,18.3,11.5,0.7z"/>
<path class="st2" d="M28.3,19.4c0,0,1.4-6.2,3-8.8c0,0,1.7-2.9,2.9-3.7c0,0,1.5-1.5,3.4-0.4c0,0,2.3,1.3,0.7,3.5L37,11.8
	c0,0-2.4,2.2-3.3,7.4c0,0-1.5,0.7-2.2,1.4C31.5,20.6,30.6,19.5,28.3,19.4z"/>
<path class="st2" d="M47,14.5"/>
</svg>
