<?xml version="1.0" encoding="utf-8"?>
<!-- Generator: Adobe Illustrator 22.1.0, SVG Export Plug-In . SVG Version: 6.00 Build 0)  -->
<svg version="1.1" id="Layer_1" xmlns="http://www.w3.org/2000/svg" xmlns:xlink="http://www.w3.org/1999/xlink" x="0px" y="0px"
	 viewBox="0 0 100 100" style="enable-background:new 0 0 100 100;" xml:space="preserve">
<style type="text/css">
	.st0{fill:none;stroke:#FFFFFF;stroke-width:2;stroke-miterlimit:10;}
</style>
<g>
	<path class="st0" d="M22,34.7c0,0,11-8.3,25.1-2.3c0,0,1.7-13.7,9.8-20.3c0,0,1.9-1.5,4.8,0c0,0,3.2,2.5,0.8,5.9
		c0,0-5.8,5.4-7,14.1c0,0,12.5-5.8,24.6,2.5c0,0-12.5,5.6-16.1,20.8c0,0-2.1,8.5,1.9,17.2c0,0,4.1,10.2,14.1,14.6
		c0,0-14.1,16.9-28.2,8.5c0,0-11.3,9.8-29.9-8.5c0,0,6.6-2.1,12.9-11.9c0,0,6.7-11.1,2.3-23.3C37.2,52,34.5,41,22,34.7z"/>
	<path class="st0" d="M19.1,1.8c0,0,27.2-3.9,24.4,24.4C43.5,26.2,17.5,30.9,19.1,1.8z"/>
</g>
</svg>
