<?xml version="1.0" encoding="utf-8"?>
<!-- Generator: Adobe Illustrator 22.1.0, SVG Export Plug-In . SVG Version: 6.00 Build 0)  -->
<svg version="1.1" id="Layer_1" xmlns="http://www.w3.org/2000/svg" xmlns:xlink="http://www.w3.org/1999/xlink" x="0px" y="0px"
	 viewBox="0 0 100 100" style="enable-background:new 0 0 100 100;" xml:space="preserve">
<style type="text/css">
	.st0{fill:none;stroke:#FFFFFF;stroke-width:2;stroke-miterlimit:10;}
	.st1{fill:none;stroke:#FFFFFF;stroke-width:2;stroke-linecap:round;stroke-linejoin:round;stroke-miterlimit:10;}
</style>
<path class="st0" d="M31.2,30.2H13.9c-1.5,0-2.7-1.2-2.7-2.7v-5c0-1.5,1.2-2.7,2.7-2.7h17.2c1.5,0,2.7,1.2,2.7,2.7v5
	C33.9,29,32.7,30.2,31.2,30.2z"/>
<path class="st0" d="M49.5,52H12.4c-1.4,0-2.6-1.2-2.6-2.6V36c0-1.4,1.2-2.6,2.6-2.6h37.1c1.4,0,2.6,1.2,2.6,2.6v13.4
	C52,50.8,50.9,52,49.5,52z"/>
<path class="st1" d="M55.3,55.3h-44c0,0-6.1-0.9-6.2,5v11.3c0,0-1.2,7.9,9.2,5.2c0,0-0.1-5.9,4.7-7.8c0,0,5.6-2.7,10.2,1.1
	c0,0,3.5,3.2,3.1,6.6l32-0.1c0,0,0-4.4,4.5-7.5c0,0,3.3-2.8,8.5-0.1c0,0,4.4,1.5,5,7.7l6.5,0.1c0,0,5.4,0.2,5.9-8.3v-7.4
	c0,0,1.1-6.8-6.1-8.9L84,51.1c0,0-4.3-0.7-5.2-4.8l-2.5-5.2c0,0-3.1-5.6-8.1-5.4l-12.6,0L55.3,55.3z"/>
<circle class="st0" cx="23.2" cy="76.9" r="6.3"/>
<circle class="st0" cx="73.4" cy="76.9" r="6.3"/>
<path class="st1" d="M60.3,40.2v12.4h16.9l-3.7-7.1c0,0-2.5-5.3-7.9-5.3H60.3z"/>
<polygon class="st0" points="18.8,41 34.9,41 32.2,38.4 34.9,35.9 41.6,42.7 34.9,49.6 32.4,47.1 34.9,44.7 18.8,44.7 "/>
</svg>
