<?xml version="1.0" encoding="utf-8"?>
<!-- Generator: Adobe Illustrator 22.1.0, SVG Export Plug-In . SVG Version: 6.00 Build 0)  -->
<svg version="1.1" id="Layer_1" xmlns="http://www.w3.org/2000/svg" xmlns:xlink="http://www.w3.org/1999/xlink" x="0px" y="0px"
	 viewBox="0 0 60 60" style="enable-background:new 0 0 60 60;" xml:space="preserve">
<style type="text/css">
	.st0{fill:#8BCFBA;stroke:#7CC4AC;stroke-miterlimit:10;}
	.st1{fill:#7ABCA6;stroke:#71AF98;stroke-miterlimit:10;}
	.st2{fill:#EF4646;stroke:#ED3A3A;stroke-miterlimit:10;}
	.st3{fill:#727373;stroke:#666666;stroke-miterlimit:10;}
	.st4{fill:#FFFFFF;}
</style>
<g id="pFRMwq_1_">
	
		<image style="overflow:visible;" width="1300" height="1300" id="pFRMwq" xlink:href="6671F397C94BB5B0.jpg"  transform="matrix(8.365938e-02 0 0 8.365938e-02 -14.0757 66.7898)">
	</image>
</g>
<path class="st0" d="M19.7,15.5h-7.8c-1.5,0-2.7-1.2-2.7-2.7v-0.7c0-1.5,1.2-2.7,2.7-2.7h7.8c1.5,0,2.7,1.2,2.7,2.7v0.7
	C22.3,14.3,21.1,15.5,19.7,15.5z"/>
<path class="st1" d="M29.2,27.6H9.7c-1.4,0-2.6-1.2-2.6-2.6v-5.7c0-1.4,1.2-2.6,2.6-2.6h19.4c1.4,0,2.6,1.2,2.6,2.6V25
	C31.8,26.4,30.6,27.6,29.2,27.6z"/>
<path class="st2" d="M33.1,29H7.5c0,0-3.6-0.5-3.6,2.9v6.6c0,0-0.7,4.6,5.4,3.1c0,0,0-3.4,2.7-4.6c0,0,3.3-1.6,6,0.7
	c0,0,2,1.9,1.8,3.8l18.6,0c0,0,0-2.5,2.6-4.4c0,0,1.9-1.6,5,0c0,0,2.6,0.9,2.9,4.5l3.8,0c0,0,3.1,0.1,3.4-4.8v-4.3
	c0,0,0.7-4-3.6-5.2l-2.8-0.7c0,0-2.5-0.4-3-2.8l-1.5-3.1c0,0-1.8-3.2-4.7-3.1l-7.3,0L33.1,29z"/>
<circle class="st3" cx="14.4" cy="41.6" r="3.7"/>
<circle class="st3" cx="43.7" cy="41.6" r="3.7"/>
<path class="st4" d="M36,20.2v7.2h9.9l-2.2-4.1c0,0-1.5-3.1-4.6-3.1H36z"/>
<polygon class="st4" points="12.4,21.2 21.8,21.2 20.2,19.7 21.8,18.2 25.7,22.2 21.8,26.2 20.3,24.8 21.8,23.4 12.4,23.4 "/>
</svg>
