<?xml version="1.0" encoding="utf-8"?>
<!-- Generator: Adobe Illustrator 22.1.0, SVG Export Plug-In . SVG Version: 6.00 Build 0)  -->
<svg version="1.1" id="Layer_1" xmlns="http://www.w3.org/2000/svg" xmlns:xlink="http://www.w3.org/1999/xlink" x="0px" y="0px"
	 viewBox="0 0 100 100" style="enable-background:new 0 0 100 100;" xml:space="preserve">
<style type="text/css">
	.st0{fill:none;stroke:#FFFFFF;stroke-width:2;stroke-miterlimit:10;}
	.st1{fill:#FFFFFF;}
	.st2{font-family:'Muli-Bold';}
	.st3{font-size:23.4826px;}
	.st4{font-size:12.4828px;}
</style>
<path class="st0" d="M21,43.5c0,0,0.3-8,8.8-9.4c0,0,4.2-17.5,19.7-16.8c0,0,13.2,0,16.8,10.5c0,0,9.4-3.9,16.2,3.5
	c0,0,7.5,6.7,4.6,14c0,0,11.7,1.6,11.7,16.2c0,0-0.5,10.3-14.5,14.7H15.4c0,0-9.5-0.8-12.9-9.2c0,0-3.7-9.3,0.9-16.2
	C3.5,50.9,10,39.1,21,43.5z"/>
<text transform="matrix(1 0 0 1 31.7939 59.1504)" class="st1 st2 st3">CO</text>
<text transform="matrix(1 0 0 1 65.7188 65.6406)" class="st1 st2 st4">2</text>
</svg>
