<?xml version="1.0" encoding="utf-8"?>
<!-- Generator: Adobe Illustrator 22.1.0, SVG Export Plug-In . SVG Version: 6.00 Build 0)  -->
<svg version="1.1" id="Layer_1" xmlns="http://www.w3.org/2000/svg" xmlns:xlink="http://www.w3.org/1999/xlink" x="0px" y="0px"
	 viewBox="0 0 60 60" style="enable-background:new 0 0 60 60;" xml:space="preserve">
<style type="text/css">
	.st0{fill:#F1F2F2;stroke:#E6E7E8;stroke-width:3;stroke-miterlimit:10;}
	.st1{fill:#2BB673;}
	.st2{font-family:'Muli-Bold';}
	.st3{font-size:13.6782px;}
	.st4{font-size:7.271px;}
</style>
<path class="st0" d="M13.3,24.6c0,0,0.2-4.7,5.1-5.5c0,0,2.5-10.2,11.5-9.8c0,0,7.7,0,9.8,6.1c0,0,5.5-2.3,9.4,2.1
	c0,0,4.4,3.9,2.7,8.2c0,0,6.8,0.9,6.8,9.5c0,0-0.3,6-8.4,8.6H10c0,0-5.5-0.5-7.5-5.4c0,0-2.1-5.4,0.5-9.4C3.1,29,6.9,22.1,13.3,24.6
	z"/>
<text transform="matrix(1 0 0 1 19.5698 33.7637)" class="st1 st2 st3">CO</text>
<text transform="matrix(1 0 0 1 39.6094 35.3135)" class="st1 st2 st4">2</text>
</svg>
