<?xml version="1.0" encoding="utf-8"?>
<!-- Generator: Adobe Illustrator 22.0.1, SVG Export Plug-In . SVG Version: 6.00 Build 0)  -->
<svg version="1.1" id="Layer_1" xmlns="http://www.w3.org/2000/svg" xmlns:xlink="http://www.w3.org/1999/xlink" x="0px" y="0px"
	 viewBox="0 0 53.7 70.7" style="enable-background:new 0 0 53.7 70.7;" xml:space="preserve">
<style type="text/css">
	.st0{fill:none;stroke:#FFFFFF;stroke-miterlimit:10;}
	.st1{fill:none;stroke:#FFFFFF;stroke-linecap:round;stroke-linejoin:round;stroke-miterlimit:10;}
	.st2{fill:#FFFFFF;}
	.st3{fill:#F05127;stroke:#FFFFFF;stroke-linecap:round;stroke-linejoin:round;stroke-miterlimit:10;}
	.st4{fill:#F05127;stroke:#FFFFFF;stroke-miterlimit:10;}
</style>
<g>
	<g>
		<path class="st0" d="M4.3,32.9l2.7,33c0,0,11.3,0.9,21.5,0l3.7-33C32.1,32.9,19.1,34.5,4.3,32.9z"/>
		<polygon class="st1" points="6.2,21.8 31.2,21.8 33.3,27.3 4,27.3 		"/>
		<polygon class="st2" points="5.3,45 30.8,45 29.6,56 6.2,56 		"/>
		<path class="st3" d="M33.6,33.6H3.2c-0.6,0-1.1-0.5-1.1-1.1v-3.9c0-0.6,0.5-1.1,1.1-1.1h30.4c0.6,0,1.1,0.5,1.1,1.1l0,3.9
			C34.7,33.1,34.2,33.6,33.6,33.6z"/>
	</g>
	<g>
		
			<ellipse transform="matrix(0.7749 -0.6321 0.6321 0.7749 -29.3783 33.7821)" class="st4" cx="32.7" cy="58.1" rx="7.7" ry="12.6"/>
		<path class="st3" d="M26.2,49.6c0,0,5.2,2,6.1,7.9c1,6,7.3,9.5,7.3,9.5"/>
		<path class="st3" d="M31.2,47.6c0,0,0-7,6-9.9c6-2.9,7-5.7,7-5.7s5,11.4-6.3,20.3C37.8,52.3,34.8,48.7,31.2,47.6z"/>
		<path class="st3" d="M38.2,52.7c0,0,3.4,4.1,4.3,8.3c0,0,4.1-0.5,5.6-2s4.9-0.7,4.9-0.7S47.4,50.6,38.2,52.7z"/>
	</g>
	<path class="st3" d="M13.2,18.8c0,0,3.1-4.5-1.3-9.3S14.3,1,14.3,1"/>
	<path class="st3" d="M18.1,16.1c0,0,1.6-3.1-0.9-6.9s2.5-5.5,2.5-5.5"/>
</g>
</svg>
