<?xml version="1.0" encoding="utf-8"?>
<!-- Generator: Adobe Illustrator 22.0.1, SVG Export Plug-In . SVG Version: 6.00 Build 0)  -->
<svg version="1.1" id="Layer_1" xmlns="http://www.w3.org/2000/svg" xmlns:xlink="http://www.w3.org/1999/xlink" x="0px" y="0px"
	 viewBox="0 0 100 100" style="enable-background:new 0 0 100 100;" xml:space="preserve">
<style type="text/css">
	.st0{fill:none;stroke:#FFFFFF;stroke-width:2;stroke-miterlimit:10;}
	.st1{fill:none;stroke:#FFFFFF;stroke-width:2;stroke-linecap:round;stroke-linejoin:round;stroke-miterlimit:10;}
	.st2{fill:#FFFFFF;}
	.st3{fill:#F05328;stroke:#FFFFFF;stroke-width:2;stroke-linecap:round;stroke-linejoin:round;stroke-miterlimit:10;}
	.st4{fill:#F05328;stroke:#FFFFFF;stroke-width:2;stroke-miterlimit:10;}
</style>
<g>
	<g>
		<path class="st0" d="M17.1,47.2l3.8,47c0,0,16.1,1.3,30.6,0l5.3-47C56.7,47.2,38.2,49.5,17.1,47.2z"/>
		<polygon class="st1" points="19.8,31.4 55.4,31.4 58.4,39.2 16.7,39.2 		"/>
		<polygon class="st2" points="18.6,64.4 54.9,64.4 53.2,80.1 19.8,80.1 		"/>
		<path class="st3" d="M58.9,48.2H15.6c-0.9,0-1.6-0.7-1.6-1.6v-5.6c0-0.9,0.7-1.6,1.6-1.6h43.3c0.9,0,1.6,0.7,1.6,1.6v5.6
			C60.4,47.5,59.7,48.2,58.9,48.2z"/>
	</g>
	<g>
		<ellipse transform="matrix(0.7749 -0.6321 0.6321 0.7749 -39.6043 55.1059)" class="st4" cx="57.6" cy="83.2" rx="11" ry="17.9"/>
		<path class="st3" d="M48.3,71c0,0,7.4,2.8,8.7,11.3c1.4,8.5,10.4,13.5,10.4,13.5"/>
		<path class="st3" d="M55.4,68.2c0,0,0-10,8.5-14.1s10-8.1,10-8.1s7.1,16.2-9,28.9C64.8,74.8,60.6,69.7,55.4,68.2z"/>
		<path class="st3" d="M65.4,75.4c0,0,4.8,5.8,6.1,11.8c0,0,5.8-0.7,8-2.8c2.1-2.1,7-1,7-1S78.5,72.4,65.4,75.4z"/>
	</g>
	<path class="st3" d="M29.8,27.1c0,0,4.4-6.4-1.9-13.2s3.4-12.1,3.4-12.1"/>
	<path class="st3" d="M36.8,23.3c0,0,2.3-4.4-1.3-9.8c-3.6-5.4,3.6-7.8,3.6-7.8"/>
</g>
</svg>
