<?xml version="1.0" encoding="utf-8"?>
<!-- Generator: Adobe Illustrator 22.0.1, SVG Export Plug-In . SVG Version: 6.00 Build 0)  -->
<svg version="1.1" id="Layer_1" xmlns="http://www.w3.org/2000/svg" xmlns:xlink="http://www.w3.org/1999/xlink" x="0px" y="0px"
	 viewBox="0 0 100 100" style="enable-background:new 0 0 100 100;" xml:space="preserve">
<style type="text/css">
	.st0{fill:none;stroke:#1AA8E1;stroke-miterlimit:10;}
	.st1{fill:none;stroke:#1AA8E1;stroke-linecap:round;stroke-linejoin:round;stroke-miterlimit:10;}
	.st2{fill:#1AA8E1;stroke:#1AA8E1;stroke-miterlimit:10;}
	.st3{fill:#FFFFFF;stroke:#1AA8E1;stroke-linecap:round;stroke-linejoin:round;stroke-miterlimit:10;}
	.st4{fill:#8DC63F;stroke:#009444;stroke-linecap:round;stroke-linejoin:round;stroke-miterlimit:10;}
	.st5{fill:#603913;stroke:#532E12;stroke-miterlimit:10;}
	.st6{fill:#603913;stroke:#532E12;stroke-linecap:round;stroke-linejoin:round;stroke-miterlimit:10;}
</style>
<g>
	<path class="st0" d="M11.1,29.1l4.6,56.7c0,0,19.5,1.6,37,0l6.3-56.7C58.9,29.1,36.6,31.9,11.1,29.1z"/>
	<polygon class="st1" points="14.4,10 57.3,10 60.9,19.4 10.4,19.4 	"/>
	<polygon class="st2" points="12.7,50 56.6,50 54.5,68.8 14.3,68.8 	"/>
	<path class="st3" d="M62.2,30.3H8.3c-0.6,0-1.1-0.5-1.1-1.1v-8.4c0-0.6,0.5-1.1,1.1-1.1h53.9c0.6,0,1.1,0.5,1.1,1.1v8.4
		C63.3,29.8,62.8,30.3,62.2,30.3z"/>
	<path class="st4" d="M57.2,54.4c0,0,0.1-12.1,10.3-17.1s12-9.8,12-9.8s8.6,19.6-10.8,35C68.7,62.5,63.6,56.2,57.2,54.4z"/>
	<path class="st4" d="M69.3,63.1c0,0,5.8,7.1,7.4,14.3c0,0,7.1-0.9,9.7-3.4c2.6-2.5,8.5-1.3,8.5-1.3S85.2,59.5,69.3,63.1z"/>
	<g>
		
			<ellipse transform="matrix(0.7749 -0.6321 0.6321 0.7749 -32.3296 54.2084)" class="st5" cx="59.9" cy="72.5" rx="13.3" ry="21.6"/>
		<path class="st6" d="M48.8,57.9c0,0,8.9,3.4,10.6,13.7C61,81.8,71.8,87.9,71.8,87.9"/>
	</g>
</g>
</svg>
