<?xml version="1.0" encoding="utf-8"?>
<!-- Generator: Adobe Illustrator 22.0.1, SVG Export Plug-In . SVG Version: 6.00 Build 0)  -->
<svg version="1.1" id="Layer_1" xmlns="http://www.w3.org/2000/svg" xmlns:xlink="http://www.w3.org/1999/xlink" x="0px" y="0px"
	 viewBox="0 0 100 100" style="enable-background:new 0 0 100 100;" xml:space="preserve">
<style type="text/css">
	.st0{fill:none;stroke:#FFFFFF;stroke-linecap:round;stroke-linejoin:round;stroke-miterlimit:10;}
	.st1{fill:none;stroke:#FFFFFF;stroke-miterlimit:10;}
</style>
<g>
	<path class="st0" d="M69,98.9H31.1c-0.9,0-1.7-0.8-1.7-1.7v-4.9c0-0.9,0.8-1.7,1.7-1.7H69c0.9,0,1.7,0.8,1.7,1.7v4.9
		C70.7,98.1,70,98.9,69,98.9z"/>
	<path class="st0" d="M21.4,65.8L19.8,63l-2.5-6.3c-0.9-5.7-3.8-4-3.8-4S6.5,50.9,16,74.9c0,0,15.8,16.6,16.8,15.7l16.5,0
		c0,0,0.7-15.6-10.2-19c0,0-9.9-4.6-13.5-10.8c0,0-5.7-4.3-4.5,3.8s12,13.2,12,13.2"/>
	<path class="st0" d="M78,65.8l1.6-2.7l2.5-6.3c0.9-5.7,3.8-4,3.8-4s6.9-1.8-2.6,22.2c0,0-15.8,16.6-16.8,15.7l-16.5,0
		c0,0-0.7-15.6,10.2-19c0,0,9.9-4.6,13.5-10.8c0,0,5.7-4.3,4.5,3.8s-12,13.2-12,13.2"/>
	<circle class="st1" cx="49.7" cy="31.9" r="30.9"/>
	<path class="st1" d="M54.7,1.4c0,0-2,11.7,1.2,13.8s-5.6,3.1-5.6,3.1s-7.3-3.7-10.1,0C37.3,22.1,29,30,29,30s2.9,11,4.6,10.9
		c1.7-0.1,6.7,1.6,6.6,3c-0.1,1.5,4,10.4,4,10.4s5.9,1,5.5,2.7c-0.3,1.7,7.8-5.8,7.8-5.8s1.9-14.6,2.9-15.7s2.3-3.7,0-5
		c-2.3-1.2-2.9-4.4-2.9-4.4l3.1-2.1c0,0,7,3.7,6.4,5.2S79.6,24,79.6,24S75,4.5,54.7,1.4z"/>
</g>
</svg>
