<?xml version="1.0" encoding="utf-8"?>
<!-- Generator: Adobe Illustrator 22.0.1, SVG Export Plug-In . SVG Version: 6.00 Build 0)  -->
<svg version="1.1" id="Layer_1" xmlns="http://www.w3.org/2000/svg" xmlns:xlink="http://www.w3.org/1999/xlink" x="0px" y="0px"
	 viewBox="0 0 100 100" style="enable-background:new 0 0 100 100;" xml:space="preserve">
<style type="text/css">
	.st0{fill:none;stroke:#FFFFFF;stroke-width:2;stroke-linecap:round;stroke-linejoin:round;stroke-miterlimit:10;}
	.st1{fill:none;stroke:#FFFFFF;stroke-width:2;stroke-miterlimit:10;}
</style>
<g>
	<path class="st0" d="M69,95.8H31.1c-0.9,0-1.7-0.8-1.7-1.6v-4.7c0-0.9,0.8-1.6,1.7-1.6H69c0.9,0,1.7,0.8,1.7,1.6v4.7
		C70.7,95,70,95.8,69,95.8z"/>
	<path class="st0" d="M21.4,64.1l-1.6-2.7l-2.5-6c-0.9-5.5-3.8-3.8-3.8-3.8s-7-1.7,2.5,21.3c0,0,15.8,15.9,16.8,15h16.5
		c0,0,0.7-14.9-10.2-18.2c0,0-9.9-4.4-13.5-10.3c0,0-5.7-4.1-4.5,3.6s12,12.6,12,12.6"/>
	<path class="st0" d="M78,64.1l1.6-2.6l2.5-6c0.9-5.5,3.8-3.8,3.8-3.8S92.8,50,83.3,73c0,0-15.8,15.9-16.8,15H50
		c0,0-0.7-14.9,10.2-18.2c0,0,9.9-4.4,13.5-10.3c0,0,5.7-4.1,4.5,3.6s-12,12.6-12,12.6"/>
	<ellipse class="st1" cx="49.7" cy="31.6" rx="30.9" ry="29.6"/>
	<path class="st1" d="M54.7,2.4c0,0-2,11.2,1.2,13.2s-5.6,3-5.6,3s-7.3-3.5-10.1,0C37.3,22.2,29,29.8,29,29.8s2.9,10.5,4.6,10.4
		c1.7-0.1,6.7,1.5,6.6,2.9c-0.1,1.4,4,10,4,10s5.9,1,5.5,2.6c-0.3,1.6,7.8-5.6,7.8-5.6s1.9-14,2.9-15c1-1.1,2.3-3.5,0-4.8
		c-2.3-1.1-2.9-4.2-2.9-4.2l3.1-2c0,0,7,3.5,6.4,5s12.6-5,12.6-5S75,5.4,54.7,2.4z"/>
</g>
</svg>
