<?xml version="1.0" encoding="utf-8"?>
<!-- Generator: Adobe Illustrator 22.0.1, SVG Export Plug-In . SVG Version: 6.00 Build 0)  -->
<svg version="1.1" id="Layer_1" xmlns="http://www.w3.org/2000/svg" xmlns:xlink="http://www.w3.org/1999/xlink" x="0px" y="0px"
	 viewBox="0 0 100 100" style="enable-background:new 0 0 100 100;" xml:space="preserve">
<style type="text/css">
	.st0{fill:#F05127;stroke:#FFFFFF;stroke-linecap:round;stroke-linejoin:round;stroke-miterlimit:10;}
	.st1{fill:none;stroke:#FFFFFF;stroke-miterlimit:10;}
	.st2{fill:#F05127;stroke:#FFFFFF;stroke-miterlimit:10;}
</style>
<g>
	<path class="st0" d="M19.2,18.1H9.7c-0.3,0-0.6-0.3-0.6-0.6v-1.7c0-0.3,0.3-0.6,0.6-0.6h9.5c0.3,0,0.6,0.3,0.6,0.6v1.7
		C19.8,17.9,19.5,18.1,19.2,18.1z"/>
	<path class="st0" d="M19.2,25.1H9.7c-0.3,0-0.6-0.3-0.6-0.6v-1.7c0-0.3,0.3-0.6,0.6-0.6h9.5c0.3,0,0.6,0.3,0.6,0.6v1.7
		C19.8,24.9,19.5,25.1,19.2,25.1z"/>
	<path class="st0" d="M19.2,32.2H9.7c-0.3,0-0.6-0.3-0.6-0.6v-1.7c0-0.3,0.3-0.6,0.6-0.6h9.5c0.3,0,0.6,0.3,0.6,0.6v1.7
		C19.8,31.9,19.5,32.2,19.2,32.2z"/>
	<ellipse class="st0" cx="54.3" cy="83.7" rx="29.2" ry="3.1"/>
	<path class="st1" d="M24.4,11.3C11.5,11.3,1,16.8,1,23.7C1,30.5,11.5,36,24.4,36c3.6,0,7-0.4,10.1-1.2V12.5
		C31.4,11.7,28,11.3,24.4,11.3z"/>
	<ellipse class="st1" cx="33.4" cy="65.1" rx="15.3" ry="8.2"/>
	<ellipse class="st2" cx="68.1" cy="62.3" rx="20.4" ry="14.1"/>
	<circle class="st1" cx="44.9" cy="61.6" r="14.8"/>
	<ellipse class="st2" cx="67.7" cy="65.1" rx="14.3" ry="12.1"/>
	<circle class="st1" cx="45" cy="61.5" r="8.4"/>
	<path class="st0" d="M98.1,67.6H9.9c-0.4,0-0.8-0.4-0.8-0.8v-2.3c0-0.4,0.4-0.8,0.8-0.8h88.2c0.4,0,0.8,0.4,0.8,0.8v2.3
		C98.9,67.2,98.5,67.6,98.1,67.6z"/>
	<polygon class="st0" points="12.9,67.6 25.9,82.1 82,82.1 95.2,67.6 	"/>
	<path class="st0" d="M27.3,34.3h-2c-0.4,0-0.7-0.3-0.7-0.7V13.9c0-0.4,0.3-0.7,0.7-0.7h2c0.4,0,0.7,0.3,0.7,0.7v19.7
		C28,33.9,27.7,34.3,27.3,34.3z"/>
	<path class="st0" d="M20.8,63.7h-2c-0.4,0-0.7-0.3-0.7-0.7V13.7c0-0.4,0.3-0.7,0.7-0.7h2c0.4,0,0.7,0.3,0.7,0.7V63
		C21.5,63.4,21.2,63.7,20.8,63.7z"/>
	<path class="st0" d="M93.8,20.9H48.6c-0.4,0-0.7,0.1-1,0.2c-1.5-3.4-5.5-5.9-10.3-5.9c-1,0-1.9,0.1-2.8,0.3v17.1
		c0.9,0.2,1.9,0.3,2.8,0.3c4.9,0,9-2.6,10.4-6.2c0.3,0.1,0.6,0.2,0.9,0.2h45.2c1.6,0,3-1.3,3-3C96.8,22.2,95.4,20.9,93.8,20.9z"/>
	<path class="st0" d="M37.6,22.2h-5.1c-0.5,0-0.8-0.4-0.8-0.8V19c0-0.5,0.4-0.8,0.8-0.8h5.1c0.5,0,0.8,0.4,0.8,0.8v2.3
		C38.5,21.8,38.1,22.2,37.6,22.2z"/>
	<path class="st0" d="M37.6,29.2h-5.1c-0.5,0-0.8-0.4-0.8-0.8V26c0-0.5,0.4-0.8,0.8-0.8h5.1c0.5,0,0.8,0.4,0.8,0.8v2.3
		C38.5,28.8,38.1,29.2,37.6,29.2z"/>
	<path class="st0" d="M32.8,13.3c-0.9,0-1.7,0.8-1.7,1.7v17.7c0,0.9,0.8,1.7,1.7,1.7c0.9,0,1.7-0.8,1.7-1.7V15
		C34.5,14.1,33.7,13.3,32.8,13.3z"/>
</g>
</svg>
