<?xml version="1.0" encoding="utf-8"?>
<!-- Generator: Adobe Illustrator 22.0.1, SVG Export Plug-In . SVG Version: 6.00 Build 0)  -->
<svg version="1.1" id="Layer_1" xmlns="http://www.w3.org/2000/svg" xmlns:xlink="http://www.w3.org/1999/xlink" x="0px" y="0px"
	 viewBox="0 0 100 100" style="enable-background:new 0 0 100 100;" xml:space="preserve">
<style type="text/css">
	.st0{fill:#FFFFFF;stroke:#FFFFFF;stroke-width:2;stroke-linecap:round;stroke-linejoin:round;stroke-miterlimit:10;}
	.st1{fill:#F05027;stroke:#FFFFFF;stroke-width:2;stroke-linecap:round;stroke-linejoin:round;stroke-miterlimit:10;}
	.st2{fill:#FFFFFF;stroke:#FFFFFF;stroke-miterlimit:10;}
</style>
<g id="Layer_2_1_">
	<g>
		<path class="st0" d="M93.5,44.9L93.5,44.9h4.4c-0.3-12-5.1-22.8-12.5-30.5l-2.9,3.4C89,24.7,93.2,34.3,93.5,44.9z"/>
		<path class="st1" d="M82.7,19.3L57.6,44.4H93v-0.1C93.1,34.6,89.1,25.7,82.7,19.3z"/>
	</g>
	<g>
		<path class="st0" d="M8.2,49.9c0-9.7,3.9-18.5,10.3-24.9l-3-3C8.3,29.1,3.8,39,3.8,50L8.2,49.9C8.2,49.9,8.2,49.9,8.2,49.9z"/>
		<path class="st0" d="M68.7,24.9l3-3c-7.2-7.2-17.1-11.6-28.1-11.6v4.3C53.4,14.5,62.3,18.4,68.7,24.9z"/>
		<path class="st0" d="M43.6,14.5v-4.3c-11,0-21,4.5-28.2,11.7l3,3C24.9,18.5,33.8,14.5,43.6,14.5z"/>
		<path class="st0" d="M43.6,85.3v4.5c11,0,20.9-4.4,28.1-11.6L68.5,75C62.1,81.4,53.3,85.3,43.6,85.3z"/>
		<path class="st0" d="M79,50c0,9.8-4,18.6-10.5,25l3.1,3.1C78.9,70.9,83.4,61,83.4,50l0,0H79z"/>
		<path class="st0" d="M8.2,50H3.8c0,11,4.5,20.9,11.6,28.1l3.1-3.1C12.2,68.6,8.2,59.7,8.2,50z"/>
		<path class="st0" d="M18.6,75l-3.1,3.1c7.2,7.2,17.1,11.6,28.1,11.6v-4.5C33.9,85.3,25,81.3,18.6,75z"/>
		<path class="st1" d="M43.6,50V14.5c-9.8,0-18.7,4-25.1,10.5L43.6,50L43.6,50z"/>
		<path class="st1" d="M43.6,50l25.1-25.1c-6.4-6.4-15.3-10.4-25.1-10.4V50L43.6,50z"/>
		<path class="st1" d="M18.5,24.9c-6.4,6.4-10.3,15.2-10.3,25V50h35.3L18.5,24.9z"/>
		<path class="st1" d="M43.6,50L43.6,50L43.6,50z"/>
		<polygon class="st1" points="43.5,50 43.6,50 43.6,50 43.6,50 		"/>
		<polygon class="st1" points="43.6,50.1 43.6,50 43.6,50 		"/>
		<path class="st1" d="M43.6,50L43.6,50l24.9,25C75,68.6,79,59.8,79,50H43.6L43.6,50z"/>
		<path class="st1" d="M43.5,50H8.2c0,9.8,4,18.6,10.4,25L43.5,50L43.5,50z"/>
		<path class="st1" d="M43.6,85.3c9.7,0,18.5-3.9,24.9-10.3L43.6,50.1V85.3z"/>
		<path class="st1" d="M43.6,50l-25,25c6.4,6.4,15.2,10.3,25,10.3V50L43.6,50z"/>
	</g>
	<circle class="st2" cx="25.1" cy="42.4" r="4.4"/>
	<circle class="st2" cx="50.8" cy="67.7" r="4.4"/>
	<circle class="st2" cx="81.4" cy="32.7" r="4.4"/>
	<circle class="st2" cx="32.5" cy="24.1" r="2.9"/>
	<circle class="st2" cx="71.7" cy="38.8" r="2.9"/>
	<circle class="st2" cx="28.5" cy="75" r="2.9"/>
	<circle class="st2" cx="38.3" cy="68.5" r="2.9"/>
	<circle class="st2" cx="20.7" cy="58.5" r="2.9"/>
	<circle class="st2" cx="59.7" cy="55.8" r="2.9"/>
	<circle class="st2" cx="52.1" cy="25.9" r="2.9"/>
	<circle class="st2" cx="19.7" cy="32.9" r="1"/>
	<circle class="st2" cx="49.8" cy="77.1" r="1"/>
	<circle class="st2" cx="70.6" cy="58.5" r="1"/>
	<circle class="st2" cx="50.8" cy="34.2" r="1"/>
	<circle class="st2" cx="36.7" cy="35.3" r="1"/>
	<circle class="st2" cx="29.5" cy="55.6" r="1"/>
</g>
</svg>
