<?xml version="1.0" encoding="utf-8"?>
<!-- Generator: Adobe Illustrator 22.0.1, SVG Export Plug-In . SVG Version: 6.00 Build 0)  -->
<svg version="1.1" id="Layer_3" xmlns="http://www.w3.org/2000/svg" xmlns:xlink="http://www.w3.org/1999/xlink" x="0px" y="0px"
	 viewBox="0 0 100 100" style="enable-background:new 0 0 100 100;" xml:space="preserve">
<style type="text/css">
	.st0{fill:none;stroke:#FFFFFF;stroke-width:2;stroke-linecap:round;stroke-linejoin:round;stroke-miterlimit:10;}
	.st1{fill:#FFFFFF;stroke:#FFFFFF;stroke-width:2;stroke-linecap:round;stroke-linejoin:round;stroke-miterlimit:10;}
</style>
<path class="st0" d="M79.3,69.9c-5.2-6.4-3-12.7-2.4-14.2c0.1-0.2,0.3-0.3,0.3-0.5c0.8-4.9,17-19.7,4.9-40.9
	c-13.1-23-48.9-7.8-48.9-7.8C30.8,7.1,17,23,20.8,32.9c1.8,4.7,1.6,8.6,1.4,10.4c-0.1,0.6-0.5,1.2-1,1.4c-14.4,6-7.1,9.5-3.7,10.6
	c0.8,0.3,2.7-0.3,1.1,2c-1,1.5-0.6,4.6,0.4,6.1c1.4,2.2,1.5,5.9,1.5,6.4c0,0,0,0.1,0,0.1c-1.4,7.5,11.2,7.3,18,5
	c5.7-2,7.5,1.9,7.9,3.2c0.1,0.2,0.1,0.5,0.1,0.7c-0.3,2.8-2.3,21.2-1.6,18.1c0.6-2.7,31.5-12.7,41.3-15.8c1.2-0.4,1.6-2.1,0.6-3
	C85.3,76.8,83.4,75,79.3,69.9z"/>
<path class="st0" d="M20.1,66.9c0,0,7.8,1.7,14.2-6.3"/>
<ellipse class="st1" cx="30.6" cy="37" rx="2.7" ry="2.6"/>
<g>
	<ellipse class="st0" cx="58.2" cy="27.7" rx="22.2" ry="21.8"/>
	<path class="st0" d="M52.1,6.7c0,0,0.8,9-3.5,11.2s0,8.8,0,8.8s9.1-0.7,9.5,2.9c0.4,3.7,2.6,7.3,2.6,7.3s9.9-2.2,10.1-9.3
		s2-10.4,2.6-6.9s5.4,1.1,5.4,1.1S75.9,3.2,52.1,6.7z"/>
	<path class="st0" d="M54.3,49.1c0,0-2.4-8.9-9.5-11c-7.1-2.1,1.5-5.7,1.6-4.8c0.1,0.9,5.5,4.4,7,3.7s7.1,3.5,6,5.1s4.5,3.8,6.7,1.1
		c2.2-2.7,7.9,0,6.4,1.2C70.8,45.5,63.6,50.7,54.3,49.1z"/>
</g>
</svg>
