<?xml version="1.0" encoding="utf-8"?>
<!-- Generator: Adobe Illustrator 22.1.0, SVG Export Plug-In . SVG Version: 6.00 Build 0)  -->
<svg version="1.1" id="Layer_1" xmlns="http://www.w3.org/2000/svg" xmlns:xlink="http://www.w3.org/1999/xlink" x="0px" y="0px"
	 viewBox="0 0 60 60" style="enable-background:new 0 0 60 60;" xml:space="preserve">
<style type="text/css">
	.st0{fill:none;stroke:#000000;stroke-linejoin:round;stroke-miterlimit:10;}
	.st1{fill:#EF3840;stroke:#E72D3A;stroke-linecap:round;stroke-linejoin:round;stroke-miterlimit:10;}
	.st2{fill:#6C6365;stroke:#575050;stroke-linecap:round;stroke-linejoin:round;stroke-miterlimit:10;}
	.st3{fill:#FEE100;stroke:#F6C912;stroke-width:0.5;stroke-linecap:round;stroke-linejoin:round;stroke-miterlimit:10;}
</style>
<polygon class="st0" points="91,127.9 125.2,127.9 125.2,89.1 115,89.1 111.7,80.6 117.8,78 112.2,73.5 114.6,72.6 109.6,68.2 
	111.4,66.9 103.4,59.5 102.3,70.6 103.9,70 103,76.8 105.4,76.1 103.7,83.7 109.9,81.4 112.9,89.1 96,89.1 83.5,94.6 105.3,102.8 
	78.3,111.7 111.2,119.1 "/>
<rect x="15.5" y="19.1" transform="matrix(0.9999 1.013873e-02 -1.013873e-02 0.9999 0.3433 -0.3032)" class="st1" width="29.1" height="29.1"/>
<polygon class="st2" points="30.3,0.6 40.1,12.4 49.9,24.3 30,24.1 10.2,23.9 20.2,12.2 "/>
<path class="st3" d="M22.4,59.2l1.5-1.5c0,0-2.3-2.7-0.3-9.2c0,0,1.6-4.4,1.2-8.4h1.6l-2.8-3.7l-3.1,3.7h1.9c0,0,0.7,4.3-1.1,8.4
	C21.2,48.6,18.7,56.8,22.4,59.2z"/>
<path class="st3" d="M29.3,59.3l1.5-1.5c0,0-2.3-2.7-0.3-9.2c0,0,1.6-4.4,1.2-8.4h1.6l-2.8-3.7l-3.1,3.7h1.9c0,0,0.7,4.3-1.1,8.4
	C28.1,48.6,25.6,56.8,29.3,59.3z"/>
<path class="st3" d="M36.3,59.4l1.5-1.5c0,0-2.3-2.7-0.3-9.2c0,0,1.6-4.4,1.2-8.4h1.6l-2.8-3.7l-3.1,3.7h1.9c0,0,0.7,4.3-1.1,8.4
	C35.1,48.7,32.5,56.9,36.3,59.4z"/>
</svg>
