<?xml version="1.0" encoding="utf-8"?>
<!-- Generator: Adobe Illustrator 22.1.0, SVG Export Plug-In . SVG Version: 6.00 Build 0)  -->
<svg version="1.1" id="Layer_1" xmlns="http://www.w3.org/2000/svg" xmlns:xlink="http://www.w3.org/1999/xlink" x="0px" y="0px"
	 viewBox="0 0 100 100" style="enable-background:new 0 0 100 100;" xml:space="preserve">
<style type="text/css">
	.st0{fill:none;stroke:#FFFFFF;stroke-width:2;stroke-linecap:round;stroke-linejoin:round;stroke-miterlimit:10;}
	.st1{fill:#FFFFFF;}
</style>
<polyline class="st0" points="4.7,75.6 22.3,75.6 22.3,40.5 12.2,40.5 50.7,1.9 89.5,40.6 78.4,40.6 78.4,75.6 95.1,75.6 "/>
<path class="st1" d="M37.7,99.4l2.7-2.7c0,0-4.2-4.8-0.6-16.5c0,0,2.9-7.9,2.2-15.2h2.8l-5.1-6.6l-5.6,6.6h3.4c0,0,1.4,7.8-2,15.2
	C35.5,80.2,31,95,37.7,99.4z"/>
<path class="st1" d="M49,99.5l2.7-2.7c0,0-4.2-4.8-0.6-16.5c0,0,2.9-7.9,2.2-15.2H56l-5.1-6.6l-5.6,6.6h3.4c0,0,1.4,7.8-2,15.2
	C46.8,80.3,42.2,95,49,99.5z"/>
<path class="st1" d="M60.3,99.5l2.7-2.7c0,0-4.2-4.8-0.6-16.5c0,0,2.9-7.9,2.2-15.2h2.8l-5.1-6.6l-5.6,6.6h3.4c0,0,1.4,7.8-2,15.2
	C58.1,80.3,53.5,95,60.3,99.5z"/>
</svg>
