<?xml version="1.0" encoding="utf-8"?>
<!-- Generator: Adobe Illustrator 22.0.1, SVG Export Plug-In . SVG Version: 6.00 Build 0)  -->
<svg version="1.1" id="Layer_1" xmlns="http://www.w3.org/2000/svg" xmlns:xlink="http://www.w3.org/1999/xlink" x="0px" y="0px"
	 viewBox="0 0 100 100" style="enable-background:new 0 0 100 100;" xml:space="preserve">
<style type="text/css">
	.st0{fill:#FCC821;stroke:#F7BC1E;stroke-miterlimit:10;}
	.st1{fill:#152D53;stroke:#FBB03B;stroke-miterlimit:10;}
</style>
<circle class="st0" cx="50.2" cy="50.3" r="48.4"/>
<circle class="st1" cx="32.7" cy="35.3" r="7"/>
<circle class="st1" cx="65.6" cy="35.3" r="7"/>
<g>
	<path class="st1" d="M50.2,68.6c-12.3,0-22.9-6.3-27.7-15.5c-0.7-1.3-2.7-0.8-2.7,0.6c0,0,0,0,0,0.1c0,14.5,13.6,26.3,30.4,26.3
		c16.8,0,30.4-11.8,30.4-26.3c0,0,0,0,0-0.1c0-1.5-2-2-2.7-0.6C73.1,62.3,62.5,68.6,50.2,68.6z"/>
</g>
</svg>
