<?xml version="1.0" encoding="utf-8"?>
<!-- Generator: Adobe Illustrator 22.0.1, SVG Export Plug-In . SVG Version: 6.00 Build 0)  -->
<svg version="1.1" id="Layer_1" xmlns="http://www.w3.org/2000/svg" xmlns:xlink="http://www.w3.org/1999/xlink" x="0px" y="0px"
	 viewBox="0 0 100 100" style="enable-background:new 0 0 100 100;" xml:space="preserve">
<style type="text/css">
	.st0{fill:none;stroke:#84D3D9;stroke-width:2;stroke-miterlimit:10;}
	.st1{fill:none;stroke:#65C8D0;stroke-miterlimit:10;}
	.st2{fill:#FF0000;}
	.st3{fill:#FF0000;stroke:#FF0000;stroke-width:4;stroke-linecap:round;stroke-linejoin:round;stroke-miterlimit:10;}
</style>
<g>
	<path class="st0" d="M58.8,58.8v-48c0-5.1-4.2-9.3-9.3-9.3c-5.1,0-9.3,4.2-9.3,9.3v48c-6.9,3.4-11.7,10.5-11.7,18.8
		c0,11.6,9.4,21,21,21s21-9.4,21-21C70.5,69.3,65.7,62.2,58.8,58.8z"/>
	<g>
		<path class="st1" d="M68,18h-5.2c-0.1,0-0.1-0.1-0.1-0.1v-0.7c0-0.1,0.1-0.1,0.1-0.1H68c0.1,0,0.1,0.1,0.1,0.1v0.7
			C68.1,18,68.1,18,68,18z"/>
		<path class="st1" d="M68,28.8h-5.2c-0.1,0-0.1-0.1-0.1-0.1V28c0-0.1,0.1-0.1,0.1-0.1H68c0.1,0,0.1,0.1,0.1,0.1L68,28.8
			C68.1,28.8,68.1,28.8,68,28.8z"/>
		<path class="st1" d="M68,50.4h-5.2c-0.1,0-0.1-0.1-0.1-0.1v-0.7c0-0.1,0.1-0.1,0.1-0.1H68c0.1,0,0.1,0.1,0.1,0.1L68,50.4
			C68.1,50.4,68.1,50.4,68,50.4z"/>
		<path class="st1" d="M68,39.6h-5.2c-0.1,0-0.1-0.1-0.1-0.1v-0.7c0-0.1,0.1-0.1,0.1-0.1H68c0.1,0,0.1,0.1,0.1,0.1L68,39.6
			C68.1,39.6,68.1,39.6,68,39.6z"/>
	</g>
	<circle class="st2" cx="49.5" cy="77.1" r="15.4"/>
	<line class="st3" x1="49.5" y1="11.9" x2="49.5" y2="77.8"/>
</g>
</svg>
