<?xml version="1.0" encoding="utf-8"?>
<!-- Generator: Adobe Illustrator 22.1.0, SVG Export Plug-In . SVG Version: 6.00 Build 0)  -->
<svg version="1.1" id="Layer_1" xmlns="http://www.w3.org/2000/svg" xmlns:xlink="http://www.w3.org/1999/xlink" x="0px" y="0px"
	 viewBox="0 0 60 60" style="enable-background:new 0 0 60 60;" xml:space="preserve">
<style type="text/css">
	.st0{fill:#1B75BC;stroke:#0C6CAB;stroke-miterlimit:10;}
	.st1{fill:#FFEC5F;stroke:#F7DF4D;stroke-miterlimit:10;}
</style>
<path class="st0" d="M21.4,3.2c0,0-10.3,12.9-13.4,20.7c0,0-8.2,15.3-0.8,25.3c0,0,3.5,5.5,10.7,7.4c0,0,7.6,1.7,12.6-2.1
	c0,0,4.7-3.6,6.5-7.5c0,0,2.7-4.8,2-11.4c0,0-1-6.9-4.2-12.9C34.7,22.6,27.5,8.9,21.4,3.2z"/>
<polygon class="st1" points="50.7,3 43,27.3 56.3,27.3 34.8,57.1 42.6,32.9 29,32.9 "/>
</svg>
