<?xml version="1.0" encoding="utf-8"?>
<!-- Generator: Adobe Illustrator 22.0.1, SVG Export Plug-In . SVG Version: 6.00 Build 0)  -->
<svg version="1.1" id="Layer_1" xmlns="http://www.w3.org/2000/svg" xmlns:xlink="http://www.w3.org/1999/xlink" x="0px" y="0px"
	 viewBox="0 0 100 100" style="enable-background:new 0 0 100 100;" xml:space="preserve">
<style type="text/css">
	.st0{fill:none;stroke:#FFFFFF;stroke-linecap:round;stroke-linejoin:round;stroke-miterlimit:10;}
</style>
<g>
	<path class="st0" d="M90.4,42.1h-5.2c-0.8-3.7-2.2-7.1-4.1-10.3l5.1-5.1c3.1-3.1,3.1-8.1,0-11.2s-8.1-3.1-11.2,0l-4.7,4.7
		c-3.9-2.6-8.3-4.5-13-5.5v-5c0-4.3-3.6-7.9-7.9-7.9c-4.3,0-7.9,3.6-7.9,7.9V15c-3.9,1-7.6,2.6-11,4.7l-4.2-4.2
		c-3.1-3.1-8.1-3.1-11.2,0s-3.1,8.1,0,11.2l4.3,4.3c-2.1,3.4-3.7,7.1-4.5,11.1H9.6c-4.3,0-7.9,3.6-7.9,7.9c0,4.3,3.6,7.9,7.9,7.9
		h5.3c0.9,4,2.5,7.7,4.5,11.1l-4.3,4.3c-3.1,3.1-3.1,8.1,0,11.2c3.1,3.1,8.1,3.1,11.2,0l4.2-4.2c3.3,2.1,7,3.7,11,4.7v5.4
		c0,4.3,3.6,7.9,7.9,7.9c4.3,0,7.9-3.6,7.9-7.9v-5c4.2-0.9,8.2-2.5,11.7-4.7l3.9,3.9c3.1,3.1,8.1,3.1,11.2,0c3.1-3.1,3.1-8.1,0-11.2
		l-3.8-3.8c2.3-3.5,3.9-7.4,4.9-11.6h5.2c4.3,0,7.9-3.6,7.9-7.9C98.3,45.7,94.7,42.1,90.4,42.1z"/>
	<ellipse class="st0" cx="50" cy="51" rx="27" ry="26.1"/>
</g>
</svg>
