<?xml version="1.0" encoding="utf-8"?>
<!-- Generator: Adobe Illustrator 22.0.1, SVG Export Plug-In . SVG Version: 6.00 Build 0)  -->
<svg version="1.1" id="Layer_1" xmlns="http://www.w3.org/2000/svg" xmlns:xlink="http://www.w3.org/1999/xlink" x="0px" y="0px"
	 viewBox="0 0 100 100" style="enable-background:new 0 0 100 100;" xml:space="preserve">
<style type="text/css">
	.st0{fill:#F05328;stroke:#FFFFFF;stroke-width:2;stroke-linecap:round;stroke-linejoin:round;stroke-miterlimit:10;}
	.st1{fill:#F05328;stroke:#FFFFFF;stroke-width:2;stroke-miterlimit:10;}
	.st2{fill:#FFFFFF;}
</style>
<g>
	<path class="st0" d="M55.9,6.3c0,0,3.4-2.2,5-1.7"/>
	<path class="st0" d="M50.2,7.1c0,0-2.4-3.4-3.6-3.3"/>
	<path class="st0" d="M53.9,5.5c0,0,0.8-4.2,2.1-3.8"/>
	<ellipse transform="matrix(0.3506 -0.9365 0.9365 0.3506 -16.1939 72.7229)" class="st1" cx="44.3" cy="48" rx="43.7" ry="28.6"/>
	<circle class="st2" cx="62.5" cy="74.7" r="22.2"/>
	<circle class="st1" cx="62.6" cy="75.5" r="22.8"/>
	<circle class="st2" cx="62.6" cy="75.8" r="5.3"/>
	<path class="st2" d="M53.5,79.3L53.5,79.3c0.1,0-3.8-0.9-4,1.7h-0.1c0,0,0.1,0,0.1,0.1v0.1h0.1c2.4,1.6,4-2,4-2L53.5,79.3z"/>
	<path class="st2" d="M55.5,82.6L55.5,82.6c0.1-0.1-4,0.5-3,3l-0.1,0.1h0.1v0.1l0.1-0.1C55.3,86.5,55.6,82.6,55.5,82.6L55.5,82.6z"
		/>
	<path class="st2" d="M58.8,85v-0.1c0,0-3.3,2.4-1.3,4.2v0.1h0.1l0.1,0.1v-0.1C60.5,88.5,58.8,85,58.8,85L58.8,85z"/>
	<path class="st2" d="M62.6,86.1v-0.1c0,0-2.6,3.2-0.3,4.4v0.1c0,0,0.1,0,0.1-0.1c0,0,0.1,0,0.1,0.1v-0.1c2.5-1.3,0-4.4,0-4.4
		L62.6,86.1z"/>
	<path class="st2" d="M66.7,85.1V85c0,0-1.1,4,1.7,4.1v0.1c0,0,0-0.1,0.1-0.1h0.1V89c1.6-2.2-1.9-4-1.9-4L66.7,85.1z"/>
	<path class="st2" d="M70,82.8L70,82.8c-0.1-0.1,0.5,4,3,3l0.1,0.1v-0.1h0.1l-0.1-0.1C73.9,82.9,69.9,82.8,70,82.8L70,82.8z"/>
	<path class="st2" d="M72.3,79.6h-0.1c0,0,2.2,3.4,4.1,1.6h0.1V81c0,0,0.1,0,0.1-0.1h-0.1c-0.5-2.8-4.2-1.3-4.2-1.3H72.3z"/>
	<path class="st2" d="M73.1,75.9h-0.1c0,0,3.2,2.5,4.4,0.1h0.1c0,0,0-0.1-0.1-0.1c0,0,0-0.1,0.1-0.1h-0.1c-1.5-2.4-4.4,0.1-4.4,0.1
		H73.1z"/>
	<path class="st2" d="M72.3,71.8h-0.1c0,0,3.8,1.3,4.2-1.3h0.1c0,0-0.1,0-0.1-0.1v-0.1h-0.1c-2.1-1.9-4.1,1.6-4.1,1.6L72.3,71.8z"/>
	<path class="st2" d="M70,68.9L70,68.9c-0.1,0.1,4-0.3,3.2-2.9l0.1-0.1h-0.1v-0.1l-0.1,0.1C70.3,65,69.9,68.9,70,68.9L70,68.9z"/>
	<path class="st2" d="M66.7,66.4L66.7,66.4c0,0.1,3.7-1.6,2.1-3.7v-0.1h-0.1c0,0,0-0.1-0.1-0.1v0.1c-2.8,0.1-2,4-2,4L66.7,66.4z"/>
	<path class="st2" d="M62.9,65.6v0.1c0,0,2.6-3.2,0.4-4.4v-0.1h-0.1c0,0-0.1,0-0.1-0.1v0.1C60.5,62.5,62.9,65.6,62.9,65.6L62.9,65.6
		z"/>
	<path class="st2" d="M59.3,66.2v0.1c0,0,1.2-4-1.6-4.1v-0.1c0,0,0,0.1-0.1,0.1h-0.1v0.1c-1.7,2.2,1.7,4.1,1.7,4.1L59.3,66.2z"/>
	<path class="st2" d="M56,68.6L56,68.6c0.1,0.1-0.1-4-2.8-3.3l-0.1-0.1v0.1H53l0.1,0.1C52.2,68.2,56,68.7,56,68.6L56,68.6z"/>
	<path class="st2" d="M53.8,71.8L53.8,71.8c0.1,0.1-1.5-3.7-3.7-2.2h-0.1v0.1c0,0-0.1,0-0.1,0.1l0.1,0.1c0.1,2.8,3.8,2.1,3.8,2.1
		V71.8z"/>
	<path class="st2" d="M52.7,75.8h0.1c0,0-2.9-2.9-4.4-0.5h-0.1v0.1c0,0,0,0.1-0.1,0.1h0.1c1.2,2.5,4.4,0.4,4.4,0.4V75.8z"/>
</g>
</svg>
