<?xml version="1.0" encoding="utf-8"?>
<!-- Generator: Adobe Illustrator 22.0.1, SVG Export Plug-In . SVG Version: 6.00 Build 0)  -->
<svg version="1.1" id="Layer_1" xmlns="http://www.w3.org/2000/svg" xmlns:xlink="http://www.w3.org/1999/xlink" x="0px" y="0px"
	 viewBox="0 0 61.3 77.9" style="enable-background:new 0 0 61.3 77.9;" xml:space="preserve">
<style type="text/css">
	.st0{fill:#F05127;stroke:#FFFFFF;stroke-linecap:round;stroke-linejoin:round;stroke-miterlimit:10;}
	.st1{fill:#F05127;stroke:#FFFFFF;stroke-miterlimit:10;}
	.st2{fill:#FFFFFF;}
</style>
<g>
	<path class="st0" d="M36,6.2c0,0,2.6-1.7,3.8-1.3"/>
	<path class="st0" d="M31.7,6.8c0,0-1.8-2.6-2.7-2.5"/>
	<path class="st0" d="M34.5,5.6c0,0,0.6-3.2,1.6-2.9"/>
	<ellipse transform="matrix(0.3506 -0.9365 0.9365 0.3506 -17.5913 50.1036)" class="st1" cx="27.3" cy="37.7" rx="33" ry="21.6"/>
	<circle class="st2" cx="41" cy="57.9" r="16.8"/>
	<circle class="st1" cx="41.1" cy="58.5" r="17.2"/>
	<circle class="st2" cx="41.1" cy="58.7" r="4"/>
	<path class="st2" d="M34.2,61.4L34.2,61.4c0.1,0-2.9-0.7-3,1.3l-0.1,0c0,0,0.1,0,0.1,0.1c0,0,0,0.1,0,0.1l0.1,0
		c1.8,1.2,3-1.5,3-1.5L34.2,61.4z"/>
	<path class="st2" d="M35.7,63.9L35.7,63.9c0.1-0.1-3,0.4-2.3,2.3l-0.1,0.1c0,0,0.1,0,0.1,0c0,0,0,0.1,0,0.1l0.1-0.1
		C35.6,66.8,35.8,63.9,35.7,63.9L35.7,63.9z"/>
	<path class="st2" d="M38.2,65.7l0-0.1c0,0-2.5,1.8-1,3.2l0,0.1c0,0,0.1,0,0.1,0c0,0,0.1,0.1,0.1,0.1l0-0.1c2.1-0.6,0.8-3.2,0.8-3.2
		L38.2,65.7z"/>
	<path class="st2" d="M41.1,66.5l0-0.1c0,0-2,2.4-0.2,3.3l0,0.1c0,0,0.1,0,0.1-0.1c0,0,0.1,0,0.1,0.1l0-0.1c1.9-1,0-3.3,0-3.3
		L41.1,66.5z"/>
	<path class="st2" d="M44.2,65.8l0-0.1c0,0-0.8,3,1.3,3.1l0,0.1c0,0,0-0.1,0.1-0.1c0,0,0.1,0,0.1,0l0-0.1c1.2-1.7-1.4-3-1.4-3
		L44.2,65.8z"/>
	<path class="st2" d="M46.7,64L46.7,64c-0.1-0.1,0.4,3,2.3,2.3l0.1,0.1c0,0,0-0.1,0-0.1c0,0,0.1,0,0.1,0l-0.1-0.1
		C49.6,64.1,46.6,64,46.7,64L46.7,64z"/>
	<path class="st2" d="M48.4,61.6l-0.1,0c0,0,1.7,2.6,3.1,1.2l0.1,0c0,0,0-0.1,0-0.1c0,0,0.1,0,0.1-0.1l-0.1,0c-0.4-2.1-3.2-1-3.2-1
		L48.4,61.6z"/>
	<path class="st2" d="M49,58.8l-0.1,0c0,0,2.4,1.9,3.3,0.1l0.1,0c0,0,0-0.1-0.1-0.1c0,0,0-0.1,0.1-0.1l-0.1,0
		c-1.1-1.8-3.3,0.1-3.3,0.1L49,58.8z"/>
	<path class="st2" d="M48.4,55.7l-0.1,0c0,0,2.9,1,3.2-1l0.1,0c0,0-0.1,0-0.1-0.1c0,0,0-0.1,0-0.1l-0.1,0c-1.6-1.4-3.1,1.2-3.1,1.2
		L48.4,55.7z"/>
	<path class="st2" d="M46.7,53.5L46.7,53.5c-0.1,0.1,3-0.2,2.4-2.2l0.1-0.1c0,0-0.1,0-0.1,0c0,0,0-0.1,0-0.1L49,51.2
		C46.9,50.6,46.6,53.5,46.7,53.5L46.7,53.5z"/>
	<path class="st2" d="M44.2,51.6L44.2,51.6c0,0.1,2.8-1.2,1.6-2.8l0-0.1c0,0-0.1,0-0.1,0c0,0,0-0.1-0.1-0.1l0,0.1
		c-2.1,0.1-1.5,3-1.5,3L44.2,51.6z"/>
	<path class="st2" d="M41.3,51l0,0.1c0,0,2-2.4,0.3-3.3l0-0.1c0,0-0.1,0-0.1,0c0,0-0.1,0-0.1-0.1l0,0.1c-1.9,1-0.1,3.3-0.1,3.3
		L41.3,51z"/>
	<path class="st2" d="M38.6,51.5l0,0.1c0,0,0.9-3-1.2-3.1l0-0.1c0,0,0,0.1-0.1,0.1c0,0-0.1,0-0.1,0l0,0.1c-1.3,1.7,1.3,3.1,1.3,3.1
		L38.6,51.5z"/>
	<path class="st2" d="M36.1,53.3L36.1,53.3c0.1,0.1-0.1-3-2.1-2.5l-0.1-0.1c0,0,0,0.1,0,0.1c0,0-0.1,0-0.1,0l0.1,0.1
		C33.2,53,36.1,53.4,36.1,53.3L36.1,53.3z"/>
	<path class="st2" d="M34.4,55.7L34.4,55.7c0.1,0.1-1.1-2.8-2.8-1.7l-0.1,0c0,0,0,0.1,0,0.1c0,0-0.1,0-0.1,0.1l0.1,0.1
		c0.1,2.1,2.9,1.6,2.9,1.6L34.4,55.7z"/>
	<path class="st2" d="M33.6,58.7l0.1,0c0,0-2.2-2.2-3.3-0.4l-0.1,0c0,0,0,0.1,0,0.1c0,0,0,0.1-0.1,0.1l0.1,0
		c0.9,1.9,3.3,0.3,3.3,0.3L33.6,58.7z"/>
</g>
</svg>
