<?xml version="1.0" encoding="utf-8"?>
<!-- Generator: Adobe Illustrator 22.0.1, SVG Export Plug-In . SVG Version: 6.00 Build 0)  -->
<svg version="1.1" id="Layer_1" xmlns="http://www.w3.org/2000/svg" xmlns:xlink="http://www.w3.org/1999/xlink" x="0px" y="0px"
	 viewBox="0 0 100 100" style="enable-background:new 0 0 100 100;" xml:space="preserve">
<style type="text/css">
	.st0{fill:#603913;stroke:#000000;stroke-linecap:round;stroke-linejoin:round;stroke-miterlimit:10;}
	.st1{fill:#754C29;stroke:#532E12;stroke-miterlimit:10;}
	.st2{fill:#603913;stroke:#000000;stroke-miterlimit:10;}
	.st3{fill:#689C41;stroke:#532E12;stroke-miterlimit:10;}
	.st4{fill:#8DC63F;stroke:#568F40;stroke-miterlimit:10;}
	.st5{stroke:#000000;stroke-linecap:round;stroke-linejoin:round;stroke-miterlimit:10;}
</style>
<path class="st0" d="M56.5,8.4c0,0,3.3-2.2,4.8-1.6"/>
<path class="st0" d="M51,9.2c0,0-2.2-3.3-3.4-3.1"/>
<path class="st0" d="M54.5,7.6c0,0,0.8-4,2-3.7"/>
<ellipse transform="matrix(0.3506 -0.9365 0.9365 0.3506 -15.4114 73.8677)" class="st1" cx="45.6" cy="48" rx="41.4" ry="27.1"/>
<circle class="st2" cx="62.7" cy="73.3" r="21.2"/>
<circle class="st3" cx="62.9" cy="73.1" r="21.6"/>
<circle class="st4" cx="62.9" cy="73.4" r="5"/>
<g>
	<path class="st5" d="M54.2,76.8l0.1-0.1c0,0-3.8-0.9-3.9,1.7l-0.1,0c0,0,0.1,0,0.1,0.1c0,0,0,0.1,0,0.1l0.1-0.1
		c2.2,1.5,3.8-1.9,3.8-1.9L54.2,76.8z"/>
	<path class="st5" d="M56.1,80l0.1-0.1c0,0-3.9,0.6-3,3L53.1,83c0,0,0.1,0,0.1,0c0,0,0,0.1,0.1,0.1l0.1-0.1c2.6,0.6,2.8-3.1,2.8-3.1
		L56.1,80z"/>
	<path class="st5" d="M59.2,82.3l0-0.1c0,0-3.2,2.3-1.3,4l0,0.1c0,0,0.1,0,0.1,0c0,0,0.1,0.1,0.1,0.1l0-0.1c2.6-0.7,1-4.1,1-4.1
		L59.2,82.3z"/>
	<path class="st5" d="M62.9,83.2l0-0.1c0,0-2.5,3-0.2,4.2l0,0.1c0,0,0.1,0,0.1-0.1c0,0,0.1,0,0.1,0.1l0-0.1c2.3-1.3,0-4.2,0-4.2
		L62.9,83.2z"/>
	<path class="st5" d="M66.8,82.4l-0.1-0.1c0,0-1,3.8,1.6,3.9l0,0.1c0,0,0-0.1,0.1-0.1c0,0,0.1,0,0.1,0L68.6,86
		c1.5-2.2-1.8-3.8-1.8-3.8L66.8,82.4z"/>
	<path class="st5" d="M69.9,80.1L69.8,80c0,0,0.6,3.9,3,3l0.1,0.1c0,0,0-0.1,0-0.1c0,0,0.1,0,0.1-0.1l-0.1-0.1
		c0.6-2.6-3.1-2.8-3.1-2.8L69.9,80.1z"/>
	<path class="st5" d="M72,77.1l-0.1,0c0,0,2.1,3.3,3.9,1.5l0.1,0c0,0,0-0.1,0-0.1c0,0,0.1-0.1,0.1-0.1l-0.1,0c-0.6-2.6-4-1.3-4-1.3
		L72,77.1z"/>
	<path class="st5" d="M72.8,73.5l-0.1,0c0,0,3.1,2.4,4.2,0.2l0.1,0c0,0,0-0.1-0.1-0.1c0,0,0-0.1,0.1-0.1l-0.1,0
		c-1.4-2.3-4.2,0.1-4.2,0.1L72.8,73.5z"/>
	<path class="st5" d="M72,69.6l-0.1,0c0,0,3.7,1.2,4-1.3l0.1,0c0,0-0.1-0.1-0.1-0.1c0,0,0-0.1,0-0.1l-0.1,0
		c-2.1-1.7-3.9,1.5-3.9,1.5L72,69.6z"/>
	<path class="st5" d="M69.9,66.8L69.9,66.8c-0.1,0.1,3.8-0.3,3-2.7L73,64c0,0-0.1,0-0.1,0c0,0,0-0.1,0-0.1l-0.1,0.1
		c-2.6-0.7-3,3-3,3L69.9,66.8z"/>
	<path class="st5" d="M66.8,64.5l-0.1,0.1c0,0,3.6-1.6,2.1-3.7l0.1-0.1c0,0-0.1,0-0.1,0c0,0,0-0.1-0.1-0.1l-0.1,0.1
		c-2.7,0.1-1.9,3.8-1.9,3.8L66.8,64.5z"/>
	<path class="st5" d="M63.1,63.7l0,0.1c0,0,2.6-3,0.3-4.2l0-0.1c0,0-0.1,0-0.1,0.1c0,0-0.1,0-0.1-0.1l0,0.1
		c-2.4,1.3-0.1,4.2-0.1,4.2L63.1,63.7z"/>
	<path class="st5" d="M59.7,64.3l0.1,0.1c0,0,1.1-3.8-1.5-3.9l0-0.1c0,0,0,0.1-0.1,0.1c0,0-0.1,0-0.1,0l0.1,0.1
		c-1.6,2.1,1.7,3.9,1.7,3.9L59.7,64.3z"/>
	<path class="st5" d="M56.5,66.6l0.1,0.1c0,0-0.3-3.9-2.7-3.2l-0.1-0.1c0,0,0,0.1,0,0.1c0,0-0.1,0-0.1,0l0.1,0.1
		c-0.8,2.6,2.9,3,2.9,3L56.5,66.6z"/>
	<path class="st5" d="M54.4,69.6l0.1,0.1c0,0-1.5-3.6-3.6-2.2l-0.1-0.1c0,0,0,0.1,0,0.1c0,0-0.1,0-0.1,0.1l0.1,0.1
		c0.1,2.7,3.7,2,3.7,2L54.4,69.6z"/>
	<path class="st5" d="M53.5,73.5l0.1,0c0,0-2.8-2.7-4.2-0.6l-0.1,0c0,0,0,0.1,0.1,0.1c0,0-0.1,0.1-0.1,0.1l0.1,0
		c1.1,2.4,4.2,0.3,4.2,0.3L53.5,73.5z"/>
</g>
</svg>
