<?xml version="1.0" encoding="utf-8"?>
<!-- Generator: Adobe Illustrator 22.0.1, SVG Export Plug-In . SVG Version: 6.00 Build 0)  -->
<svg version="1.1" id="Layer_1" xmlns="http://www.w3.org/2000/svg" xmlns:xlink="http://www.w3.org/1999/xlink" x="0px" y="0px"
	 viewBox="0 0 1024.9 607.9" style="enable-background:new 0 0 1024.9 607.9;" xml:space="preserve">
<style type="text/css">
	.st0{display:none;}
	.st1{display:inline;fill:none;stroke:#000000;stroke-miterlimit:10;}
	.st2{fill:none;stroke:#58595B;stroke-width:2;stroke-miterlimit:10;}
	.st3{fill:#25A9E0;stroke:#0780A5;stroke-width:3;stroke-miterlimit:10;}
	.st4{fill:#37B34A;stroke:#378E43;stroke-width:3;stroke-miterlimit:10;}
	.st5{fill:#37B34A;stroke:#378E43;stroke-width:2;stroke-miterlimit:10;}
	.st6{fill:none;}
	.st7{fill:#EEDB7D;stroke:#D9BA27;stroke-width:2;stroke-linecap:round;stroke-linejoin:round;stroke-miterlimit:10;}
	.st8{fill:#FFF4CA;stroke:#D9BA27;stroke-width:2;stroke-linecap:round;stroke-linejoin:round;stroke-miterlimit:10;}
	.st9{fill:#8A5F3C;stroke:#8A5F3C;stroke-width:2;stroke-miterlimit:10;}
	.st10{fill:#FFDD0F;stroke:#D9BA27;stroke-width:2;stroke-linecap:round;stroke-linejoin:round;stroke-miterlimit:10;}
	.st11{fill:#5F3A16;stroke:#8A5F3C;stroke-width:2;stroke-miterlimit:10;}
	.st12{stroke:#000000;stroke-width:2;stroke-linecap:round;stroke-linejoin:round;stroke-miterlimit:10;}
	.st13{fill:#FFFFFF;stroke:#000000;stroke-width:2;stroke-linecap:round;stroke-linejoin:round;stroke-miterlimit:10;}
	.st14{fill:none;stroke:#AF56A0;stroke-width:2;stroke-linecap:round;stroke-linejoin:round;stroke-miterlimit:10;}
	.st15{fill:#FFFFFF;stroke:#FFFFFF;stroke-miterlimit:10;}
	.st16{fill:#FFFFFF;stroke:#66A8D5;stroke-width:2;stroke-miterlimit:10;}
	.st17{fill:#FFFFFF;stroke:#0D72B9;stroke-miterlimit:10;}
	.st18{fill:#0D72B9;stroke:#0D72B9;stroke-miterlimit:10;}
	.st19{fill:none;stroke:#0D72B9;stroke-width:5;stroke-linecap:round;stroke-linejoin:round;stroke-miterlimit:10;}
	.st20{fill:#152D53;}
	.st21{fill:#00B7A5;stroke:#0EA593;stroke-miterlimit:10;}
	.st22{fill:#D6DF27;stroke:#BCCD40;stroke-width:2;stroke-miterlimit:10;}
	.st23{fill:#EF5127;stroke:#DD4628;stroke-width:2;stroke-miterlimit:10;}
	.st24{clip-path:url(#SVGID_2_);fill:#152D53;}
	.st25{clip-path:url(#SVGID_2_);fill:#1AA5DE;}
	.st26{clip-path:url(#SVGID_2_);fill:#EE5227;}
	.st27{clip-path:url(#SVGID_2_);fill:#49B75B;}
	.st28{clip-path:url(#SVGID_2_);fill:#00B6A7;}
	.st29{clip-path:url(#SVGID_2_);fill:#D5DE2B;}
	.st30{fill:none;stroke:#FFFFFF;stroke-width:4;stroke-miterlimit:10;}
</style>
<g class="st0">
	<line class="st1" x1="510.8" y1="-118.5" x2="510.8" y2="638.5"/>
	<line class="st1" x1="321.5" y1="-67.8" x2="700" y2="587.8"/>
	<line class="st1" x1="183" y1="70.7" x2="838.5" y2="449.2"/>
	<line class="st1" x1="132.3" y1="260" x2="889.3" y2="260"/>
	<line class="st1" x1="183" y1="449.2" x2="838.5" y2="70.7"/>
	<line class="st1" x1="321.5" y1="587.8" x2="700" y2="-67.8"/>
</g>
<path class="st2" d="M960.9,238.7H833.3c-4.6,0-8.3,3.7-8.3,8.3v70.2l-6.5,32.5l40.4-13.7h102c4.6,0,8.3-3.7,8.3-8.3V247
	C969.3,242.4,965.5,238.7,960.9,238.7z"/>
<path class="st2" d="M53.7,232.2h127.6c4.6,0,8.3,3.7,8.3,8.3v70.2l6.5,32.5l-40.4-13.7h-102c-4.6,0-8.3-3.7-8.3-8.3v-80.7
	C45.4,236,49.1,232.2,53.7,232.2z"/>
<path class="st3" d="M802.6,525.9c0-158-128.1-286.2-286.2-286.2S230.2,367.8,230.2,525.9c0,28.4,4.2,55.9,11.9,81.8h548.5
	C798.4,581.8,802.6,554.3,802.6,525.9z"/>
<path class="st4" d="M451.5,247.1c0,0-14.2,53.8-31.3,61.1c-17.2,7.4-77.2,65-53.9,84.6c23.3,19.6,137.3,33.1,129.9,67.4
	c-7.4,34.3,41.7,90.9,79.7,65.7c38-25.2,169.1-53.4,115.2-81.6c-53.9-28.2,25.7-36.8,25.7-36.8s47.8,28.2,19.6,79.7
	c-28.2,51.5,55.1,117.7,55.1,117.7s30.4-103.6-16.7-201.9c-47-98.3-145-139.8-145-139.8S550.2,226.4,451.5,247.1z"/>
<path class="st5" d="M291.4,349.1c0,0-6.5,41,24.1,51.2s85.1,37.4,53.6,75.9s39.2,0,39.2,0s84.2,54.8,7.7,68.2
	c-76.5,13.4-129.1,5.7-136.8-44c-7.7-49.7-38.6-50.7-38.6-50.7S258.8,384.1,291.4,349.1z"/>
<rect x="120.8" y="-4.3" class="st6" width="792" height="612"/>
<g>
	<path class="st7" d="M591.2,78.8c-2.1-4.8-7.4-5-8.6-5c-1.6,3-3.6,5.8-5.7,8.4c7.1-1.1,8.6,13,8.6,13S593.6,84.2,591.2,78.8z"/>
	<path class="st7" d="M557.3,76.8l2.2-2.4c0.9-1.1,1.9-2.1,2.8-3.2c-1.2-1.5-11.7-13.2-23.4-2.8c-12.6,10.9-4.2,10.9-4.2,10.9
		c16.2-9.3,19.3-1.1,19.7,0.4C555.4,78.7,556.3,77.8,557.3,76.8z"/>
	<path class="st8" d="M582.8,74.8C582.8,74.8,582.6,74.8,582.8,74.8c3.1-6,4.6-12.4,2.8-18.5c-5.7-18.9-14.4,0-14.4,0
		c-3,5.8-6.2,10.7-9.4,14.8c0.1,0.1,0,0,0,0l-2.6,3.2c-0.7,0.8-1.4,1.6-2.1,2.4l-2.4,2.7c2.3-2.2,9.8-2.2,9.8-2.2
		c5.9-0.4,10.2,2.2,12.8,6.1c0.1-0.1,0.1-0.1,0.1-0.2c-0.1,0-0.1,0-0.2,0L582.8,74.8z"/>
	<path class="st9" d="M528.2,98.5c-2.9,4.4,2.8,6,2.8,6c0.2,0,0.4,0,0.7,0C531.2,101.2,529.6,99.4,528.2,98.5z"/>
	<path class="st10" d="M554.4,79.7c0,0,0-0.1-0.1-0.2c-11.7,10.9-22.3,14.6-25.4,18c-0.2,0.2-0.4,0.5-0.5,0.7c1.5,1,3.2,2.9,3.5,6.3
		c-0.1,0-0.3,0-0.3,0l0,0c24.9,0.1,33-7.3,33-7.3s0.3-0.2,0.9-0.7c0.1-0.7,0.3-1.5,0.5-2.4C568.8,79.9,554.4,79.7,554.4,79.7z"/>
	<path class="st11" d="M528.4,98.2c-0.1,0.1-0.1,0.1-0.1,0.2c0,0.1-0.1,0.1-0.1,0.1c1.4,0.9,3.1,2.8,3.3,6c0.1,0,0.3,0,0.3,0
		C531.6,101.1,529.9,99.2,528.4,98.2z"/>
	<path class="st7" d="M578.8,83.4c-2.7-3.9-7.3-6.5-13.6-6.1c0,0-8.1,0-10.4,2.2l-0.3,0.3c0,0,14.4,0.1,11.4,14.4
		c-0.2,0.9-0.3,1.6-0.5,2.4c-2.4,12.3-1.7,14.6-1.7,14.6s1.6,5.8,12.2-5.3C582.4,99.1,583,89.5,578.8,83.4z"/>
</g>
<g id="Layer_1_2_">
	<g id="Layer_3_1_">
	</g>
	<g>
		<path class="st12" d="M923,306.1c1.6,2.3-0.6,11.5-0.6,11.5H916c2-4.3-1.3-9.6-1.3-9.6S916,296.2,923,306.1z"/>
		<path class="st12" d="M891,305.1c0.7,3.5-1.6,12.5-1.6,12.5h-5.2c2.9-3.3-1.3-15.1-1.3-15.1S889.2,294.8,891,305.1z"/>
		<path class="st13" d="M937.4,273.2c0.6-3.7-6.6-4.2-6.6-4.2c-0.8-5.5-6.3-3.6-6.3-3.6c2-5.5-5.8-6.6-5.8-6.6
			c-3.5-4-10.1,0.9-10.1,0.9c-3.1-5.6-9.1-2.6-9.1-2.6c-7.9-3.2-9.3,3.9-9.3,3.9c-3.8-3.2-6.3,0.9-6.3,0.9c-0.6-1.2-3.4-0.8-3.4-0.8
			c-4.3-0.4-4.7,5.6-4.7,5.6c-1.3,0.3-1.9,1.5-1.9,1.5c0-0.4-0.8-1-3.4-0.8c-2.5,0.3-0.8,3.2-0.8,3.2c-2,2,0,4,0,4
			s-10.2,13.1-9.8,15.7s0.8,4.4,3.8,4.2c1.7-0.2,5.3-0.5,8.3-2l0,0c-0.1,9,6.5,4.8,6.5,4.8c-3.8,4.4,4.5,5,4.5,5
			c3.3,5,8.2,2.6,8.2,2.6c3.9,3.8,7.9,1.4,7.9,1.4c2.8,5.5,8.4,1.4,8.4,1.4c4.3,3.8,9.5-1.4,9.5-1.4c9.5,1.4,9.1-3.4,9.1-3.4
			c4.3,0.6,4.5-3.2,4.5-3.2c2.9,0.4,2.4-5.5,2.4-5.5c3.8-1.2,2.9-4.9,2.9-4.9c1.9,0,1.3-4.3,1.1-5.7c0.2-0.1,0.4-0.3,0.7-0.4
			C940.5,281,937.4,273.2,937.4,273.2z"/>
		<path class="st14" d="M876.6,287.2c-1.7,0-2.2,3.9-4.7,5.4"/>
		<path class="st13" d="M875.8,266.9c0,0,3.4-1.9,3.4,1.5c0,0,7.4-0.3,1,5.2"/>
		<path class="st12" d="M876.2,274.4c0,0,0.7-3,3.3,1.4c2.5,4.4-3.8,13.8-3.8,13.8c2.5,1.6-24.2,13.3-13.7-3.6
			C873.4,268,878.3,274.1,876.2,274.4z"/>
		<path d="M877.4,280.6c0,0,7.6-1.3,6.7-5.9c-1-4.6-7.5,2.2-7.5,2.2"/>
		<ellipse class="st15" cx="869.5" cy="282.3" rx="1.3" ry="1.4"/>
		<ellipse class="st15" cx="879.4" cy="291.2" rx="4.7" ry="2"/>
		<ellipse class="st15" cx="880.4" cy="289.2" rx="4" ry="4.2"/>
		<ellipse class="st15" cx="881.9" cy="282.8" rx="3.4" ry="2.1"/>
	</g>
</g>
<path class="st2" d="M621.3,34.9H501c-6.6,0-12,5.4-12,12v71.4c0,1.1,0.2,2.2,0.5,3.3H489l0.8,1c0.9,2.4,2.5,4.4,4.6,5.8l20.4,25.4
	l18.8-23.4h87.5c6.6,0,12-5.4,12-12V46.9C633.3,40.3,627.9,34.9,621.3,34.9z"/>
<g>
	<path class="st16" d="M119.6,289.7v-34.1c0-3.7-2.9-6.6-6.6-6.6s-6.6,2.9-6.6,6.6v34.2c-5,2.4-8.4,7.5-8.4,13.3c0,8.2,6.7,15,15,15
		s14.9-6.7,14.9-15C127.9,297.2,124.5,292.1,119.6,289.7z"/>
	<g>
		<path class="st17" d="M126.1,260.7h-3.7c-0.1,0-0.1-0.1-0.1-0.1v-0.5c0-0.1,0.1-0.1,0.1-0.1h3.7c0.1,0,0.1,0.1,0.1,0.1
			L126.1,260.7C126.1,260.6,126.1,260.7,126.1,260.7z"/>
		<path class="st17" d="M126.1,268.4h-3.7c-0.1,0-0.1-0.1-0.1-0.1v-0.5c0-0.1,0.1-0.1,0.1-0.1h3.7c0.1,0,0.1,0.1,0.1,0.1
			L126.1,268.4C126.1,268.3,126.1,268.4,126.1,268.4z"/>
		<path class="st17" d="M126.1,283.7h-3.7c-0.1,0-0.1-0.1-0.1-0.1v-0.5c0-0.1,0.1-0.1,0.1-0.1h3.7c0.1,0,0.1,0.1,0.1,0.1
			L126.1,283.7C126.1,283.7,126.1,283.7,126.1,283.7z"/>
		<path class="st17" d="M126.1,276.1h-3.7c-0.1,0-0.1-0.1-0.1-0.1v-0.5c0-0.1,0.1-0.1,0.1-0.1h3.7c0.1,0,0.1,0.1,0.1,0.1
			L126.1,276.1C126.1,276,126.1,276.1,126.1,276.1z"/>
	</g>
	<circle class="st18" cx="113" cy="302.7" r="10.9"/>
	<line class="st19" x1="113" y1="285.3" x2="113" y2="303.1"/>
</g>
<path class="st20" d="M516,317.1L516,317.1c-5.4,0-16-16.5-16-19.4V169.9c0-2.9,4.5-5.4,9.9-5.4h12.2c5.4,0,9.9,2.4,9.9,5.4v127.8
	C532,300.6,521.5,317.1,516,317.1z"/>
<path class="st21" d="M590.1,394.2L590.1,394.2c4.7,2.7,28-16.4,30.5-20.8l109.3-189.3c2.5-4.4,0.7-10.2-4-12.9l-10.6-6.1
	c-4.7-2.7-10.6-1.4-13.2,3L592.9,357.5C590.3,361.8,585.4,391.5,590.1,394.2z"/>
<path class="st22" d="M715.4,410.4L715.4,410.4c2.7,4.7,18.3,7.9,20.1,6.9l79.7-46c1.8-1.1,1.1-5.8-1.6-10.5l-6.1-10.6
	c-2.7-4.7-6.5-7.7-8.3-6.6l-79.7,46C717.7,390.6,712.7,405.7,715.4,410.4z"/>
<path class="st23" d="M697.1,522.7L697.1,522.7c0,5.4,22.8,16,26.9,16h176.7c4.1,0,7.4-4.5,7.4-9.9v-12.2c0-5.4-3.3-9.9-7.4-9.9
	H723.9C719.8,506.7,697.1,517.2,697.1,522.7z"/>
<path class="st22" d="M432.1,367.4L432.1,367.4c-4.7,2.7-25.3-11.7-27.3-15.3L316.4,199c-2-3.5,0.2-8.6,4.9-11.4l10.6-6.1
	c4.7-2.7,10.2-2.1,12.3,1.5l88.4,153.1C434.5,339.6,436.8,364.6,432.1,367.4z"/>
<path class="st23" d="M328.3,414.2L328.3,414.2c-2.7,4.7-20.2,6.8-22.4,5.5L211,364.9c-2.2-1.3-1.8-6.2,1-10.9l6.1-10.6
	c2.7-4.7,6.7-7.5,8.9-6.3l94.9,54.8C324.1,393.3,331,409.5,328.3,414.2z"/>
<path class="st22" d="M300.5,522.7L300.5,522.7c0,5.4-14.7,16-17.4,16H168.8c-2.6,0-4.8-4.5-4.8-9.9v-12.2c0-5.4,2.2-9.9,4.8-9.9
	h114.3C285.7,506.7,300.5,517.2,300.5,522.7z"/>
<g>
	<defs>
		<circle id="SVGID_1_" cx="516.8" cy="522.7" r="78"/>
	</defs>
	<clipPath id="SVGID_2_">
		<use xlink:href="#SVGID_1_"  style="overflow:visible;"/>
	</clipPath>
	<circle class="st24" cx="516.8" cy="522.7" r="78"/>
	<circle class="st25" cx="525" cy="540.6" r="34.1"/>
	<circle class="st26" cx="563.9" cy="577.5" r="44.2"/>
	<circle class="st27" cx="477.2" cy="569.6" r="57.5"/>
	<circle class="st28" cx="563.9" cy="577.5" r="24.5"/>
	<circle class="st29" cx="477.2" cy="569.6" r="34.1"/>
</g>
<circle class="st30" cx="516.8" cy="522.7" r="78"/>
</svg>
