<?xml version="1.0" encoding="utf-8"?>
<!-- Generator: Adobe Illustrator 22.0.1, SVG Export Plug-In . SVG Version: 6.00 Build 0)  -->
<svg version="1.1" id="Layer_1" xmlns="http://www.w3.org/2000/svg" xmlns:xlink="http://www.w3.org/1999/xlink" x="0px" y="0px"
	 viewBox="0 0 100 100" style="enable-background:new 0 0 100 100;" xml:space="preserve">
<style type="text/css">
	.st0{fill:#FFFFFF;}
</style>
<g>
	<g>
		<circle class="st0" cx="14.9" cy="5.4" r="4.2"/>
		<path class="st0" d="M17.8,11.1H12c-1.6,0-2.9,1.3-2.9,2.9v7.1c0,1.4,1.1,2.7,2.4,2.9v4.5c0,0.8,0.6,1.4,1.4,1.4h3.3
			c0.8,0,1.4-0.6,1.4-1.4V24h0.1c1.6,0,2.9-1.3,2.9-2.9V14C20.7,12.4,19.4,11.1,17.8,11.1z"/>
	</g>
	<g>
		<circle class="st0" cx="32.7" cy="5.4" r="4.2"/>
		<path class="st0" d="M35.5,11.1h-5.8c-1.6,0-2.9,1.3-2.9,2.9v7.1c0,1.4,1.1,2.7,2.4,2.9v4.5c0,0.8,0.6,1.4,1.4,1.4H34
			c0.8,0,1.4-0.6,1.4-1.4V24h0.1c1.6,0,2.9-1.3,2.9-2.9V14C38.5,12.4,37.2,11.1,35.5,11.1z"/>
	</g>
	<g>
		<circle class="st0" cx="50.4" cy="5.4" r="4.2"/>
		<path class="st0" d="M53.3,11.1h-5.8c-1.6,0-2.9,1.3-2.9,2.9v7.1c0,1.4,1.1,2.7,2.4,2.9v4.5c0,0.8,0.6,1.4,1.4,1.4h3.3
			c0.8,0,1.4-0.6,1.4-1.4V24h0.1c1.6,0,2.9-1.3,2.9-2.9V14C56.3,12.4,54.9,11.1,53.3,11.1z"/>
	</g>
	<g>
		<circle class="st0" cx="68.2" cy="5.4" r="4.2"/>
		<path class="st0" d="M71.1,11.1h-5.8c-1.6,0-2.9,1.3-2.9,2.9v7.1c0,1.4,1.1,2.7,2.4,2.9v4.5c0,0.8,0.6,1.4,1.4,1.4h3.3
			c0.8,0,1.4-0.6,1.4-1.4V24H71c1.6,0,2.9-1.3,2.9-2.9V14C74,12.4,72.7,11.1,71.1,11.1z"/>
	</g>
	<g>
		<circle class="st0" cx="86" cy="5.4" r="4.2"/>
		<path class="st0" d="M88.9,11.1h-5.8c-1.6,0-2.9,1.3-2.9,2.9v7.1c0,1.4,1.1,2.7,2.4,2.9v4.5c0,0.8,0.6,1.4,1.4,1.4h3.3
			c0.8,0,1.4-0.6,1.4-1.4V24h0.1c1.6,0,2.9-1.3,2.9-2.9V14C91.8,12.4,90.5,11.1,88.9,11.1z"/>
	</g>
	<g>
		<circle class="st0" cx="14.9" cy="39.3" r="4.2"/>
		<path class="st0" d="M17.8,45H12c-1.6,0-2.9,1.3-2.9,2.9V55c0,1.4,1.1,2.7,2.4,2.9v4.5c0,0.8,0.6,1.4,1.4,1.4h3.3
			c0.8,0,1.4-0.6,1.4-1.4v-4.5h0.1c1.6,0,2.9-1.3,2.9-2.9v-7.1C20.7,46.3,19.4,45,17.8,45z"/>
	</g>
	<g>
		<circle class="st0" cx="32.7" cy="39.3" r="4.2"/>
		<path class="st0" d="M35.5,45h-5.8c-1.6,0-2.9,1.3-2.9,2.9V55c0,1.4,1.1,2.7,2.4,2.9v4.5c0,0.8,0.6,1.4,1.4,1.4H34
			c0.8,0,1.4-0.6,1.4-1.4v-4.5h0.1c1.6,0,2.9-1.3,2.9-2.9v-7.1C38.5,46.3,37.2,45,35.5,45z"/>
	</g>
	<g>
		<circle class="st0" cx="50.4" cy="39.3" r="4.2"/>
		<path class="st0" d="M53.3,45h-5.8c-1.6,0-2.9,1.3-2.9,2.9V55c0,1.4,1.1,2.7,2.4,2.9v4.5c0,0.8,0.6,1.4,1.4,1.4h3.3
			c0.8,0,1.4-0.6,1.4-1.4v-4.5h0.1c1.6,0,2.9-1.3,2.9-2.9v-7.1C56.3,46.3,54.9,45,53.3,45z"/>
	</g>
	<g>
		<circle class="st0" cx="68.2" cy="39.3" r="4.2"/>
		<path class="st0" d="M71.1,45h-5.8c-1.6,0-2.9,1.3-2.9,2.9V55c0,1.4,1.1,2.7,2.4,2.9v4.5c0,0.8,0.6,1.4,1.4,1.4h3.3
			c0.8,0,1.4-0.6,1.4-1.4v-4.5H71c1.6,0,2.9-1.3,2.9-2.9v-7.1C74,46.3,72.7,45,71.1,45z"/>
	</g>
	<g>
		<circle class="st0" cx="86" cy="39.3" r="4.2"/>
		<path class="st0" d="M88.9,45h-5.8c-1.6,0-2.9,1.3-2.9,2.9V55c0,1.4,1.1,2.7,2.4,2.9v4.5c0,0.8,0.6,1.4,1.4,1.4h3.3
			c0.8,0,1.4-0.6,1.4-1.4v-4.5h0.1c1.6,0,2.9-1.3,2.9-2.9v-7.1C91.8,46.3,90.5,45,88.9,45z"/>
	</g>
	<g>
		<circle class="st0" cx="14.9" cy="73.2" r="4.2"/>
		<path class="st0" d="M17.8,78.9H12c-1.6,0-2.9,1.3-2.9,2.9v7.1c0,1.4,1.1,2.7,2.4,2.9v4.5c0,0.8,0.6,1.4,1.4,1.4h3.3
			c0.8,0,1.4-0.6,1.4-1.4v-4.5h0.1c1.6,0,2.9-1.3,2.9-2.9v-7.1C20.7,80.2,19.4,78.9,17.8,78.9z"/>
	</g>
	<g>
		<circle class="st0" cx="32.7" cy="73.2" r="4.2"/>
		<path class="st0" d="M35.5,78.9h-5.8c-1.6,0-2.9,1.3-2.9,2.9v7.1c0,1.4,1.1,2.7,2.4,2.9v4.5c0,0.8,0.6,1.4,1.4,1.4H34
			c0.8,0,1.4-0.6,1.4-1.4v-4.5h0.1c1.6,0,2.9-1.3,2.9-2.9v-7.1C38.5,80.2,37.2,78.9,35.5,78.9z"/>
	</g>
	<g>
		<circle class="st0" cx="50.4" cy="73.2" r="4.2"/>
		<path class="st0" d="M53.3,78.9h-5.8c-1.6,0-2.9,1.3-2.9,2.9v7.1c0,1.4,1.1,2.7,2.4,2.9v4.5c0,0.8,0.6,1.4,1.4,1.4h3.3
			c0.8,0,1.4-0.6,1.4-1.4v-4.5h0.1c1.6,0,2.9-1.3,2.9-2.9v-7.1C56.3,80.2,54.9,78.9,53.3,78.9z"/>
	</g>
	<g>
		<circle class="st0" cx="68.2" cy="73.2" r="4.2"/>
		<path class="st0" d="M71.1,78.9h-5.8c-1.6,0-2.9,1.3-2.9,2.9v7.1c0,1.4,1.1,2.7,2.4,2.9v4.5c0,0.8,0.6,1.4,1.4,1.4h3.3
			c0.8,0,1.4-0.6,1.4-1.4v-4.5H71c1.6,0,2.9-1.3,2.9-2.9v-7.1C74,80.2,72.7,78.9,71.1,78.9z"/>
	</g>
	<g>
		<circle class="st0" cx="86" cy="73.2" r="4.2"/>
		<path class="st0" d="M88.9,78.9h-5.8c-1.6,0-2.9,1.3-2.9,2.9v7.1c0,1.4,1.1,2.7,2.4,2.9v4.5c0,0.8,0.6,1.4,1.4,1.4h3.3
			c0.8,0,1.4-0.6,1.4-1.4v-4.5h0.1c1.6,0,2.9-1.3,2.9-2.9v-7.1C91.8,80.2,90.5,78.9,88.9,78.9z"/>
	</g>
</g>
</svg>
