<?xml version="1.0" encoding="utf-8"?>
<!-- Generator: Adobe Illustrator 22.0.1, SVG Export Plug-In . SVG Version: 6.00 Build 0)  -->
<svg version="1.1" id="Layer_1" xmlns="http://www.w3.org/2000/svg" xmlns:xlink="http://www.w3.org/1999/xlink" x="0px" y="0px"
	 viewBox="0 0 100 100" style="enable-background:new 0 0 100 100;" xml:space="preserve">
<style type="text/css">
	.st0{fill:#FFFFFF;stroke:#FFFFFF;stroke-width:2;stroke-miterlimit:10;}
	.st1{fill:#17A7E0;stroke:#FFFFFF;stroke-width:2;stroke-miterlimit:10;}
</style>
<g>
	<path class="st0" d="M89.5,39.6c0-21.7-17.6-39.4-39.4-39.4S10.8,17.8,10.8,39.6c0,15.4,8.9,28.7,21.7,35.2l17.6,24.1l17.6-24.1
		C80.7,68.3,89.5,55,89.5,39.6z"/>
	<circle class="st1" cx="50.2" cy="39.2" r="34.6"/>
	<path class="st0" d="M26,35c0,0-3.2,0.4-1.3,3.3c1.9,2.9,0.3,4.4,0.3,4.4s1.2,5.8,4.2-2.7s5.4,1.9,5.4,1.9s0.8,3,6.2-0.4
		c0,0,2.2,9.6,10.7,5.4c0,0,9.3,3.5,10-1.9c0,0,3,3.3,5.1,1.6c2-1.6,0,5.8,0,5.8s0.6,8.1,5.3-6.8c0,0-7.7-12.7-3.2-9.2
		c4.6,3.5,10.6,3.8,4.9-4.4s-9.3-2.4-9.3-2.4s-4.4,5.1-8.7,0.4s-3.7-7.5-5.7-6.3s0.5,6.5,0.5,6.5s-6.2,4.4-8.1,0.5
		c-1.9-3.9,4.1-9.9-4.7-5.2S32.2,17.5,26,35z"/>
</g>
</svg>
