<?xml version="1.0" encoding="utf-8"?>
<!-- Generator: Adobe Illustrator 22.0.1, SVG Export Plug-In . SVG Version: 6.00 Build 0)  -->
<svg version="1.1" id="Layer_1" xmlns="http://www.w3.org/2000/svg" xmlns:xlink="http://www.w3.org/1999/xlink" x="0px" y="0px"
	 viewBox="0 0 100 100" style="enable-background:new 0 0 100 100;" xml:space="preserve">
<style type="text/css">
	.st0{fill:#CCCCCC;stroke:#808080;stroke-miterlimit:10;}
	.st1{fill:#17A7E0;stroke:#0071BC;stroke-miterlimit:10;}
	.st2{fill:#009245;stroke:#006837;stroke-miterlimit:10;}
</style>
<g>
	<path class="st0" d="M89.5,40.4C89.5,19,72.1,1.5,50.6,1.5S11.8,18.9,11.8,40.4c0,15.2,8.8,28.3,21.4,34.7l17.4,23.8l17.4-23.8
		C80.8,68.7,89.5,55.6,89.5,40.4z"/>
	<circle class="st1" cx="50.7" cy="40" r="34.1"/>
	<path class="st2" d="M26.8,35.8c0,0-3.2,0.4-1.3,3.3c1.9,2.9,0.3,4.3,0.3,4.3s1.2,5.7,4.1-2.7s5.3,1.9,5.3,1.9s0.8,3,6.1-0.4
		c0,0,2.2,9.5,10.6,5.3c0,0,9.2,3.5,9.9-1.9c0,0,3,3.3,5,1.6c2-1.6,0,5.7,0,5.7s0.6,8,5.2-6.7c0,0-7.6-12.5-3.2-9.1
		c4.5,3.5,10.5,3.7,4.8-4.3c-5.6-8.1-9.2-2.4-9.2-2.4s-4.3,5-8.6,0.4s-3.7-7.4-5.6-6.2c-2,1.2,0.5,6.4,0.5,6.4s-6.1,4.3-8,0.5
		s4-9.8-4.6-5.1S32.9,18.6,26.8,35.8z"/>
</g>
</svg>
