<?xml version="1.0" encoding="utf-8"?>
<!-- Generator: Adobe Illustrator 22.0.1, SVG Export Plug-In . SVG Version: 6.00 Build 0)  -->
<svg version="1.1" id="Layer_1" xmlns="http://www.w3.org/2000/svg" xmlns:xlink="http://www.w3.org/1999/xlink" x="0px" y="0px"
	 viewBox="0 0 100 100" style="enable-background:new 0 0 100 100;" xml:space="preserve">
<style type="text/css">
	.st0{fill:#152D53;stroke:#0B1C48;stroke-miterlimit:10;}
	.st1{fill:#4AB85C;stroke:#207A2D;stroke-linecap:round;stroke-linejoin:round;stroke-miterlimit:10;}
</style>
<g>
	<circle class="st0" cx="50.2" cy="15" r="14.4"/>
	<path class="st0" d="M60.1,34.6H40.2c-5.5,0-9.9,4.5-9.9,9.9v24.3c0,4.8,3.8,9.3,8.2,9.9v15.4c0,2.7,2.1,4.8,4.8,4.8h11.3
		c2.7,0,4.8-2.1,4.8-4.8V78.8h0.3c5.5,0,9.9-4.5,9.9-9.9V44.5C70,39,65.6,34.6,60.1,34.6z"/>
</g>
<polygon class="st1" points="50,44.2 55.9,52.2 61.8,60.2 50,60.2 38.1,60.2 44.1,52.2 "/>
</svg>
