<?xml version="1.0" encoding="utf-8"?>
<!-- Generator: Adobe Illustrator 22.0.1, SVG Export Plug-In . SVG Version: 6.00 Build 0)  -->
<svg version="1.1" id="Capa_1" xmlns="http://www.w3.org/2000/svg" xmlns:xlink="http://www.w3.org/1999/xlink" x="0px" y="0px"
	 viewBox="0 0 57 57" style="enable-background:new 0 0 57 57;" xml:space="preserve">
<style type="text/css">
	.st0{fill:#FEEA0E;stroke:#F9CD16;stroke-width:2;stroke-miterlimit:10;}
	.st1{fill:#FEEA0E;stroke:#F9CD16;stroke-width:2;stroke-linecap:round;stroke-linejoin:round;stroke-miterlimit:10;}
	.st2{fill:#F9CD16;}
	.st3{fill:#62B74E;stroke:#44912A;stroke-width:2;stroke-miterlimit:10;}
	.st4{fill:#8ABC50;stroke:#B1D57A;stroke-width:2;stroke-miterlimit:10;}
	.st5{fill:#B1D57A;stroke:#B1D57A;stroke-width:2;stroke-miterlimit:10;}
</style>
<g>
	<path class="st0" d="M42.7,11C42.7,11,42.7,11,42.7,11c1.5-1.7,1.5-4,0.2-5.1c-1.2-1.1-3.2-0.8-4.6,0.5C30.1,1.2,17.5,6,10.1,17.3
		c-5.8,8.8-6.7,19.1-3,25.8c-0.2,0.1-0.3,0.3-0.5,0.4c-1.4,1.6-1.4,3.9-0.1,5c1.3,1.1,3.4,0.8,4.8-0.8c0,0,0.1,0.1,0.1,0.1
		c8.2,5.5,21,0.7,28.4-10.7C45.8,28.2,46.6,17.8,42.7,11z"/>
	<path class="st1" d="M12.6,20.1c0,0-7.6,13.3-1.9,19.9"/>
	<ellipse class="st2" cx="15.6" cy="17.3" rx="0.7" ry="0.8"/>
	<ellipse class="st2" cx="17.3" cy="20.1" rx="0.7" ry="0.8"/>
	<ellipse class="st2" cx="19.6" cy="17" rx="0.7" ry="0.8"/>
	<ellipse class="st2" cx="19.6" cy="13.8" rx="0.7" ry="0.8"/>
	<path class="st3" d="M37.7,25.1c-8,0-14.5,6.6-14.5,14.7c0,8.1,6.5,14.7,14.5,14.7c8,0,14.5-6.6,14.5-14.7
		C52.2,31.7,45.7,25.1,37.7,25.1z M46.6,48.8L46.6,48.8c-2.3,2.4-5.5,3.9-9,3.9c-3.6,0-6.9-1.5-9.1-4l0,0l0,0
		c-2.1-2.3-3.4-5.3-3.4-8.7c0-3.6,1.5-6.8,3.8-9.1l0,0l0,0c2.3-2.2,5.3-3.6,8.8-3.6c3.3,0,6.4,1.3,8.6,3.5l0,0l0,0
		c2.4,2.3,4,5.6,4,9.2C50.1,43.4,48.8,46.5,46.6,48.8L46.6,48.8z"/>
	<path class="st4" d="M38.3,38.7l7.9-8c-2.3-2.1-5.3-3.5-8.6-3.5v11.2C37.8,38.5,38,38.6,38.3,38.7z"/>
	<path class="st4" d="M37.5,38.5C37.5,38.5,37.5,38.5,37.5,38.5l0-11.2c-3.4,0-6.5,1.4-8.8,3.6l7.9,8C36.9,38.6,37.2,38.5,37.5,38.5
		z"/>
	<path class="st4" d="M39,39.9h11.1c0-3.6-1.5-6.9-4-9.2l-7.9,8C38.7,38.9,39,39.4,39,39.9z"/>
	<path class="st4" d="M36.7,38.8l-7.9-8c-2.4,2.3-3.8,5.5-3.8,9.1h11.1C36.1,39.5,36.3,39.1,36.7,38.8z"/>
	<path class="st4" d="M39,39.9c0,0.3-0.1,0.6-0.3,0.9l7.9,8c2.2-2.3,3.6-5.4,3.6-8.8H39z"/>
	<path class="st4" d="M37.5,41.4v11.2c3.5,0,6.7-1.5,9-3.9l-7.9-8C38.4,41.2,38,41.4,37.5,41.4z"/>
	<path class="st4" d="M36.1,39.9H25c0,3.4,1.3,6.4,3.4,8.7l7.9-8C36.2,40.5,36.1,40.2,36.1,39.9z"/>
	<path class="st4" d="M37.5,41.4c-0.5,0-1-0.3-1.2-0.7l-7.9,8c2.3,2.5,5.5,4,9.1,4L37.5,41.4C37.5,41.4,37.5,41.4,37.5,41.4z"/>
	<circle class="st5" cx="37.5" cy="40" r="1.1"/>
</g>
</svg>
