<?xml version="1.0" encoding="utf-8"?>
<!-- Generator: Adobe Illustrator 22.0.1, SVG Export Plug-In . SVG Version: 6.00 Build 0)  -->
<svg version="1.1" id="Layer_1" xmlns="http://www.w3.org/2000/svg" xmlns:xlink="http://www.w3.org/1999/xlink" x="0px" y="0px"
	 viewBox="0 0 100 100" style="enable-background:new 0 0 100 100;" xml:space="preserve">
<style type="text/css">
	.st0{fill:none;stroke:#FFFFFF;stroke-width:2;stroke-miterlimit:10;}
	.st1{fill:none;stroke:#FFFFFF;stroke-width:2;stroke-linecap:round;stroke-linejoin:round;stroke-miterlimit:10;}
	.st2{fill:#FFFFFF;}
	.st3{fill:#FFFFFF;stroke:#FFFFFF;stroke-width:2;stroke-miterlimit:10;}
	.st4{fill:#F05127;stroke:#FFFFFF;stroke-width:2;stroke-miterlimit:10;}
</style>
<g>
	<g>
		<path class="st0" d="M77.9,14.4c0-0.1,0.1-0.1,0.2-0.1c2.7-3.2,2.8-7.6,0.2-9.8c-2.4-2.1-6.3-1.6-9,1C53.1-4.8,28.5,4.5,13.9,26.5
			c-11.4,17.2-13.2,37-6,50.1c-0.3,0.3-0.6,0.5-0.9,0.9c-2.7,3.2-2.8,7.6-0.2,9.8c2.5,2.2,6.7,1.5,9.5-1.5c0.1,0.1,0.2,0.1,0.3,0.2
			c16.1,10.7,41.1,1.4,55.8-20.8C83.9,47.7,85.6,27.4,77.9,14.4z"/>
		<path class="st1" d="M18.9,32c0,0-15,25.8-3.6,38.6"/>
		<circle class="st2" cx="24.8" cy="26.6" r="1.5"/>
		<circle class="st2" cx="28" cy="32" r="1.5"/>
		<circle class="st2" cx="32.7" cy="25.9" r="1.5"/>
		<circle class="st2" cx="32.7" cy="19.7" r="1.5"/>
	</g>
	<g>
		<path class="st3" d="M68.1,41.7c-15.7,0-28.5,12.8-28.5,28.5c0,15.7,12.8,28.5,28.5,28.5c15.7,0,28.5-12.8,28.5-28.5
			C96.6,54.5,83.8,41.7,68.1,41.7z M85.5,87.7L85.5,87.7c-4.5,4.6-10.8,7.5-17.7,7.5c-7.1,0-13.4-3-17.9-7.8l0,0l0,0
			c-4.2-4.4-6.7-10.4-6.7-16.9c0-7,2.9-13.2,7.5-17.7l0,0l0,0c4.4-4.3,10.5-7,17.2-7c6.5,0,12.5,2.6,16.9,6.7l0,0l0,0
			c4.8,4.5,7.8,10.9,7.8,17.9C92.5,77.2,89.8,83.2,85.5,87.7L85.5,87.7z"/>
		<path class="st4" d="M69.2,68.1l15.5-15.5c-4.4-4.2-10.4-6.7-16.9-6.7v21.8C68.3,67.7,68.8,67.8,69.2,68.1z"/>
		<path class="st4" d="M67.8,67.7C67.8,67.7,67.8,67.7,67.8,67.7l0-21.8c-6.7,0-12.7,2.7-17.2,7l15.5,15.5
			C66.6,67.9,67.1,67.7,67.8,67.7z"/>
		<path class="st4" d="M70.6,70.5h21.8c0-7.1-3-13.4-7.8-17.9L69.2,68.1C70,68.6,70.6,69.5,70.6,70.5z"/>
		<path class="st4" d="M66.1,68.3L50.6,52.8c-4.6,4.5-7.5,10.8-7.5,17.7H65C65,69.6,65.4,68.8,66.1,68.3z"/>
		<path class="st4" d="M70.6,70.5c0,0.6-0.2,1.2-0.6,1.7l15.5,15.5c4.3-4.4,7-10.5,7-17.2H70.6z"/>
		<path class="st4" d="M67.8,73.3v21.8c7,0,13.2-2.9,17.7-7.5L70,72.2C69.5,72.9,68.7,73.3,67.8,73.3z"/>
		<path class="st4" d="M65,70.5H43.1c0,6.5,2.6,12.5,6.7,16.9l15.5-15.5C65.1,71.5,65,71,65,70.5z"/>
		<path class="st4" d="M67.8,73.3c-1.1,0-2-0.6-2.4-1.4L49.8,87.4c4.5,4.8,10.9,7.8,17.9,7.8L67.8,73.3
			C67.8,73.3,67.8,73.3,67.8,73.3z"/>
		<path class="st3" d="M67.8,69.5v-1.8c0,0,0,0,0,0c-0.6,0-1.2,0.2-1.7,0.6l1.5,1.5L67.8,69.5z"/>
		<polygon class="st3" points="67.8,70 67.8,69.5 67.5,69.7 		"/>
		<polygon class="st3" points="66.7,70.5 67.8,70.5 67.8,70 67.5,69.7 		"/>
		<path class="st3" d="M69.2,68.1c-0.4-0.2-0.9-0.4-1.4-0.4v1.8L69.2,68.1z"/>
		<polygon class="st3" points="68.3,70.5 67.8,70 67.8,70.5 		"/>
		<path class="st3" d="M70,72.2c0.4-0.5,0.6-1.1,0.6-1.7h-2.3L70,72.2z"/>
		<path class="st3" d="M67.8,70.5v2.8c0.9,0,1.7-0.4,2.2-1.1l-1.7-1.7H67.8z"/>
		<path class="st3" d="M69.2,68.1l-1.4,1.4V70l0.5,0.5h2.3C70.6,69.5,70,68.6,69.2,68.1z"/>
		<path class="st3" d="M67.5,69.7l-1.5-1.5c-0.7,0.5-1.1,1.3-1.1,2.3h1.8L67.5,69.7z"/>
		<path class="st3" d="M66.7,70.5l-1.4,1.4c0.5,0.8,1.4,1.4,2.4,1.4c0,0,0,0,0,0v-2.8H66.7z"/>
		<path class="st3" d="M65,70.5c0,0.5,0.1,1,0.4,1.4l1.4-1.4H65z"/>
	</g>
</g>
</svg>
