<?xml version="1.0" encoding="utf-8"?>
<!-- Generator: Adobe Illustrator 22.0.1, SVG Export Plug-In . SVG Version: 6.00 Build 0)  -->
<svg version="1.1" id="Layer_1" xmlns="http://www.w3.org/2000/svg" xmlns:xlink="http://www.w3.org/1999/xlink" x="0px" y="0px"
	 viewBox="0 0 100 100" style="enable-background:new 0 0 100 100;" xml:space="preserve">
<style type="text/css">
	.st0{fill:#FFFFFF;stroke:#66AAD7;stroke-width:2;stroke-miterlimit:10;}
	.st1{fill:#FFFFFF;stroke:#0071BC;stroke-miterlimit:10;}
	.st2{fill:#0071BC;stroke:#0071BC;stroke-miterlimit:10;}
	.st3{fill:#0071BC;stroke:#0071BC;stroke-width:5;stroke-linecap:round;stroke-linejoin:round;stroke-miterlimit:10;}
</style>
<g>
	<path class="st0" d="M59.4,58.9V11.3c0-5.1-4.1-9.2-9.2-9.2c-5.1,0-9.2,4.1-9.2,9.2V59C34,62.4,29.3,69.4,29.3,77.5
		c0,11.5,9.3,20.9,20.9,20.9S71,89.1,71,77.5C71,69.4,66.3,62.3,59.4,58.9z"/>
	<g>
		<path class="st1" d="M68.5,18.5h-5.1c-0.1,0-0.1-0.1-0.1-0.1v-0.7c0-0.1,0.1-0.1,0.1-0.1h5.1c0.1,0,0.1,0.1,0.1,0.1L68.5,18.5
			C68.6,18.4,68.5,18.5,68.5,18.5z"/>
		<path class="st1" d="M68.5,29.2h-5.1c-0.1,0-0.1-0.1-0.1-0.1v-0.7c0-0.1,0.1-0.1,0.1-0.1h5.1c0.1,0,0.1,0.1,0.1,0.1L68.5,29.2
			C68.6,29.1,68.5,29.2,68.5,29.2z"/>
		<path class="st1" d="M68.5,50.6h-5.1c-0.1,0-0.1-0.1-0.1-0.1v-0.7c0-0.1,0.1-0.1,0.1-0.1h5.1c0.1,0,0.1,0.1,0.1,0.1L68.5,50.6
			C68.6,50.6,68.5,50.6,68.5,50.6z"/>
		<path class="st1" d="M68.5,40h-5.1c-0.1,0-0.1-0.1-0.1-0.1v-0.7c0-0.1,0.1-0.1,0.1-0.1h5.1c0.1,0,0.1,0.1,0.1,0.1L68.5,40
			C68.6,39.9,68.5,40,68.5,40z"/>
	</g>
	<circle class="st2" cx="50.2" cy="77.1" r="15.2"/>
	<line class="st3" x1="50.2" y1="52.8" x2="50.2" y2="77.7"/>
</g>
</svg>
