<?xml version="1.0" encoding="utf-8"?>
<!-- Generator: Adobe Illustrator 22.0.1, SVG Export Plug-In . SVG Version: 6.00 Build 0)  -->
<svg version="1.1" id="Layer_1" xmlns="http://www.w3.org/2000/svg" xmlns:xlink="http://www.w3.org/1999/xlink" x="0px" y="0px"
	 viewBox="0 0 100 100" style="enable-background:new 0 0 100 100;" xml:space="preserve">
<style type="text/css">
	.st0{fill:none;stroke:#FFFFFF;stroke-width:2;stroke-miterlimit:10;}
	.st1{fill:#FFFFFF;stroke:#FFFFFF;stroke-miterlimit:10;}
	.st2{fill:#FFFFFF;}
</style>
<path class="st0" d="M75.9,58.8V10.5c0-5.2-4.2-9.4-9.4-9.4s-9.4,4.2-9.4,9.4v48.4c-7,3.5-11.8,10.6-11.8,18.9
	c0,11.7,9.5,21.2,21.2,21.2s21.2-9.5,21.2-21.2C87.7,69.5,82.9,62.3,75.9,58.8z"/>
<path class="st1" d="M83.2,28.7H78c-0.1,0-0.1-0.1-0.1-0.1v-0.7c0-0.1,0.1-0.1,0.1-0.1h5.2c0.1,0,0.1,0.1,0.1,0.1v0.7
	C83.3,28.6,83.2,28.7,83.2,28.7z"/>
<path class="st1" d="M83.2,39.6H78c-0.1,0-0.1-0.1-0.1-0.1v-0.7c0-0.1,0.1-0.1,0.1-0.1h5.2c0.1,0,0.1,0.1,0.1,0.1L83.2,39.6
	C83.3,39.5,83.2,39.6,83.2,39.6z"/>
<path class="st1" d="M83.2,17.8H78c-0.1,0-0.1-0.1-0.1-0.1V17c0-0.1,0.1-0.1,0.1-0.1h5.2c0.1,0,0.1,0.1,0.1,0.1L83.2,17.8
	C83.3,17.7,83.2,17.8,83.2,17.8z"/>
<path class="st1" d="M83.2,50.4H78c-0.1,0-0.1-0.1-0.1-0.1v-0.7c0-0.1,0.1-0.1,0.1-0.1h5.2c0.1,0,0.1,0.1,0.1,0.1L83.2,50.4
	C83.3,50.4,83.2,50.4,83.2,50.4z"/>
<circle class="st2" cx="66.5" cy="77.3" r="15.5"/>
<g>
	<g>
		<polyline class="st0" points="27.4,39.8 36.1,24.7 21.4,16 		"/>
		<polyline class="st0" points="37.7,37.9 33.1,21.2 16.6,25.4 		"/>
		<polyline class="st0" points="43.7,29.3 28.6,20.7 19.8,35.3 		"/>
		<polyline class="st0" points="41.7,19 25,23.6 29.2,40.1 		"/>
		<polyline class="st0" points="33.1,13.1 24.5,28.2 39.1,36.9 		"/>
		<polyline class="st0" points="22.8,15 27.4,31.8 43.9,27.6 		"/>
		<polyline class="st0" points="16.9,23.6 32,32.2 40.7,17.6 		"/>
		<polyline class="st0" points="18.8,33.9 35.6,29.3 31.4,12.8 		"/>
		<polyline class="st0" points="27.4,39.8 36.1,24.7 21.4,16 		"/>
	</g>
	<polygon class="st0" points="41.1,23.7 45.3,16.6 42.4,17.4 43.9,14.8 36,16.8 34,8.9 32.5,11.5 31.7,8.6 27.5,15.6 20.5,11.4 
		21.3,14.3 18.6,12.8 20.7,20.7 12.7,22.8 15.3,24.3 12.4,25 19.4,29.2 15.2,36.3 18.1,35.5 16.6,38.1 24.5,36.1 26.6,44 28.1,41.4 
		28.8,44.4 33,37.3 40.1,41.5 39.3,38.6 41.9,40.1 39.9,32.2 47.8,30.1 45.2,28.6 48.2,27.9 	"/>
</g>
<path class="st2" d="M66.6,49.5L66.6,49.5c1.1,0,1.9,0.4,1.9,0.8v23.2c0,0.5-0.9,0.8-1.9,0.8l0,0c-1.1,0-1.9-0.4-1.9-0.8V50.3
	C64.7,49.9,65.5,49.5,66.6,49.5z"/>
</svg>
