<?xml version="1.0" encoding="utf-8"?>
<!-- Generator: Adobe Illustrator 22.1.0, SVG Export Plug-In . SVG Version: 6.00 Build 0)  -->
<svg version="1.1" id="Layer_1" xmlns="http://www.w3.org/2000/svg" xmlns:xlink="http://www.w3.org/1999/xlink" x="0px" y="0px"
	 viewBox="0 0 100 100" style="enable-background:new 0 0 100 100;" xml:space="preserve">
<style type="text/css">
	.st0{fill:none;stroke:#FFFFFF;stroke-width:2;stroke-linecap:round;stroke-linejoin:round;stroke-miterlimit:10;}
	.st1{fill:#FFFFFF;}
	.st2{fill:none;stroke:#FFFFFF;stroke-width:2;stroke-miterlimit:10;}
</style>
<path class="st0" d="M72.8,63.7h4.3c0,0,5.9,0.7,5.9-6V35.6"/>
<path class="st1" d="M72.6,20.9h3.7v-8h4.3v7.9h4.6v-8h4.9v8.1h3.4v7.5c0,0,0.9,8.1-8,7.5h-7.2c0,0-5.5-0.1-5.6-5.4v-9.6H72.6z"/>
<path class="st2" d="M22.4,87.2H14c-1,0-1.8-0.8-1.8-1.8v-5.4c0-1,0.8-1.8,1.8-1.8h8.4c1,0,1.8,0.8,1.8,1.8v5.4
	C24.3,86.4,23.5,87.2,22.4,87.2z"/>
<path class="st2" d="M63.6,87.2h-8.4c-1,0-1.8-0.8-1.8-1.8v-5.4c0-1,0.8-1.8,1.8-1.8h8.4c1,0,1.8,0.8,1.8,1.8v5.4
	C65.4,86.4,64.6,87.2,63.6,87.2z"/>
<path class="st2" d="M13.8,51.4l5.3-15c0,0,1.4-2.8,3.8-2.5h30.4c0,0,5.8-0.7,6.7,3.1l5.2,14.5H13.8z"/>
<path class="st2" d="M68.5,78.1h-58c-2.2,0-4-1.8-4-4V55.4c0-2.2,1.8-4,4-4h58c2.2,0,4,1.8,4,4v18.6C72.5,76.2,70.7,78.1,68.5,78.1z
	"/>
<circle class="st2" cx="18.4" cy="66.4" r="5.2"/>
<circle class="st2" cx="59.4" cy="66.4" r="5.2"/>
</svg>
