<?xml version="1.0" encoding="utf-8"?>
<!-- Generator: Adobe Illustrator 22.1.0, SVG Export Plug-In . SVG Version: 6.00 Build 0)  -->
<svg version="1.1" id="Layer_1" xmlns="http://www.w3.org/2000/svg" xmlns:xlink="http://www.w3.org/1999/xlink" x="0px" y="0px"
	 viewBox="0 0 100 100" style="enable-background:new 0 0 100 100;" xml:space="preserve">
<style type="text/css">
	.st0{fill:#FFFFFF;}
	.st1{fill:none;stroke:#FFFFFF;stroke-width:3;stroke-linecap:round;stroke-linejoin:round;stroke-miterlimit:10;}
	.st2{fill:none;stroke:#FFFFFF;stroke-width:2;stroke-linecap:round;stroke-linejoin:round;stroke-miterlimit:10;}
	.st3{fill:#4AB85C;}
</style>
<path class="st0" d="M0.4,81.1V58.5c0,0-0.1-10.4,9.2-10.4l59.9,0.1c0,0,9.7-1.3,9.6,10.4l-0.1,22.8L0.4,81.1z"/>
<polyline class="st1" points="13.3,48 18.3,25.9 60.4,25.9 65.3,48.1 "/>
<path class="st2" d="M79,65.6h4.3c0,0,5.9,0.7,5.9-6V37.5"/>
<path class="st0" d="M78.8,22.8h3.7v-8h4.3v7.9h4.6v-8h4.9v8.1h3.4v7.5c0,0,0.9,8.1-8,7.5h-7.2c0,0-5.5-0.1-5.6-5.4V22.8z"/>
<circle class="st3" cx="13.1" cy="65.4" r="3.7"/>
<circle class="st3" cx="66.3" cy="65.4" r="3.7"/>
<rect x="24.7" y="63.1" class="st3" width="30.2" height="4.5"/>
<polygon class="st0" points="7.3,79.9 7.3,89.5 18.9,89.5 18.9,80 "/>
<polygon class="st0" points="60.5,79.9 60.5,89.5 72.1,89.5 72.1,80 "/>
</svg>
