<?xml version="1.0" encoding="utf-8"?>
<!-- Generator: Adobe Illustrator 22.1.0, SVG Export Plug-In . SVG Version: 6.00 Build 0)  -->
<svg version="1.1" id="Layer_1" xmlns="http://www.w3.org/2000/svg" xmlns:xlink="http://www.w3.org/1999/xlink" x="0px" y="0px"
	 viewBox="0 0 60 60" style="enable-background:new 0 0 60 60;" xml:space="preserve">
<style type="text/css">
	.st0{fill:#939598;stroke:#6D6E71;stroke-width:0.25;stroke-miterlimit:10;}
	.st1{fill:#C2C1C0;}
	.st2{fill:#F7941D;stroke:#EC8B23;stroke-width:0.25;stroke-miterlimit:10;}
</style>
<path class="st0" d="M28.4,57.6c0,0,4.4-7.8,8.1-15.2c1.8-3.6,3.4-7.2,4.3-9.7h6.5c0,0,7.7,19.2,12.2,25.3H28.3L28.4,57.6z"/>
<circle class="st1" cx="25.3" cy="17.3" r="3.6"/>
<circle class="st1" cx="25.1" cy="9.7" r="7.8"/>
<circle class="st1" cx="31.9" cy="7.6" r="5.9"/>
<circle class="st1" cx="39" cy="5.6" r="3.5"/>
<circle class="st1" cx="43.6" cy="4.9" r="2.5"/>
<circle class="st1" cx="44.1" cy="31.9" r="2.4"/>
<circle class="st1" cx="43.9" cy="26.9" r="5.1"/>
<path class="st2" d="M36.7,42.3c0,0,1.3,0.6,2.3-1.3l1.3-2.3c0,0,0.9-1.9,1.3,0.1c0,0,0.2,1,0.1,3.1c0,0-0.1,3.4,1.6,0.2
	c0,0,0.3-1,0.4-1.9c0,0,0.3-2.6,1.3-0.2c0,0,0.4,1.4,0.6,2.6c0,0,0.5,2.6,0.6,2.9c0,0,0.4,2.9,1.4,0.2c0,0,0.4-1.3,0.2-2.9
	c0,0-0.2-2.2-0.1-2.5c0,0,0-2.2,0.9-0.3l2.3,5c0,0,2.4,5.2,3.9,4.4l-7.3-16.9h-6.6L36.7,42.3z"/>
<circle class="st1" cx="48.4" cy="25.5" r="3.9"/>
<circle class="st1" cx="53.1" cy="24.1" r="2.3"/>
<circle class="st1" cx="56.2" cy="23.7" r="1.6"/>
<path class="st0" d="M1.1,57.4c0,0,6.7-12,12.4-23.5c2.8-5.6,5.3-11.1,6.7-15h10c0,0,11.8,29.5,18.8,39H0.9L1.1,57.4z"/>
<path class="st2" d="M13,34.9c0,0,2.1,1,3.7-2.1l2.1-3.7c0,0,1.5-3.1,2.2,0.1c0,0,0.3,1.6,0.2,5.1c0,0-0.1,5.5,2.6,0.3
	c0,0,0.5-1.6,0.7-3c0,0,0.5-4.3,2.1-0.4c0,0,0.6,2.2,1,4.2c0,0,0.8,4.2,0.9,4.8c0,0,0.7,4.8,2.3,0.3c0,0,0.6-2.1,0.3-4.8
	c0,0-0.3-3.6-0.2-4.1c0,0,0.1-3.5,1.5-0.4l3.8,8.1c0,0,3.9,8.5,6.4,7.2l-12-27.6H19.8L13,34.9z"/>
</svg>
