<?xml version="1.0" encoding="utf-8"?>
<!-- Generator: Adobe Illustrator 22.0.1, SVG Export Plug-In . SVG Version: 6.00 Build 0)  -->
<svg version="1.1" id="Layer_1" xmlns="http://www.w3.org/2000/svg" xmlns:xlink="http://www.w3.org/1999/xlink" x="0px" y="0px"
	 viewBox="0 0 100 100" style="enable-background:new 0 0 100 100;" xml:space="preserve">
<style type="text/css">
	.st0{fill:none;stroke:#FFFFFF;stroke-width:2;stroke-linecap:round;stroke-linejoin:round;stroke-miterlimit:10;}
	.st1{fill:#00B8A6;stroke:#FFFFFF;stroke-width:2;stroke-linecap:round;stroke-linejoin:round;stroke-miterlimit:10;}
	.st2{fill:#FFFFFF;stroke:#FFFFFF;stroke-width:2;stroke-miterlimit:10;}
</style>
<g>
	<path class="st0" d="M72.3,20.4c4,6.5,9.6,1.1,9.6,1.1c2.7,2.9,5.2,2.5,5.2,2.5c7-2.9,4.5-7.6,4.5-7.6L77.9,7.6L76.6,1
		c0,0-3.2,0.8-4.4,5.1c0,0-11.1,2.6-9.8,14.2c1.2,11.6,0.7,13.3,0.7,13.3s-1.9,4.5-6.1,5.9c0,0-15.2-5.1-25.6,0.7
		s-3.6,22.5-3.6,22.5s-0.5,17.4-6.1,20.2c0,0-4.2,5.8,0,15.5h8.6c0,0-2.1-5.1-5.4-6.2S27.2,82,27.2,82s3.5-9.2,7.7-9.6
		S47.7,63.3,47.8,57"/>
	<path class="st0" d="M77,23.5c0,0,5.5,23.7,3.9,27.1c0,0,10.8-4.9,13.8,5.3c3,10.1-6.2,19.5-8.8,20.7l-0.2-8.8c0,0,0.6-3.6,3.4-2.8
		c0,0,2.1-8.8-2.8-8s-9.1,5.1-9.1,5.1s-10.8,6.8-30.5-0.4"/>
	<path class="st1" d="M31.5,40.3c0,0-6.5-5.8-16.3,2.1c0,0-7.8,7.4-4.4,20.9S5.2,73.6,5.2,73.6s10.1,6.7,13.1-5.3S18.4,42,31.5,40.3
		z"/>
	<path class="st0" d="M53.3,63.8c0,0-5,10.1-9.9,14.7s1.5,13.4,1.5,13.4s7.5,5.4,5.2,6.6c-2.2,1.2-9.2,0-9.2,0S35.3,89,36,80.8
		c0,0,5.7-10.4,4-11.2"/>
	<path class="st0" d="M64.3,65c0,0-4.9,14.9-2.6,19.2s2.6,14.3,2.6,14.3h8.8c0,0-0.9-6.6-4.5-6.9C65.1,91.4,70,64,75.3,63"/>
	<path class="st1" d="M72.3,6.1c0,0-14.5-2.1-16.3,15.8s-0.7,25.2,3.4,26.3c0,0-3.1-13.8,3.9-14.6C70.2,32.9,72.3,6.1,72.3,6.1z"/>
	<path class="st2" d="M72.5,5.2c0,0,3,7.5,11,2.5C83.5,7.7,81.5,3.9,72.5,5.2z"/>
	<ellipse class="st2" cx="77.2" cy="13.5" rx="0.9" ry="1"/>
	<line class="st0" x1="20.1" y1="92.9" x2="26" y2="92.8"/>
	<line class="st0" x1="38.5" y1="93.5" x2="48.1" y2="94.5"/>
	<line class="st0" x1="63.7" y1="91.7" x2="69.6" y2="91.9"/>
	<line class="st0" x1="89.2" y1="63.9" x2="92.5" y2="69.3"/>
</g>
</svg>
