<?xml version="1.0" encoding="utf-8"?>
<!-- Generator: Adobe Illustrator 22.0.1, SVG Export Plug-In . SVG Version: 6.00 Build 0)  -->
<svg version="1.1" xmlns="http://www.w3.org/2000/svg" xmlns:xlink="http://www.w3.org/1999/xlink" x="0px" y="0px"
	 viewBox="0 0 100 100" style="enable-background:new 0 0 100 100;" xml:space="preserve">
<style type="text/css">
	.st0{fill:none;stroke:#FFFFFF;stroke-width:2;stroke-linecap:round;stroke-linejoin:round;stroke-miterlimit:10;}
	.st1{fill:#FFFFFF;stroke:#FFFFFF;stroke-miterlimit:10;}
</style>
<g id="Layer_1">
</g>
<g id="Layer_2">
	<g>
		<path class="st0" d="M86.9,85.6c-13.6-1.1-0.6-17.8,2.3-21.3c0.5-0.6,0.9-1.2,1.2-1.8c1.7-3.4,5.3-13.5-4.3-22.2l0,0
			c3.9-3.5,6.3-8.5,6.3-14.1c0-1.9-0.3-3.8-0.8-5.6l4.7-15.3c0.5-1.7-1.2-3.1-2.8-2.4L80.9,8.7c-2.3-1-4.9-1.6-7.7-1.6
			c-2.8,0-5.4,0.6-7.8,1.7L53.8,3.3c-1.6-0.7-3.3,0.7-2.8,2.4l4.3,13.9c-0.7,2-1.2,4.2-1.2,6.5c0,5.1,2,9.7,5.3,13.2l0,0
			c0,0-30.2,11.8-25.3,47c0,0-18.9,1.1-21.2-12c-2.3-13-6.5-62.3,18.7-51.3c0.2,0.1,0.3,0.1,0.5,0.1c1.7,0.3,11.9,1.5,6.2-5
			c-5.3-6-14-7.5-21.2-4.1c-7.8,3.7-16,12.1-15.3,31.1c1.4,33.9-3,43.7,19.9,51.8c1.8,0.6,3.7,1,5.6,1c10.6,0,49.4,0,61.9,0
			c3,0,5.6-2,6.3-4.9C96.2,89.9,95.2,86.3,86.9,85.6z"/>
		<path class="st0" d="M47.6,65.5c0,0,18.6-4.2,16.8,21.4c0,0,15.2-1.1,8.3,11.1"/>
		<path class="st0" d="M86.1,40.3c-10,4.9-26.6-1-26.6-1l-2,0.8c0,0,12.7,9.9,30.5,2.1L86.1,40.3z"/>
		<circle class="st0" cx="74.4" cy="48.7" r="3.6"/>
		<circle class="st1" cx="79.4" cy="21.3" r="2"/>
		<circle class="st1" cx="67" cy="21.3" r="2"/>
		<path class="st1" d="M75.5,29.8h-3.3c-0.6,0-1.1-0.5-1.1-1.1v-1.3c0-0.6,0.5-1.1,1.1-1.1h3.3c0.6,0,1.1,0.5,1.1,1.1v1.3
			C76.6,29.4,76.1,29.8,75.5,29.8z"/>
		<path class="st0" d="M73.9,28v5.4c0,0-3.7,2.9-6.2-1.3"/>
		<path class="st0" d="M73.5,28.1v5.4c0,0,3.7,2.9,6.2-1.3"/>
	</g>
</g>
</svg>
