<?xml version="1.0" encoding="utf-8"?>
<!-- Generator: Adobe Illustrator 22.0.1, SVG Export Plug-In . SVG Version: 6.00 Build 0)  -->
<svg version="1.1" id="Layer_1" xmlns="http://www.w3.org/2000/svg" xmlns:xlink="http://www.w3.org/1999/xlink" x="0px" y="0px"
	 viewBox="0 0 100 100" style="enable-background:new 0 0 100 100;" xml:space="preserve">
<style type="text/css">
	.st0{fill:#CD9648;stroke:#7D5D1B;stroke-linecap:round;stroke-linejoin:round;stroke-miterlimit:10;}
	.st1{fill:none;stroke:#7D5D1B;stroke-linecap:round;stroke-linejoin:round;stroke-miterlimit:10;}
	.st2{fill:#FFFFFF;stroke:#7D5D1B;stroke-linecap:round;stroke-linejoin:round;stroke-miterlimit:10;}
	.st3{fill:#CD9648;}
</style>
<path class="st0" d="M98.1,16c-0.1-0.9-0.8-1.7-1.7-1.9c-3.3-0.8-11.3-2.6-15.6-1.7c-5.4,1.1-6.6-1.8-6.6-1.8s-2.2-3.8-3.3,2.5
	c-0.3,1.9,3.2,4.2,5.2,5.3c0.8,0.4,0.2,3.3-0.6,6c-0.5,1.9-1.2,3.7-1.5,4.7c-0.2,0.4-0.5,0.8-0.9,1.1l-2.3,1.6
	c-1.1,0.7-2.5,0.4-3.2-0.7L65.7,28l-3.6-6c0-0.1-0.1-0.2-0.1-0.2c-7-16-13.8-3-15.3,0.2c-0.2,0.5-0.6,0.8-1,1.1
	c-5.5,2.9-6.5-0.4-6.5-0.4C33.1,6.8,24.7,20,23.5,22.2c-0.1,0.2-0.2,0.4-0.2,0.6c-0.8,2.9-5.8,7.5-6.5,8c0,0-0.1,0.1-0.1,0.1
	c-12.5,12.9-5.1,20.3-3.4,21.7c0.2,0.2,0.4,0.4,0.6,0.7c0.8,1.6,3,7-0.6,12.2c-4.3,6.2,1.3,10.5,0.4,12.5c-0.6,1.4-0.4,6.1-0.2,8.8
	c0.1,1.1,0.9,1.9,2,2.1c3,0.3,8.9,0.7,11.6-1.2c3.7-2.6-5.2-5.1-7.2-6.2c-1.7-1-1.8-11-1.8-13.6c0-0.4,0.1-0.8,0.4-1.2l5.1-8
	c0.7-1.1,2.1-1.4,3.2-0.7c11.7,8.2,26.2,1.1,26.2,1.1l0.1-0.1c0.3,4.6,1.3,10.4,3.6,13.4c0.4,0.5,0.5,1.1,0.3,1.7
	c-1.3,4-0.5,10.2,0,13.3c0.2,1.1,1.1,1.9,2.2,1.9h9.7c0.8,0,1.5-0.4,1.9-1.1c2.6-4.4-7.1-4.6-7.1-4.6c-2.2-0.3,0-10.5,0-10.5h-0.1
	c3.9-2.6,6.2-8.5,7-11c0.2-0.7,0.8-1.3,1.6-1.5c18.3-5,16.9-19.4,16.6-21.3c0-0.1,0-0.2-0.1-0.3c-0.5-1.4-4-13.2,3.7-13.4
	C98.6,25.3,98.5,19,98.1,16z"/>
<g>
	<path class="st1" d="M9.6,41.8c0,0-7,3.2-5,12.9c0,0-3.9,3.5-3.9,5.4"/>
	<path class="st1" d="M1.9,63.1c-0.2-2.9,2.7-8.4,2.7-8.4v10.4"/>
	<path class="st1" d="M5.2,56.3c0,0,3.1,4.8,2.4,6.1"/>
	<path class="st1" d="M4.6,54.7c0,0,5.2,1.8,5,3.2"/>
</g>
<path class="st1" d="M96.7,23.7c0,0-6.4,0.4-7.5-2.7"/>
<circle class="st2" cx="83.7" cy="16.8" r="0.6"/>
<ellipse transform="matrix(0.1835 -0.983 0.983 0.1835 -23.3346 119.1275)" class="st3" cx="60" cy="73.6" rx="6.8" ry="2.3"/>
</svg>
