<?xml version="1.0" encoding="utf-8"?>
<!-- Generator: Adobe Illustrator 22.1.0, SVG Export Plug-In . SVG Version: 6.00 Build 0)  -->
<svg version="1.1" id="Layer_1" xmlns="http://www.w3.org/2000/svg" xmlns:xlink="http://www.w3.org/1999/xlink" x="0px" y="0px"
	 viewBox="0 0 100 100" style="enable-background:new 0 0 100 100;" xml:space="preserve">
<style type="text/css">
	.st0{fill:none;stroke:#7655FF;stroke-width:2;stroke-linecap:round;stroke-linejoin:round;stroke-miterlimit:10;}
	.st1{fill:none;stroke:#FFFFFF;stroke-width:2;stroke-miterlimit:10;}
	.st2{fill:none;stroke:#FFFFFF;stroke-width:2;stroke-linecap:round;stroke-miterlimit:10;}
</style>
<path class="st0" d="M147.2,89.8"/>
<circle class="st1" cx="49.7" cy="25.5" r="8.7"/>
<path class="st1" d="M60.5,28.3"/>
<line class="st2" x1="49.9" y1="5.1" x2="49.9" y2="12.6"/>
<line class="st2" x1="58.9" y1="7.2" x2="55.6" y2="13.9"/>
<line class="st2" x1="66" y1="13" x2="60.1" y2="17.6"/>
<line class="st2" x1="69.9" y1="21.3" x2="62.6" y2="22.7"/>
<line class="st2" x1="69.7" y1="30.4" x2="62.5" y2="28.6"/>
<line class="st2" x1="65.7" y1="38.5" x2="59.9" y2="33.8"/>
<line class="st2" x1="58.4" y1="44" x2="55.3" y2="37.3"/>
<line class="st2" x1="49.5" y1="45.8" x2="49.7" y2="38.5"/>
<line class="st2" x1="40.6" y1="43.6" x2="44" y2="37"/>
<line class="st2" x1="33.7" y1="37.7" x2="39.6" y2="33.3"/>
<line class="st2" x1="30" y1="29.4" x2="37.3" y2="27.9"/>
<line class="st2" x1="30.3" y1="20.2" x2="37.4" y2="22.2"/>
<line class="st2" x1="34.5" y1="12.2" x2="40.2" y2="17.1"/>
<line class="st2" x1="41.9" y1="6.8" x2="44.9" y2="13.6"/>
<circle class="st1" cx="19.8" cy="65" r="12.4"/>
<circle class="st1" cx="50" cy="65" r="12.4"/>
<circle class="st1" cx="80.2" cy="65" r="12.4"/>
<circle class="st1" cx="34.5" cy="77.4" r="12.4"/>
<circle class="st1" cx="64.7" cy="77.4" r="12.4"/>
</svg>
