<?xml version="1.0" encoding="utf-8"?>
<!-- Generator: Adobe Illustrator 22.1.0, SVG Export Plug-In . SVG Version: 6.00 Build 0)  -->
<svg version="1.1" id="Layer_1" xmlns="http://www.w3.org/2000/svg" xmlns:xlink="http://www.w3.org/1999/xlink" x="0px" y="0px"
	 viewBox="0 0 100 100" style="enable-background:new 0 0 100 100;" xml:space="preserve">
<style type="text/css">
	.st0{fill:none;stroke:#FFFFFF;stroke-width:2;stroke-linecap:round;stroke-linejoin:round;stroke-miterlimit:10;}
	.st1{fill:none;stroke:#FFFFFF;stroke-miterlimit:10;}
	.st2{fill:#FFFFFF;stroke:#FFFFFF;stroke-miterlimit:10;}
	.st3{fill:#6AFF84;stroke:#FFFFFF;stroke-miterlimit:10;}
	.st4{fill:#FFFFFF;}
</style>
<path class="st0" d="M156.4,111.9c0,0,0.6-5.4,8.7-5.4h29c0,0,8.8-0.5,8.8,5.4H156.4z"/>
<path class="st0" d="M158.4,75.7c0,0-9.8-2.6-15.7-10.7c0,0-4.8-6.8-3.1-13.3c0,0,1.3-3.3,5.2-3.2c0,0,5-0.6,5.6,4.3
	c0,0-1.3,7.8,3.8,7.1c0,0-2.1-14.9-1.3-15.3c0,0-9.5-5.8-17.3,1.9c0,0-6.1,8.1-0.6,16.4c0,0,9.1,18.3,28.5,20.2
	C163.6,83,158.5,77.3,158.4,75.7z"/>
<path class="st0" d="M200.5,76.3c0,0,10.2-2.7,16.2-11c0,0,5-7,3.2-13.7c0,0-1.4-3.4-5.4-3.3c0,0-5.2-0.6-5.8,4.5c0,0,1.4,8-4,7.3
	c0,0,2.1-15.3,1.3-15.8c0,0,9.9-5.9,17.9,2c0,0,6.3,8.3,0.6,16.8c0,0-9.4,18.8-29.5,20.8C195.2,83.9,200.4,77.9,200.5,76.3z"/>
<circle class="st1" cx="179.5" cy="58.7" r="17.5"/>
<path class="st2" d="M164.2,51.4l0.4,4.4l4.5-2.4c0,0,1.9-5.6,2.9-6.4l-3.8-1.6C168.3,45.3,164.9,48,164.2,51.4z"/>
<polygon class="st2" points="184.9,42.4 181.5,44.8 186.1,49.4 191.1,49.7 189.1,44 "/>
<polygon class="st2" points="175.3,59.6 183,58 187,64.4 181.9,70.3 174.5,67.1 "/>
<path class="st2" d="M162.8,62.3c0,0,3,5.1,5.3,6.6l0.2,3.2C168.3,72,163.1,67.3,162.8,62.3z"/>
<path class="st2" d="M196.7,55.6l-3.1,8.6l0.4,3.6C194.1,67.8,198.3,61.5,196.7,55.6z"/>
<line class="st3" x1="169.1" y1="53.4" x2="175.3" y2="59.6"/>
<path class="st3" d="M164.2,56.5"/>
<path class="st3" d="M164.6,55.8c0,0-1.9,4.4-0.7,8.2"/>
<path class="st3" d="M168.1,68.9"/>
<line class="st3" x1="174.5" y1="67.1" x2="168.1" y2="68.9"/>
<line class="st3" x1="187" y1="64.4" x2="193.6" y2="64.2"/>
<line class="st3" x1="186.1" y1="49.4" x2="183" y2="58"/>
<path class="st1" d="M191.1,49.7c0,0,3.9,2.8,5.1,7.2"/>
<line class="st3" x1="181.9" y1="70.3" x2="183" y2="75.3"/>
<path class="st1" d="M172.1,46.9c0,0,5.2-3.3,9.5-2.1"/>
<path class="st0" d="M153.4,41.4c0,0,0-4.8,4.6-4.8h44.1c0,0,4.9-0.5,3.6,5.4c0,0,1.6,27.3-8,38.9c0,0-3.1,4.2-8,7.1
	c0,0-5.3,1.5-4,6.4c0,0-1.3,5.3,2.8,7c0,0,6.7,1.2,5.6,5h-29c0,0-0.6-3.7,5.2-4.9c0,0,4.6-1.6,3.7-6.3c0,0,1.9-4.2-3-6.5
	c0,0-11-5.6-14.1-17.2C156.9,71.5,151.5,53,153.4,41.4z"/>
<path class="st4" d="M186,97.1h-12.5c-1.4,0-2.6-1.2-2.6-2.6v0c0-1.4,1.2-2.6,2.6-2.6H186c1.4,0,2.6,1.2,2.6,2.6v0
	C188.6,95.9,187.4,97.1,186,97.1z"/>
<polygon class="st0" points="36.4,13.8 39.6,5.8 47.7,9 55.5,4.8 60.4,12.3 68.9,12.9 68.9,22.4 74.8,27.8 69.7,35.1 71.6,44.3 
	63,46.1 59.6,54 50.8,51 43,55.2 38.1,47.8 29.6,46.8 30.5,38 23.4,32.2 29,25.3 27.1,16.7 "/>
<polygon class="st0" points="31.8,57.7 35.2,55.2 40.9,63.4 50.9,59.3 61.6,63.4 65.1,55.2 67.6,57 67.6,93.1 49.6,77.8 31.8,93.1 
	"/>
<circle class="st1" cx="49.1" cy="30" r="14.2"/>
<path class="st2" d="M36.6,24.1l0.4,3.6l3.7-2c0,0,1.5-4.5,2.4-5.2l-3.1-1.3C39.9,19.2,37.2,21.4,36.6,24.1z"/>
<polygon class="st2" points="53.4,16.8 50.7,18.8 54.4,22.5 58.5,22.8 56.8,18.2 "/>
<polygon class="st2" points="45.7,30.8 51.9,29.5 55.1,34.7 51,39.5 44.9,36.8 "/>
<path class="st2" d="M35.5,33c0,0,2.4,4.2,4.3,5.3l0.2,2.6C40,40.9,35.8,37,35.5,33z"/>
<path class="st2" d="M63,27.5l-2.5,7l0.4,2.9C60.9,37.4,64.3,32.3,63,27.5z"/>
<line class="st3" x1="40.6" y1="25.7" x2="45.7" y2="30.8"/>
<path class="st3" d="M36.6,28.2"/>
<path class="st1" d="M36.9,27.7c0,0-1.6,3.6-0.6,6.6"/>
<path class="st3" d="M39.8,38.3"/>
<line class="st3" x1="44.9" y1="36.8" x2="39.8" y2="38.3"/>
<line class="st3" x1="55.1" y1="34.7" x2="60.5" y2="34.5"/>
<line class="st3" x1="54.4" y1="22.5" x2="51.9" y2="29.5"/>
<path class="st1" d="M58.5,22.8c0,0,3.2,2.3,4.1,5.9"/>
<line class="st3" x1="51" y1="39.5" x2="51.9" y2="43.5"/>
<path class="st1" d="M43,20.5c0,0,4.2-2.7,7.7-1.7"/>
</svg>
