<?xml version="1.0" encoding="utf-8"?>
<!-- Generator: Adobe Illustrator 22.0.1, SVG Export Plug-In . SVG Version: 6.00 Build 0)  -->
<svg version="1.1" id="Layer_1" xmlns="http://www.w3.org/2000/svg" xmlns:xlink="http://www.w3.org/1999/xlink" x="0px" y="0px"
	 viewBox="0 0 100 100" style="enable-background:new 0 0 100 100;" xml:space="preserve">
<style type="text/css">
	.st0{fill:#BBBBBC;stroke:#57585A;stroke-width:2;stroke-linecap:round;stroke-linejoin:round;stroke-miterlimit:10;}
	.st1{fill:none;stroke:#57585A;stroke-width:2;stroke-linecap:round;stroke-linejoin:round;stroke-miterlimit:10;}
	.st2{fill:#00B8A6;stroke:#17897B;stroke-width:2;stroke-linecap:round;stroke-linejoin:round;stroke-miterlimit:10;}
	.st3{fill:#FFC70A;stroke:#DCA727;stroke-width:2;stroke-linecap:round;stroke-linejoin:round;stroke-miterlimit:10;}
	.st4{stroke:#000000;stroke-miterlimit:10;}
	.st5{fill:#DBA5CB;stroke:#AB398A;stroke-width:2;stroke-miterlimit:10;}
</style>
<path class="st0" d="M87.9,84.6c-13.6-1.1-0.6-17.8,2.3-21.3c0.5-0.6,0.9-1.2,1.2-1.8c1.7-3.4,5.3-13.5-4.3-22.2l0,0
	c3.9-3.5,6.3-8.5,6.3-14.1c0-1.9-0.3-3.8-0.8-5.6l4.7-15.3c0.5-1.7-1.2-3.1-2.8-2.4L81.9,7.7c-2.3-1-4.9-1.6-7.7-1.6
	c-2.8,0-5.4,0.6-7.8,1.7L54.8,2.3C53.2,1.6,51.5,3,52,4.7l4.3,13.9c-0.7,2-1.2,4.2-1.2,6.5c0,5.1,2,9.7,5.3,13.2l0,0
	c0,0-30.2,11.8-25.3,47c0,0-18.9,1.1-21.2-12C11.6,60.3,7.4,11,32.6,22c0.2,0.1,0.3,0.1,0.5,0.1c1.7,0.3,11.9,1.5,6.2-5
	c-5.3-6-14-7.5-21.2-4.1c-7.8,3.7-16,12.1-15.3,31.1c1.4,33.9-3,43.7,19.9,51.8c1.8,0.6,3.7,1,5.6,1c10.6,0,49.4,0,61.9,0
	c3,0,5.6-2,6.3-4.9C97.2,88.9,96.2,85.3,87.9,84.6z"/>
<path class="st1" d="M48.6,64.5c0,0,18.6-4.2,16.8,21.4c0,0,15.2-1.1,8.3,11.1"/>
<path class="st2" d="M87.1,39.3c-10,4.9-26.6-1-26.6-1l-2,0.8c0,0,12.7,9.9,30.5,2.1L87.1,39.3z"/>
<circle class="st3" cx="75.4" cy="47.7" r="3.6"/>
<circle class="st4" cx="80.4" cy="20.3" r="2"/>
<circle class="st4" cx="68" cy="20.3" r="2"/>
<path class="st1" d="M74.9,27v5.4c0,0-3.7,2.9-6.2-1.3"/>
<path class="st1" d="M74.5,27.1v5.4c0,0,3.7,2.9,6.2-1.3"/>
<path class="st5" d="M76.5,28.8h-3.3c-0.6,0-1.1-0.5-1.1-1.1v-1.3c0-0.6,0.5-1.1,1.1-1.1h3.3c0.6,0,1.1,0.5,1.1,1.1v1.3
	C77.6,28.4,77.1,28.8,76.5,28.8z"/>
</svg>
