<?xml version="1.0" encoding="utf-8"?>
<!-- Generator: Adobe Illustrator 22.1.0, SVG Export Plug-In . SVG Version: 6.00 Build 0)  -->
<svg version="1.1" id="Layer_1" xmlns="http://www.w3.org/2000/svg" xmlns:xlink="http://www.w3.org/1999/xlink" x="0px" y="0px"
	 viewBox="0 0 100 100" style="enable-background:new 0 0 100 100;" xml:space="preserve">
<style type="text/css">
	.st0{fill:none;stroke:#7655FF;stroke-width:2;stroke-linecap:round;stroke-linejoin:round;stroke-miterlimit:10;}
	.st1{fill:none;stroke:#FFFFFF;stroke-width:2;stroke-miterlimit:10;}
	.st2{fill:#FFFFFF;}
	.st3{fill:none;stroke:#FFFFFF;stroke-linecap:round;stroke-linejoin:round;stroke-miterlimit:10;}
</style>
<path class="st0" d="M-115.6,78.6"/>
<circle class="st1" cx="-99.5" cy="71.2" r="12.4"/>
<circle class="st1" cx="-69.3" cy="71.2" r="12.4"/>
<circle class="st1" cx="-39.1" cy="71.2" r="12.4"/>
<circle class="st1" cx="-84.8" cy="83.6" r="12.4"/>
<circle class="st1" cx="-54.7" cy="83.6" r="12.4"/>
<g>
	<g>
		<circle class="st2" cx="-98.6" cy="31.7" r="3.3"/>
		<path class="st2" d="M-96.3,36.3h-4.6c-1.3,0-2.3,1-2.3,2.3v5.6c0,1.1,0.9,2.1,1.9,2.3v3.6c0,0.6,0.5,1.1,1.1,1.1h2.6
			c0.6,0,1.1-0.5,1.1-1.1v-3.6h0.1c1.3,0,2.3-1,2.3-2.3v-5.6C-94,37.3-95,36.3-96.3,36.3z"/>
	</g>
	<g>
		<circle class="st2" cx="-84.4" cy="31.7" r="3.3"/>
		<path class="st2" d="M-82.2,36.3h-4.6c-1.3,0-2.3,1-2.3,2.3v5.6c0,1.1,0.9,2.1,1.9,2.3v3.6c0,0.6,0.5,1.1,1.1,1.1h2.7
			c0.6,0,1.1-0.5,1.1-1.1v-3.6h0.1c1.3,0,2.3-1,2.3-2.3v-5.6C-79.8,37.3-80.9,36.3-82.2,36.3z"/>
	</g>
	<g>
		<circle class="st2" cx="-70.4" cy="31.7" r="3.3"/>
		<path class="st2" d="M-68.1,36.3h-4.6c-1.3,0-2.3,1-2.3,2.3v5.6c0,1.1,0.9,2.1,1.9,2.3v3.6c0,0.6,0.5,1.1,1.1,1.1h2.6
			c0.6,0,1.1-0.5,1.1-1.1v-3.6h0.1c1.3,0,2.3-1,2.3-2.3v-5.6C-65.7,37.3-66.8,36.3-68.1,36.3z"/>
	</g>
	<g>
		<circle class="st2" cx="-56.2" cy="31.7" r="3.3"/>
		<path class="st2" d="M-53.9,36.3h-4.6c-1.3,0-2.3,1-2.3,2.3v5.6c0,1.1,0.9,2.1,1.9,2.3v3.6c0,0.6,0.5,1.1,1.1,1.1h2.6
			c0.6,0,1.1-0.5,1.1-1.1v-3.6h0.1c1.3,0,2.3-1,2.3-2.3v-5.6C-51.6,37.3-52.7,36.3-53.9,36.3z"/>
	</g>
	<g>
		<circle class="st2" cx="-42.1" cy="31.7" r="3.3"/>
		<path class="st2" d="M-39.8,36.3h-4.6c-1.3,0-2.3,1-2.3,2.3v5.6c0,1.1,0.9,2.1,1.9,2.3v3.6c0,0.6,0.5,1.1,1.1,1.1h2.6
			c0.6,0,1.1-0.5,1.1-1.1v-3.6h0.1c1.3,0,2.3-1,2.3-2.3v-5.6C-37.5,37.3-38.5,36.3-39.8,36.3z"/>
	</g>
</g>
<g id="hRmdWG.tif">
	
		<image style="overflow:visible;" width="1180" height="883" id="Layer_0" xlink:href="2B0D847E4F5854B4.png"  transform="matrix(5.709789e-02 0 0 5.709789e-02 171.5561 58.4302)">
	</image>
</g>
<g>
	<path class="st2" d="M47.4,46.8c0,0-3.9-2.2-18.1,5.8c0,0-9.7,5.4-12.6,13c0,0-3,9,2.6,13c0,0,5.9,3.8,12.4,2.6
		c0,0-11.4-1.3-8.9-11.8c0,0,2.7-9.3,8.1-13.7C30.9,55.6,34.3,51.9,47.4,46.8z"/>
	<path class="st2" d="M40.6,54.7c0,0-4.2,1.6-7.1,17.7c0,0-2.1,10.9,1.9,17.9c0,0,5,8.1,11.6,6.3c0,0,6.7-2.1,9.9-7.9
		c0,0-8.3,8-14.8-0.7c0,0-5.4-8-5.4-14.9C36.8,73.1,36.1,68.1,40.6,54.7z"/>
	<path class="st2" d="M40.3,73.8c0,0,0.4,4.5,15,11.7c0,0,9.9,5,17.8,3.1c0,0,9.2-2.6,9.3-9.4c0,0-0.2-7-4.9-11.7
		c0,0,5.4,10.2-4.8,14c0,0-9.2,3-15.8,1C56.9,82.6,51.9,81.8,40.3,73.8z"/>
</g>
<g>
	<g>
		<polyline class="st3" points="46,37.2 55.5,20.8 39.5,11.2 		"/>
		<polyline class="st3" points="57.2,35.1 52.3,16.9 34.2,21.5 		"/>
		<polyline class="st3" points="63.8,25.8 47.3,16.4 37.7,32.3 		"/>
		<polyline class="st3" points="61.6,14.5 43.3,19.5 48,37.5 		"/>
		<polyline class="st3" points="52.3,8.1 42.8,24.5 58.8,34.1 		"/>
		<polyline class="st3" points="40.9,10.2 46,28.5 64,23.9 		"/>
		<polyline class="st3" points="34.5,19.5 51,28.9 60.5,13 		"/>
		<polyline class="st3" points="36.6,30.8 55,25.8 50.4,7.8 		"/>
		<polyline class="st3" points="46,37.2 55.5,20.8 39.5,11.2 		"/>
	</g>
	<polygon class="st3" points="61,19.6 65.6,11.8 62.3,12.8 64,10 55.4,12.1 53.2,3.5 51.5,6.3 50.7,3.1 46.1,10.8 38.4,6.2 
		39.4,9.3 36.3,7.8 38.6,16.4 29.9,18.7 32.8,20.3 29.6,21.1 37.3,25.7 32.6,33.4 35.8,32.5 34.2,35.3 42.8,33.2 45.1,41.8 46.7,39 
		47.5,42.3 52.2,34.5 59.8,39.1 59,36 61.8,37.5 59.6,28.9 68.3,26.6 65.5,25 68.7,24.2 	"/>
</g>
</svg>
