<?xml version="1.0" encoding="utf-8"?>
<!-- Generator: Adobe Illustrator 22.0.1, SVG Export Plug-In . SVG Version: 6.00 Build 0)  -->
<svg version="1.1" id="Layer_1" xmlns="http://www.w3.org/2000/svg" xmlns:xlink="http://www.w3.org/1999/xlink" x="0px" y="0px"
	 viewBox="0 0 100 100" style="enable-background:new 0 0 100 100;" xml:space="preserve">
<style type="text/css">
	.st0{fill:none;stroke:#FFFFFF;stroke-linecap:round;stroke-linejoin:round;stroke-miterlimit:10;}
	.st1{fill:#FFFFFF;stroke:#FFFFFF;stroke-linecap:round;stroke-linejoin:round;stroke-miterlimit:10;}
	.st2{fill:#00B8A6;stroke:#FFFFFF;stroke-miterlimit:10;}
</style>
<g>
	<g>
		<path class="st0" d="M77.7,19c0,0-7.9,0.5-6.8-5.9c1.1-6.3,3.3-2.5,3.3-2.5s1.2,2.9,6.6,1.8s17,2.1,17,2.1s2.7,10.8-5.5,11
			S88.6,39,88.6,39s3.2,16.8-17.8,21.8c0,0-3.3,12.9-10.8,13.4s-7.9-20.8-7-21.7"/>
		<path class="st0" d="M52.7,59.1c0,0-16,7.9-28-2.5l-6.8,10.6c0,0-0.2,13.1,1.8,14.3c2,1.1,10.9,3.6,7.2,6.2
			c-3.6,2.6-13.4,1-13.4,1s-0.9-8.6,0-10.6c0.9-2-4.7-6.3-0.4-12.5s0.4-12.7,0.4-12.7s-10.9-7.5,3.2-22c0,0,6.1-5.4,6.6-8.4
			c0,0,9.3-17,15.9,0c0,0,1.1,3.6,7.2,0c0,0,7.7-19,15.6-0.7L68,35c0,0,8.1,1,5.7-16.7"/>
		<path class="st0" d="M63.5,73c0,0-2.2,10.2,0,10.5c0,0,11.3,0.3,6.3,5.7H57.1c0,0-2.5-11,0-16.2"/>
	</g>
	<g>
		<path class="st0" d="M9.6,41.8c0,0-7,3.2-5,12.9c0,0-3.9,3.5-3.9,5.4"/>
		<path class="st0" d="M1.9,63.1c-0.2-2.9,2.7-8.4,2.7-8.4v10.4"/>
		<path class="st0" d="M5.2,56.3c0,0,3.1,4.8,2.4,6.1"/>
		<path class="st0" d="M4.6,54.7c0,0,5.2,1.8,5,3.2"/>
	</g>
	<path class="st0" d="M96.7,23.7c0,0-6.4,0.4-7.5-2.7"/>
	<circle class="st1" cx="83.7" cy="16.8" r="0.6"/>
	<ellipse transform="matrix(0.1835 -0.983 0.983 0.1835 -23.3328 119.1833)" class="st2" cx="60.1" cy="73.6" rx="6.8" ry="2.3"/>
</g>
</svg>
