<?xml version="1.0" encoding="utf-8"?>
<!-- Generator: Adobe Illustrator 22.1.0, SVG Export Plug-In . SVG Version: 6.00 Build 0)  -->
<svg version="1.1" id="Layer_1" xmlns="http://www.w3.org/2000/svg" xmlns:xlink="http://www.w3.org/1999/xlink" x="0px" y="0px"
	 viewBox="0 0 60 60" style="enable-background:new 0 0 60 60;" xml:space="preserve">
<style type="text/css">
	.st0{fill:#545454;stroke:#3F3F3F;stroke-miterlimit:10;}
	.st1{fill:none;stroke:#7655FF;stroke-width:2;stroke-linecap:round;stroke-linejoin:round;stroke-miterlimit:10;}
	.st2{fill:#E4E3E8;stroke:#C9C9C9;stroke-miterlimit:10;}
	.st3{fill:#4F4F4D;stroke:#474747;stroke-miterlimit:10;}
	.st4{fill:#EF263F;stroke:#DD2443;stroke-miterlimit:10;}
	.st5{fill:#EDCE3A;stroke:#E8C42A;stroke-miterlimit:10;}
	.st6{fill:#313FF4;stroke:#263DDD;stroke-miterlimit:10;}
</style>
<path class="st0" d="M13.3,43.5H9.6c-0.9,0-1.6-0.7-1.6-1.6v-3.7c0-0.9,0.7-1.6,1.6-1.6h3.7c0.9,0,1.6,0.7,1.6,1.6v3.7
	C14.9,42.7,14.2,43.5,13.3,43.5z"/>
<path class="st0" d="M31.4,48.7h-2.9c-0.6,0-1.2-0.5-1.2-1.2v-2.9c0-0.6,0.5-1.2,1.2-1.2h2.9c0.6,0,1.2,0.5,1.2,1.2v2.9
	C32.6,48.2,32.1,48.7,31.4,48.7z"/>
<path class="st0" d="M51.9,48.7H49c-0.6,0-1.2-0.5-1.2-1.2v-2.9c0-0.6,0.5-1.2,1.2-1.2h2.9c0.6,0,1.2,0.5,1.2,1.2v2.9
	C53.1,48.2,52.5,48.7,51.9,48.7z"/>
<path class="st1" d="M78.3-1.4"/>
<path class="st2" d="M9,23.2l3-8.6c0,0,0.8-1.6,2.2-1.4l17.2,0c0,0,3.3-0.4,3.8,1.7l2.9,8.2H9z"/>
<path class="st3" d="M35,45L35,45c-2.1,0-3.8-1.7-3.8-3.8v-1.1c0-0.9,0.8-1.7,1.7-1.7h3.8c0.9,0,1.7,0.8,1.7,1.7v1.5
	C38.4,43.5,36.9,45,35,45z"/>
<path class="st4" d="M38.8,38.3H8.3c-1.9,0-3.5-1.6-3.5-3.5v-8.2c0-1.9,1.6-3.5,3.5-3.5h30.5c1.9,0,3.5,1.6,3.5,3.5v8.2
	C42.2,36.8,40.7,38.3,38.8,38.3z"/>
<circle class="st5" cx="11.6" cy="31.6" r="2.9"/>
<circle class="st5" cx="34.8" cy="31.6" r="2.9"/>
<path class="st2" d="M27.7,31.6l2.7-7.5c0,0,0.7-1.4,1.9-1.2l15.2,0c0,0,2.9-0.3,3.4,1.5l2.6,7.2H27.7z"/>
<path class="st6" d="M53.9,44.9H27.1c-1.7,0-3-1.4-3-3v-7.2c0-1.7,1.4-3,3-3h26.8c1.7,0,3,1.4,3,3v7.2C57,43.6,55.6,44.9,53.9,44.9z
	"/>
<circle class="st5" cx="30" cy="39.1" r="2.6"/>
<circle class="st5" cx="50.4" cy="39.1" r="2.6"/>
</svg>
