<?xml version="1.0" encoding="utf-8"?>
<!-- Generator: Adobe Illustrator 22.1.0, SVG Export Plug-In . SVG Version: 6.00 Build 0)  -->
<svg version="1.1" id="Layer_1" xmlns="http://www.w3.org/2000/svg" xmlns:xlink="http://www.w3.org/1999/xlink" x="0px" y="0px"
	 viewBox="0 0 100 100" style="enable-background:new 0 0 100 100;" xml:space="preserve">
<style type="text/css">
	.st0{fill:none;stroke:#7655FF;stroke-width:2;stroke-linecap:round;stroke-linejoin:round;stroke-miterlimit:10;}
	.st1{fill:none;stroke:#FFFFFF;stroke-width:2;stroke-miterlimit:10;}
	.st2{fill:none;stroke:#FFFFFF;stroke-linecap:round;stroke-linejoin:round;stroke-miterlimit:10;}
</style>
<path class="st0" d="M4.5,74.9"/>
<circle class="st1" cx="20.6" cy="67.5" r="12.4"/>
<circle class="st1" cx="50.8" cy="67.5" r="12.4"/>
<circle class="st1" cx="81" cy="67.5" r="12.4"/>
<circle class="st1" cx="35.3" cy="79.9" r="12.4"/>
<circle class="st1" cx="65.5" cy="79.9" r="12.4"/>
<g>
	<g>
		<polyline class="st2" points="47.8,42.4 56.9,26.6 41.5,17.4 		"/>
		<polyline class="st2" points="58.6,40.4 53.8,22.9 36.4,27.3 		"/>
		<polyline class="st2" points="64.9,31.4 49,22.4 39.8,37.7 		"/>
		<polyline class="st2" points="62.8,20.6 45.2,25.4 49.7,42.7 		"/>
		<polyline class="st2" points="53.8,14.4 44.7,30.2 60.1,39.4 		"/>
		<polyline class="st2" points="42.9,16.4 47.8,34 65.1,29.6 		"/>
		<polyline class="st2" points="36.7,25.4 52.6,34.4 61.7,19.1 		"/>
		<polyline class="st2" points="38.7,36.2 56.4,31.4 52,14.1 		"/>
		<polyline class="st2" points="47.8,42.4 56.9,26.6 41.5,17.4 		"/>
	</g>
	<polygon class="st2" points="62.2,25.5 66.6,18 63.5,18.9 65.1,16.2 56.8,18.3 54.7,10 53.1,12.7 52.3,9.6 47.9,17 40.5,12.6 
		41.4,15.6 38.5,14.1 40.7,22.4 32.3,24.6 35.1,26.1 32,26.9 39.4,31.3 34.9,38.7 38,37.9 36.4,40.6 44.7,38.5 46.9,46.8 48.5,44.1 
		49.2,47.3 53.7,39.8 61.1,44.2 60.3,41.2 63,42.7 60.9,34.4 69.2,32.2 66.5,30.7 69.6,29.9 	"/>
</g>
</svg>
