<?xml version="1.0" encoding="utf-8"?>
<!-- Generator: Adobe Illustrator 22.1.0, SVG Export Plug-In . SVG Version: 6.00 Build 0)  -->
<svg version="1.1" id="Layer_1" xmlns="http://www.w3.org/2000/svg" xmlns:xlink="http://www.w3.org/1999/xlink" x="0px" y="0px"
	 viewBox="0 0 100 100" style="enable-background:new 0 0 100 100;" xml:space="preserve">
<style type="text/css">
	.st0{fill:none;stroke:#7655FF;stroke-width:2;stroke-linecap:round;stroke-linejoin:round;stroke-miterlimit:10;}
	.st1{fill:none;stroke:#FFFFFF;stroke-width:2;stroke-miterlimit:10;}
	.st2{fill:#FFFFFF;}
	.st3{fill:none;stroke:#FFFFFF;stroke-width:2;stroke-linecap:round;stroke-miterlimit:10;}
</style>
<path class="st0" d="M-115.6,78.6"/>
<circle class="st1" cx="-99.5" cy="71.2" r="12.4"/>
<circle class="st1" cx="-69.3" cy="71.2" r="12.4"/>
<circle class="st1" cx="-39.1" cy="71.2" r="12.4"/>
<circle class="st1" cx="-84.8" cy="83.6" r="12.4"/>
<circle class="st1" cx="-54.7" cy="83.6" r="12.4"/>
<g>
	<g>
		<circle class="st2" cx="-98.6" cy="31.7" r="3.3"/>
		<path class="st2" d="M-96.3,36.3h-4.6c-1.3,0-2.3,1-2.3,2.3v5.6c0,1.1,0.9,2.1,1.9,2.3v3.6c0,0.6,0.5,1.1,1.1,1.1h2.6
			c0.6,0,1.1-0.5,1.1-1.1v-3.6h0.1c1.3,0,2.3-1,2.3-2.3v-5.6C-94,37.3-95,36.3-96.3,36.3z"/>
	</g>
	<g>
		<circle class="st2" cx="-84.4" cy="31.7" r="3.3"/>
		<path class="st2" d="M-82.2,36.3h-4.6c-1.3,0-2.3,1-2.3,2.3v5.6c0,1.1,0.9,2.1,1.9,2.3v3.6c0,0.6,0.5,1.1,1.1,1.1h2.7
			c0.6,0,1.1-0.5,1.1-1.1v-3.6h0.1c1.3,0,2.3-1,2.3-2.3v-5.6C-79.8,37.3-80.9,36.3-82.2,36.3z"/>
	</g>
	<g>
		<circle class="st2" cx="-70.4" cy="31.7" r="3.3"/>
		<path class="st2" d="M-68.1,36.3h-4.6c-1.3,0-2.3,1-2.3,2.3v5.6c0,1.1,0.9,2.1,1.9,2.3v3.6c0,0.6,0.5,1.1,1.1,1.1h2.6
			c0.6,0,1.1-0.5,1.1-1.1v-3.6h0.1c1.3,0,2.3-1,2.3-2.3v-5.6C-65.7,37.3-66.8,36.3-68.1,36.3z"/>
	</g>
	<g>
		<circle class="st2" cx="-56.2" cy="31.7" r="3.3"/>
		<path class="st2" d="M-53.9,36.3h-4.6c-1.3,0-2.3,1-2.3,2.3v5.6c0,1.1,0.9,2.1,1.9,2.3v3.6c0,0.6,0.5,1.1,1.1,1.1h2.6
			c0.6,0,1.1-0.5,1.1-1.1v-3.6h0.1c1.3,0,2.3-1,2.3-2.3v-5.6C-51.6,37.3-52.7,36.3-53.9,36.3z"/>
	</g>
	<g>
		<circle class="st2" cx="-42.1" cy="31.7" r="3.3"/>
		<path class="st2" d="M-39.8,36.3h-4.6c-1.3,0-2.3,1-2.3,2.3v5.6c0,1.1,0.9,2.1,1.9,2.3v3.6c0,0.6,0.5,1.1,1.1,1.1h2.6
			c0.6,0,1.1-0.5,1.1-1.1v-3.6h0.1c1.3,0,2.3-1,2.3-2.3v-5.6C-37.5,37.3-38.5,36.3-39.8,36.3z"/>
	</g>
</g>
<g id="hRmdWG.tif">
	
		<image style="overflow:visible;" width="1180" height="883" id="Layer_0" xlink:href="33D381060DBCE9C5.png"  transform="matrix(5.709789e-02 0 0 5.709789e-02 171.5561 58.4302)">
	</image>
</g>
<g>
	<path class="st2" d="M48.4,48.6c0,0-3.8-2.1-17.5,5.6c0,0-9.3,5.2-12.1,12.5c0,0-2.9,8.7,2.5,12.5c0,0,5.7,3.6,11.9,2.5
		c0,0-11-1.2-8.5-11.4c0,0,2.6-8.9,7.8-13.1C32.5,57,35.8,53.5,48.4,48.6z"/>
	<path class="st2" d="M41.8,56.2c0,0-4,1.6-6.8,17c0,0-2,10.4,1.9,17.2c0,0,4.8,7.8,11.2,6.1c0,0,6.4-2.1,9.5-7.6
		c0,0-8,7.7-14.2-0.7c0,0-5.2-7.7-5.2-14.4C38.2,73.8,37.6,69,41.8,56.2z"/>
	<path class="st2" d="M41.6,74.6c0,0,0.4,4.3,14.5,11.3c0,0,9.5,4.8,17.1,3c0,0,8.8-2.5,8.9-9c0,0-0.2-6.7-4.7-11.2
		c0,0,5.2,9.8-4.6,13.5c0,0-8.8,2.9-15.2,1C57.5,83,52.7,82.2,41.6,74.6z"/>
</g>
<g>
	<circle class="st1" cx="49.7" cy="24" r="9.2"/>
	<path class="st1" d="M61.2,26.9"/>
	<line class="st3" x1="49.9" y1="2.4" x2="49.9" y2="10.3"/>
	<line class="st3" x1="59.5" y1="4.6" x2="56" y2="11.7"/>
	<line class="st3" x1="67" y1="10.7" x2="60.7" y2="15.6"/>
	<line class="st3" x1="71.1" y1="19.5" x2="63.4" y2="21"/>
	<line class="st3" x1="70.9" y1="29.1" x2="63.3" y2="27.2"/>
	<line class="st3" x1="66.7" y1="37.7" x2="60.5" y2="32.7"/>
	<line class="st3" x1="58.9" y1="43.5" x2="55.7" y2="36.4"/>
	<line class="st3" x1="49.5" y1="45.4" x2="49.7" y2="37.7"/>
	<line class="st3" x1="40.1" y1="43.1" x2="43.7" y2="36.1"/>
	<line class="st3" x1="32.8" y1="36.9" x2="39.1" y2="32.2"/>
	<line class="st3" x1="28.9" y1="28.1" x2="36.6" y2="26.5"/>
	<line class="st3" x1="29.2" y1="18.3" x2="36.7" y2="20.5"/>
	<line class="st3" x1="33.7" y1="9.9" x2="39.7" y2="15.1"/>
	<line class="st3" x1="41.5" y1="4.2" x2="44.7" y2="11.4"/>
</g>
</svg>
