<?xml version="1.0" encoding="utf-8"?>
<!-- Generator: Adobe Illustrator 22.1.0, SVG Export Plug-In . SVG Version: 6.00 Build 0)  -->
<svg version="1.1" id="Layer_1" xmlns="http://www.w3.org/2000/svg" xmlns:xlink="http://www.w3.org/1999/xlink" x="0px" y="0px"
	 viewBox="0 0 60 60" style="enable-background:new 0 0 60 60;" xml:space="preserve">
<style type="text/css">
	.st0{fill:#E2574C;stroke:#D34D46;stroke-width:2;stroke-miterlimit:10;}
	.st1{fill:#BF392C;stroke:#AF2F28;stroke-width:2;stroke-miterlimit:10;}
	.st2{fill:#EFC75E;stroke:#F2BB40;stroke-width:2;stroke-miterlimit:10;}
	.st3{fill:#EFC75E;stroke:#F2BB40;stroke-width:2;stroke-linecap:round;stroke-linejoin:round;stroke-miterlimit:10;}
	.st4{fill:#F74646;stroke:#F73131;stroke-width:2;stroke-linecap:round;stroke-linejoin:round;stroke-miterlimit:10;}
	.st5{fill:none;stroke:#000000;stroke-miterlimit:10;}
	.st6{stroke:#000000;stroke-miterlimit:10;}
	.st7{fill:#6AFF84;stroke:#000000;stroke-miterlimit:10;}
</style>
<path class="st0" d="M129.5,6.7h14.8L155.2,23c0,0-6.7-1.7-12.9,3L129.5,6.7z"/>
<path class="st1" d="M158.8,6.7h14.7L160.8,25c0,0-5.1-3.4-12.3-1.9L158.8,6.7z"/>
<circle class="st2" cx="152" cy="35.4" r="13.8"/>
<circle class="st2" cx="152" cy="35.4" r="7.1"/>
<g id="kA2A1s_1_">
	
		<image style="overflow:visible;" width="225" height="225" id="kA2A1s" xlink:href="8538B7228CAA6B5C.jpg"  transform="matrix(0.4862 0 0 0.4862 -213.9324 99.6046)">
	</image>
</g>
<polygon class="st3" points="22.4,8.2 24.3,3.4 29.2,5.4 33.9,2.8 36.8,7.3 41.9,7.7 41.9,13.4 45.5,16.7 42.4,21 43.5,26.6 
	38.3,27.6 36.3,32.4 31,30.6 26.3,33.1 23.4,28.7 18.3,28.1 18.8,22.8 14.5,19.3 17.9,15.1 16.8,9.9 "/>
<circle class="st2" cx="30" cy="18" r="8.2"/>
<polygon class="st4" points="19.6,34.7 21.7,33.1 25.1,38.1 31.1,35.6 37.5,38.1 39.6,33.1 41.1,34.2 41.1,55.9 30.3,46.7 
	19.6,55.9 "/>
<circle class="st5" cx="79.4" cy="19.1" r="11.6"/>
<path class="st6" d="M69.1,14.3l0.3,2.9l3-1.6c0,0,1.2-3.7,1.9-4.3l-2.5-1.1C71.9,10.3,69.7,12,69.1,14.3z"/>
<polygon class="st6" points="82.9,8.3 80.7,9.9 83.7,13 87.1,13.2 85.7,9.4 "/>
<polygon class="st6" points="76.6,19.8 81.7,18.7 84.3,23 80.9,26.9 76,24.7 "/>
<path class="st6" d="M68.3,21.6c0,0,2,3.4,3.5,4.4l0.1,2.1C71.9,28,68.5,24.9,68.3,21.6z"/>
<path class="st6" d="M90.8,17.1l-2.1,5.7l0.3,2.4C89.1,25.2,91.9,21,90.8,17.1z"/>
<line class="st7" x1="72.5" y1="15.6" x2="76.6" y2="19.8"/>
<path class="st7" d="M69.1,17.7"/>
<path class="st5" d="M69.4,17.2c0,0-1.3,2.9-0.5,5.4"/>
<path class="st7" d="M71.8,25.9"/>
<line class="st7" x1="76" y1="24.7" x2="71.8" y2="25.9"/>
<line class="st7" x1="84.3" y1="23" x2="88.8" y2="22.8"/>
<line class="st7" x1="83.7" y1="13" x2="81.7" y2="18.7"/>
<path class="st5" d="M87.1,13.2c0,0,2.6,1.9,3.4,4.8"/>
<line class="st7" x1="80.9" y1="26.9" x2="81.7" y2="30.2"/>
<path class="st5" d="M74.4,11.3c0,0,3.4-2.2,6.3-1.4"/>
</svg>
