<?xml version="1.0" encoding="utf-8"?>
<!-- Generator: Adobe Illustrator 22.0.1, SVG Export Plug-In . SVG Version: 6.00 Build 0)  -->
<svg version="1.1" xmlns="http://www.w3.org/2000/svg" xmlns:xlink="http://www.w3.org/1999/xlink" x="0px" y="0px"
	 viewBox="0 0 100 100" style="enable-background:new 0 0 100 100;" xml:space="preserve">
<style type="text/css">
	.st0{fill:none;stroke:#FFFFFF;stroke-width:2;stroke-linecap:round;stroke-linejoin:round;stroke-miterlimit:10;}
	.st1{fill:#00B8A6;stroke:#FFFFFF;stroke-width:2;stroke-linecap:round;stroke-linejoin:round;stroke-miterlimit:10;}
	.st2{fill:#FFFFFF;}
</style>
<g id="Layer_2">
	<g>
		<path class="st0" d="M79.1,72.2c2,2.7-0.7,13.5-0.7,13.5h-7.9c2.4-5.1-1.6-11.3-1.6-11.3S70.5,60.6,79.1,72.2z"/>
		<path class="st0" d="M39.8,71c0.8,4.1-1.9,14.7-1.9,14.7h-6.4C35,81.8,29.9,68,29.9,68S37.6,58.9,39.8,71z"/>
		<path class="st1" d="M96.8,33.6c0.7-4.4-8.1-4.9-8.1-4.9c-1-6.5-7.7-4.2-7.7-4.2c2.4-6.5-7.1-7.7-7.1-7.7c-4.3-4.7-12.4,1-12.4,1
			c-3.8-6.6-11.2-3-11.2-3c-9.6-3.7-11.5,4.6-11.5,4.6c-4.6-3.8-7.7,1-7.7,1c-0.7-1.4-4.1-0.9-4.1-0.9c-5.3-0.5-5.8,6.6-5.8,6.6
			c-1.6,0.4-2.3,1.8-2.3,1.8c0-0.5-1-1.2-4.1-0.9c-3.1,0.3-1,3.8-1,3.8c-2.4,2.4,0,4.7,0,4.7S1.2,50.9,1.7,53.9c0.5,3,1,5.2,4.6,4.9
			c2.1-0.2,6.5-0.6,10.1-2.3l0,0c-0.1,10.6,8,5.6,8,5.6c-4.6,5.2,5.5,5.9,5.5,5.9c4,5.9,10,3,10,3c4.8,4.5,9.6,1.6,9.6,1.6
			c3.4,6.5,10.3,1.6,10.3,1.6c5.2,4.5,11.7-1.7,11.7-1.7c11.7,1.6,11.2-4,11.2-4c5.3,0.7,5.5-3.8,5.5-3.8c3.6,0.5,2.9-6.5,2.9-6.5
			c4.6-1.4,3.6-5.8,3.6-5.8c2.3,0,1.6-5.1,1.3-6.7c0.2-0.1,0.5-0.3,0.8-0.5C100.6,42.7,96.8,33.6,96.8,33.6z"/>
		<path class="st0" d="M22.1,50c0,0,0.2,4.6-5.8,6.4"/>
		<path class="st0" d="M21.1,26.2c0,0,4.1-2.2,4.1,1.8c0,0,9.1-0.3,1.2,6.1"/>
		<path class="st0" d="M19.3,34.1c0,0,0.6,13.8,6.1,12.9c5.5-0.9-1.7-13.8-1.7-13.8"/>
		<path class="st0" d="M1.7,53.9c0,0,2.2,0.9,3.6-1.6"/>
		<ellipse class="st2" cx="13.4" cy="44.2" rx="1.6" ry="1.7"/>
		<path class="st0" d="M6.7,58.6c0,0,7-3,8.3-7.5"/>
	</g>
</g>
<g id="Layer_3">
</g>
</svg>
