<?xml version="1.0" encoding="utf-8"?>
<!-- Generator: Adobe Illustrator 22.1.0, SVG Export Plug-In . SVG Version: 6.00 Build 0)  -->
<svg version="1.1" id="Layer_1" xmlns="http://www.w3.org/2000/svg" xmlns:xlink="http://www.w3.org/1999/xlink" x="0px" y="0px"
	 viewBox="0 0 100 100" style="enable-background:new 0 0 100 100;" xml:space="preserve">
<style type="text/css">
	.st0{fill:none;stroke:#FFFFFF;stroke-width:2;stroke-miterlimit:10;}
	.st1{fill:none;stroke:#FFFFFF;stroke-width:2;stroke-linejoin:round;stroke-miterlimit:10;}
	.st2{fill:#FFFFFF;}
</style>
<g>
	<path class="st0" d="M61.6,63.1c0,0,1.5,0.8,2.6-1.5l1.5-2.7c0,0,1.1-2.3,1.5,0.1c0,0,0.2,1.2,0.1,3.7c0,0-0.1,4,1.9,0.2
		c0,0,0.4-1.2,0.5-2.2c0,0,0.4-3.1,1.5-0.3c0,0,0.5,1.6,0.7,3c0,0,0.6,3,0.6,3.4c0,0,0.5,3.5,1.7,0.2c0,0,0.4-1.5,0.2-3.5
		c0,0-0.2-2.6-0.1-3c0,0,0.1-2.5,1-0.3l2.7,5.9c0,0,2.8,6.1,4.6,5.2l-8.6-19.9h-7.7L61.6,63.1z"/>
	<path class="st1" d="M1.5,97.2c0,0,10.9-19.4,20.1-38.1c4.5-9.1,8.6-18,10.8-24.3h16.2c0,0,19.2,47.9,30.4,63.2h-78L1.5,97.2z"/>
	<path class="st0" d="M22.2,59.2c0,0,3.2,1.6,5.6-3.1l3.2-5.7c0,0,2.3-4.7,3.3,0.1c0,0,0.5,2.5,0.3,7.7c0,0-0.2,8.3,3.9,0.4
		c0,0,0.8-2.5,1.1-4.6c0,0,0.8-6.4,3.2-0.6c0,0,0.9,3.3,1.6,6.3c0,0,1.3,6.3,1.4,7.2c0,0,1,7.3,3.5,0.4c0,0,0.9-3.2,0.4-7.3
		c0,0-0.5-5.5-0.3-6.2c0,0,0.1-5.3,2.2-0.6l5.8,12.2c0,0,6,12.8,9.6,10.9L48.8,34.8H32.5L22.2,59.2z"/>
	<path class="st1" d="M79,98h19.8c0,0-9.6-11.5-15.9-26.6"/>
</g>
<circle class="st2" cx="40.7" cy="28.9" r="5.8"/>
<circle class="st2" cx="40.4" cy="16.6" r="12.6"/>
<circle class="st2" cx="51.3" cy="13.1" r="9.6"/>
<circle class="st2" cx="62.9" cy="9.9" r="5.6"/>
<circle class="st2" cx="70.3" cy="8.8" r="4"/>
<circle class="st2" cx="70.2" cy="46.8" r="4.5"/>
<circle class="st2" cx="69.9" cy="37.3" r="9.7"/>
<circle class="st2" cx="78.4" cy="34.7" r="7.5"/>
<circle class="st2" cx="87.4" cy="32.2" r="4.3"/>
<circle class="st2" cx="93.1" cy="31.3" r="3.1"/>
</svg>
