<?xml version="1.0" encoding="utf-8"?>
<!-- Generator: Adobe Illustrator 22.0.1, SVG Export Plug-In . SVG Version: 6.00 Build 0)  -->
<svg version="1.1" id="Layer_1" xmlns="http://www.w3.org/2000/svg" xmlns:xlink="http://www.w3.org/1999/xlink" x="0px" y="0px"
	 viewBox="0 0 100 100" style="enable-background:new 0 0 100 100;" xml:space="preserve">
<style type="text/css">
	.st0{fill:none;stroke:#FFFFFF;stroke-width:2;stroke-linecap:round;stroke-linejoin:round;stroke-miterlimit:10;}
	.st1{fill:#00B8A6;stroke:#FFFFFF;stroke-width:2;stroke-linecap:round;stroke-linejoin:round;stroke-miterlimit:10;}
	.st2{fill:#FFFFFF;stroke:#FFFFFF;stroke-width:2;stroke-miterlimit:10;}
</style>
<g>
	<path class="st0" d="M69.6,2.2c0,0,12.2-0.9,14.9,10c0,0,7.3,6.9,12.3,4.9c0,0,4.1,13.5-16.5,15c0,0-5-2.8-3.3,13.2
		S64.6,67,64.6,67v24.6c0,0,7.3-0.2,5.2,3.8c-2.1,4.1-10.3,1.1-10.3,1.1s-4.8-4.2-3.8-5.8s0.6-22.1,0.6-22.1s-4.9,5.4-24.7-5
		c0,0-7,12.1-18.4,14.5v13.2c0,0,7.3,0.1,5.7,5.4c-1.8,5.3-12-0.1-12.9-0.1s-2.3-6.1-3.3-6.1s0-18.3,0-18.3s9.5-11.6,7.9-17.5
		S12.9,40,12.9,40S3,34.1,2.3,27.3S1.4,4.7,10.5,1.4S8.9,17.9,8.9,17.9S2.5,26.7,19.2,34S51,31.5,51,31.5S59,1.6,69.6,2.2z"/>
	<path class="st0" d="M71,11.1c0,0,13.2,19.9-1.8,28.4s-6.3-23.1-6.3-23.1"/>
	<path class="st1" d="M51.7,29.2c0,0,8.6,19.9,25.3,13.3v3.7c-19.4,6-27.5-13.8-27.5-13.8L51.7,29.2z"/>
	<circle class="st2" cx="80" cy="15.6" r="1.3"/>
	<ellipse class="st2" cx="95.6" cy="17.9" rx="3" ry="2.3"/>
</g>
</svg>
