<?xml version="1.0" encoding="utf-8"?>
<!-- Generator: Adobe Illustrator 22.0.1, SVG Export Plug-In . SVG Version: 6.00 Build 0)  -->
<svg version="1.1" xmlns="http://www.w3.org/2000/svg" xmlns:xlink="http://www.w3.org/1999/xlink" x="0px" y="0px"
	 viewBox="0 0 100 100" style="enable-background:new 0 0 100 100;" xml:space="preserve">
<style type="text/css">
	.st0{stroke:#000000;stroke-width:2;stroke-linecap:round;stroke-linejoin:round;stroke-miterlimit:10;}
	.st1{fill:#FFFFFF;stroke:#000000;stroke-width:2;stroke-linecap:round;stroke-linejoin:round;stroke-miterlimit:10;}
	.st2{fill:none;stroke:#B056A1;stroke-width:2;stroke-linecap:round;stroke-linejoin:round;stroke-miterlimit:10;}
	.st3{fill:#FFFFFF;stroke:#FFFFFF;stroke-miterlimit:10;}
</style>
<g id="Layer_1">
	<g id="Layer_3">
	</g>
	<g>
		<path class="st0" d="M78.6,73.2c2,2.7-0.7,13.5-0.7,13.5H70c2.4-5.1-1.6-11.3-1.6-11.3S70,61.6,78.6,73.2z"/>
		<path class="st0" d="M39.5,72c0.8,4.1-1.9,14.7-1.9,14.7h-6.4c3.5-3.9-1.6-17.7-1.6-17.7S37.3,59.9,39.5,72z"/>
		<path class="st1" d="M96.2,34.6c0.7-4.4-8.1-4.9-8.1-4.9c-1-6.5-7.7-4.2-7.7-4.2c2.4-6.5-7.1-7.7-7.1-7.7c-4.3-4.7-12.3,1-12.3,1
			c-3.8-6.6-11.1-3-11.1-3c-9.6-3.7-11.4,4.6-11.4,4.6c-4.6-3.8-7.7,1-7.7,1c-0.7-1.4-4.1-0.9-4.1-0.9C21.5,20,21,27.1,21,27.1
			c-1.6,0.4-2.3,1.8-2.3,1.8c0-0.5-1-1.2-4.1-0.9c-3.1,0.3-1,3.8-1,3.8c-2.4,2.4,0,4.7,0,4.7S1.1,51.9,1.6,54.9s1,5.2,4.6,4.9
			c2.1-0.2,6.5-0.6,10.1-2.3l0,0c-0.1,10.6,8,5.6,8,5.6c-4.6,5.2,5.5,5.9,5.5,5.9c4,5.9,10,3,10,3c4.8,4.5,9.6,1.6,9.6,1.6
			c3.4,6.5,10.3,1.6,10.3,1.6c5.2,4.5,11.6-1.7,11.6-1.7c11.6,1.6,11.1-4,11.1-4c5.3,0.7,5.5-3.8,5.5-3.8c3.6,0.5,2.9-6.5,2.9-6.5
			c4.6-1.4,3.6-5.8,3.6-5.8c2.3,0,1.6-5.1,1.3-6.7c0.2-0.1,0.5-0.3,0.8-0.5C100,43.7,96.2,34.6,96.2,34.6z"/>
		<path class="st2" d="M21.9,51c-2.1,0-2.7,4.6-5.8,6.4"/>
		<path class="st1" d="M20.9,27.2c0,0,4.1-2.2,4.1,1.8c0,0,9.1-0.3,1.2,6.1"/>
		<path class="st0" d="M21.4,36c0,0,0.9-3.5,4,1.7s-4.6,16.2-4.6,16.2c3,1.9-29.6,15.6-16.7-4.2C18,28.5,24,35.6,21.4,36z"/>
		<path d="M22.9,43.3c0,0,9.3-1.5,8.2-6.9C29.9,31,21.9,39,21.9,39"/>
		<ellipse class="st3" cx="13.2" cy="45.2" rx="1.6" ry="1.7"/>
		<ellipse class="st3" cx="25.3" cy="55.7" rx="5.8" ry="2.4"/>
		<ellipse class="st3" cx="26.5" cy="53.3" rx="4.9" ry="4.9"/>
		<ellipse class="st3" cx="28.4" cy="45.9" rx="4.1" ry="2.5"/>
	</g>
</g>
<g id="Layer_2">
</g>
</svg>
