<?xml version="1.0" encoding="utf-8"?>
<!-- Generator: Adobe Illustrator 22.1.0, SVG Export Plug-In . SVG Version: 6.00 Build 0)  -->
<svg version="1.1" id="Layer_1" xmlns="http://www.w3.org/2000/svg" xmlns:xlink="http://www.w3.org/1999/xlink" x="0px" y="0px"
	 viewBox="0 0 60 60" style="enable-background:new 0 0 60 60;" xml:space="preserve">
<style type="text/css">
	.st0{fill:none;stroke:#000000;stroke-linejoin:round;stroke-miterlimit:10;}
	.st1{fill:#533313;stroke:#492D16;stroke-width:0.5;stroke-linecap:round;stroke-linejoin:round;stroke-miterlimit:10;}
	.st2{fill:#248A43;stroke:#23803F;stroke-linecap:round;stroke-linejoin:round;stroke-miterlimit:10;}
	.st3{fill:#533313;stroke:#492D16;stroke-linecap:round;stroke-linejoin:round;stroke-miterlimit:10;}
	.st4{fill:#ED3648;stroke:#E12742;stroke-linecap:round;stroke-linejoin:round;stroke-miterlimit:10;}
	.st5{fill:#524143;stroke:#473A3C;stroke-linecap:round;stroke-linejoin:round;stroke-miterlimit:10;}
	.st6{fill:#F5FAF8;}
	.st7{fill:none;stroke:#565656;stroke-width:0.5;stroke-miterlimit:10;}
</style>
<polygon class="st0" points="91,127.9 125.2,127.9 125.2,89.1 115,89.1 111.7,80.6 117.8,78 112.2,73.5 114.6,72.6 109.6,68.2 
	111.4,66.9 103.4,59.5 102.3,70.6 103.9,70 103,76.8 105.4,76.1 103.7,83.7 109.9,81.4 112.9,89.1 96,89.1 83.5,94.6 105.3,102.8 
	78.3,111.7 111.2,119.1 "/>
<g>
	<g>
		<rect x="46.3" y="24" transform="matrix(0.952 -0.3062 0.3062 0.952 -5.6863 15.5994)" class="st1" width="1.2" height="3.8"/>
		<polygon class="st2" points="42.2,10.3 40.8,17.6 41.7,17.3 40.9,21.6 42.5,21.1 41.7,25.7 50.6,23 47.6,19.7 49.3,19.2 46.4,16 
			47.4,15.7 		"/>
	</g>
	<polygon class="st2" points="59.2,27.4 38.1,27.4 29.1,31.3 59.3,31.3 	"/>
	<polygon class="st3" points="59.3,31.3 29.1,31.3 44.5,37.2 25.6,43.7 48.8,49.1 34.6,55.7 59.3,55.7 	"/>
</g>
<g>
	<g>
		
			<rect x="10.3" y="17.1" transform="matrix(0.9455 0.3256 -0.3256 0.9455 8.4375 -4.0701)" class="st4" width="12.1" height="12.1"/>
		<polygon class="st5" points="20.8,10.1 23.1,16.1 25.5,22 17.6,19.4 9.8,16.7 15.3,13.4 		"/>
	</g>
	<polygon class="st2" points="0.9,27.4 32.4,27.4 23.1,31.4 0.9,31.4 	"/>
	<g>
		<path class="st6" d="M14.7,23.6l-2.6-0.9c-0.1,0-0.2-0.2-0.2-0.3l0.9-2.6c0-0.1,0.2-0.2,0.3-0.2l2.6,0.9c0.1,0,0.2,0.2,0.2,0.3
			L15,23.4C15,23.6,14.9,23.6,14.7,23.6z"/>
		<line class="st7" x1="12.4" y1="21.1" x2="15.5" y2="22.1"/>
		<line class="st7" x1="14.5" y1="20.1" x2="13.4" y2="23.2"/>
	</g>
	<polygon class="st3" points="0.8,55.7 27.3,55.7 36.7,50 13.2,44.2 37.7,37.4 23.1,31.4 0.9,31.4 	"/>
	<g>
		<path class="st6" d="M19.9,25.3l-2.6-0.9c-0.1,0-0.2-0.2-0.2-0.3l0.9-2.6c0-0.1,0.2-0.2,0.3-0.2l2.6,0.9c0.1,0,0.2,0.2,0.2,0.3
			l-0.9,2.6C20.2,25.3,20,25.4,19.9,25.3z"/>
		<line class="st7" x1="17.5" y1="22.8" x2="20.6" y2="23.9"/>
		<line class="st7" x1="19.6" y1="21.8" x2="18.6" y2="24.9"/>
	</g>
</g>
</svg>
