<?xml version="1.0" encoding="utf-8"?>
<!-- Generator: Adobe Illustrator 22.0.1, SVG Export Plug-In . SVG Version: 6.00 Build 0)  -->
<svg version="1.1" xmlns="http://www.w3.org/2000/svg" xmlns:xlink="http://www.w3.org/1999/xlink" x="0px" y="0px"
	 viewBox="0 0 100 100" style="enable-background:new 0 0 100 100;" xml:space="preserve">
<style type="text/css">
	.st0{fill:#F7F6EB;stroke:#B7B5A3;stroke-linecap:round;stroke-linejoin:round;stroke-miterlimit:10;}
	.st1{fill:#E0DECE;stroke:#B7B5A3;stroke-linecap:round;stroke-linejoin:round;stroke-miterlimit:10;}
	.st2{fill:none;stroke:#B7B5A3;stroke-linecap:round;stroke-linejoin:round;stroke-miterlimit:10;}
	.st3{fill:#936D29;stroke:#935129;stroke-linecap:round;stroke-linejoin:round;stroke-miterlimit:10;}
	.st4{fill:#020202;}
</style>
<g id="Layer_1">
</g>
<g id="Layer_2">
	<path class="st0" d="M85.8,11.7c0,0-5.4,1.1-5.6,4.6c0,0-7.5-12.5-18.9-7.5c0,0-9-4.6,3.7-4.3C77.7,4.8,79,6.1,85.8,11.7z"/>
	<path class="st1" d="M81.5,28.8c0,0-6.2,15.8-6.1,20c0.1,4.2,0.1,12.1-7.7,18.5c0,0-2,15,0.5,23.4c0,0-6.7,4.1-6.5,0
		s0.7-7.9-0.4-9.2c-1-1.3-4.6-5.7-2.4-11.6l-0.7-2.5c0,0-14.2,5.5-35.6,0c0,0-14,6.5-6.7,23.3c0,0-1.3,5.4-6,0c0,0-0.3-4.8-2.2-5.2
		S7.4,66.9,9.9,66.6s-1.1-4.3-1.1-4.3S3,60.2,8.1,47.4c0,0-10.7,4.2-6.5-10.4c0,0,1.8,6.4,8.3,5.2c0,0,4.7-5.9,12.7-5.3
		c8,0.7,28.1,0.8,28.1,0.8s8.7-1.2,12-6.8s5.1-13.5,23-19.3l11.5,10.1C97.3,21.8,105,33.6,81.5,28.8z"/>
	<path class="st2" d="M78.5,24c0,0-4.4,2.5,9.2,5.8"/>
	<path class="st2" d="M27.5,48.1c0,0,7.7,6-4.9,19.3"/>
	<path class="st2" d="M96,28.9c0,0-3-1.2-3.6-4.1"/>
	<path class="st1" d="M64,13.3c0,0,1.2,10.3,14.4,2c0,0-1.7-4.4-3.3-4.1S65.6,13.9,64,13.3z"/>
	<path class="st3" d="M61.7,90.7c0,0,0.5,4.2-0.3,3.7s5.9,3.2,8,0l-1.2-3.7C68.2,90.7,65,88.1,61.7,90.7z"/>
	<path class="st3" d="M9.9,90.7c0,0,3.8-2,6,0c0,0,0.2,2.7,1.6,4c0,0-1.5,2.2-7.1,1.2C10.4,95.9,11.2,91.6,9.9,90.7z"/>
	<circle class="st4" cx="85.9" cy="19.8" r="1.2"/>
</g>
</svg>
