<?xml version="1.0" encoding="utf-8"?>
<!-- Generator: Adobe Illustrator 22.0.1, SVG Export Plug-In . SVG Version: 6.00 Build 0)  -->
<svg version="1.1" xmlns="http://www.w3.org/2000/svg" xmlns:xlink="http://www.w3.org/1999/xlink" x="0px" y="0px"
	 viewBox="0 0 100 100" style="enable-background:new 0 0 100 100;" xml:space="preserve">
<style type="text/css">
	.st0{fill:#D8D6EC;stroke:#3A4A9F;stroke-linecap:round;stroke-linejoin:round;stroke-miterlimit:10;}
	.st1{fill:#0083CA;}
	.st2{fill:#0083CA;stroke:#3A4A9F;stroke-linecap:round;stroke-linejoin:round;stroke-miterlimit:10;}
	.st3{fill:none;stroke:#3A4A9F;stroke-linecap:round;stroke-linejoin:round;stroke-miterlimit:10;}
	.st4{fill:none;stroke:#3A4A9F;stroke-miterlimit:10;}
</style>
<g id="Layer_2">
	<path class="st0" d="M78.3,42.9c0,0-15.1,12.5-25.8,11.6c0,0,5.1,2.9,5.6,8.8C58.1,63.2,74.3,53.1,78.3,42.9z"/>
	<path class="st0" d="M2.4,40.8c0,0,4.2-2,7.4,0s12.5,6.8,19.5,4.8c0,0,4.3,7.2,13.6,6.9c0,0,1.9,12.3,3.3,12.5
		c0,0-15.3,3.3-23.7,1.4S-0.3,55.7,2.4,40.8z"/>
	<path class="st1" d="M3.6,39.8c0,0,1.6-5.5,10.1,0.9l11.4,0.1c0,0,3.3-1.1,5.3-0.8s6.4,0.8,6.9,0.7s13.7-2.3,17.3,0.1
		c0,0,1.8-10.1,10.1-9.2c0,0-6.3,7.8-2.1,9.5s15.8-7.5,15.8-7.5s-5.6-6.5-1.8-9.8c0,0,8.8-2.9,5.8-6.8c0,0,5.1,1.1,2.8,5.9
		C83,27.8,83,28.7,83,28.7s3.8-3.5,5.7-3.4c1.9,0.1,10-0.4,10.4-2c0,0-4.3,2.8-4.8,4.5s-2.1,9-11.6,7.1c0,0-5.2,16.3-30.2,19.5
		l-4.3-1.3c11.7,3.3,9,13.6,9,13.6c0.3,7.7,4.5,11.6,4.5,11.6s-3.1,2.1-10.7-5.5c-7.6-7.6-8-19.8-8-19.8
		c-11.2-3.4-13.7-7.5-13.7-7.5c-8.8,1.5-15.4-2.6-19.5-4.8s-7.4,0-7.4,0"/>
</g>
<g id="Layer_1">
	<path class="st2" d="M22.8,66.8c0,0-6.7,10.5-0.7,15.6c0,0,2.6-6.3,6.4-7.5s5.8-8.1,5.8-8.1"/>
	<path class="st3" d="M78.7,42.1c0,0-15.7,14.5-27.7,12.2"/>
	<path class="st3" d="M54.2,56.5c0,0,9.9,0.4,20.4-8.2"/>
	<path class="st3" d="M56.3,59.1c0,0,4,0.5,11.6-3.4"/>
	<path class="st3" d="M57.2,61.7c0,0,6.3-1.3,7.2-2.6"/>
	<path class="st3" d="M43.5,55.7c0,0-13.5-1.7-18.9-8.9"/>
	<path class="st3" d="M20.8,45.5c0,0,11,14.9,23.1,11.9"/>
	<path class="st3" d="M16.1,44.1c0,0,3.3,15.6,28.5,16.3"/>
	<path class="st3" d="M11,42.1c1.1,0.2,4.2,22.2,34.2,20.2"/>
	<path class="st3" d="M6.5,40c0.9,1,1.2,26.5,38.7,25"/>
	<path class="st3" d="M3.8,40.8c-1.4,0,5.8,24.4,26.6,26.4"/>
	<circle class="st4" cx="61.7" cy="46.8" r="0.4"/>
	<circle class="st4" cx="64.2" cy="48" r="0.8"/>
	<circle class="st4" cx="61.7" cy="49.2" r="0.4"/>
	<circle class="st4" cx="69.7" cy="45.5" r="0.5"/>
	<circle class="st4" cx="71.8" cy="43.9" r="0.5"/>
	<ellipse class="st4" cx="25.9" cy="43.4" rx="1.7" ry="0.5"/>
	<path class="st3" d="M2.4,40.8c0,0,5-1.8,7.4,0s10.1,6.4,19.5,4.8c0,0,4.4,6.6,11.1,6.8c6.6,0.2,2.6,0.8,2.6,0.8
		s2.8,24.2,18.7,25.2c0,0-5.2-4.7-4.4-13.7c0.8-9.1-9.1-11.5-9.1-11.5"/>
	<path class="st3" d="M45.2,65c-3.8,2-10.8,1.8-10.8,1.8C15.7,69.2,6.2,58.7,2.8,49.1s2.8-11.4,2.8-11.4s2.2-1,8.1,3
		c0,0,11.5,1,13.7,0s9.9,0,9.9,0s15.9-2,16.9,0s0.6-9.3,10.5-9.1c0,0-5.2,6.1-2.8,9.1c2.4,3,16.5-7.1,16.5-7.1s-6.8-8.4,0-10.8
		s4-5.8,4-5.8s4.3,1.3,3.1,5.1c-1.1,3.8-2.9,4.6-2.5,6.6c0,0,4-4,6.9-3.4s9.2-2,9.2-2s-5.8,4-5.2,6.2s-7.6,8.9-10.9,4.8
		c0,0-9.3,21.1-25.2,28.4"/>
</g>
</svg>
