<?xml version="1.0" encoding="utf-8"?>
<!-- Generator: Adobe Illustrator 22.1.0, SVG Export Plug-In . SVG Version: 6.00 Build 0)  -->
<svg version="1.1" id="Layer_1" xmlns="http://www.w3.org/2000/svg" xmlns:xlink="http://www.w3.org/1999/xlink" x="0px" y="0px"
	 viewBox="0 0 100 100" style="enable-background:new 0 0 100 100;" xml:space="preserve">
<style type="text/css">
	.st0{fill:none;stroke:#FFFFFF;stroke-width:2;stroke-linejoin:round;stroke-miterlimit:10;}
</style>
<g>
	<polygon class="st0" points="44.4,89.6 1.3,89.6 1.3,43.5 14.3,43.5 19.4,29.7 12.9,27.6 33.2,18.8 43.1,37.9 36.2,35.6 34.2,43.5 
		53.2,43.5 37.1,50.1 61.7,60 20.7,70.8 60.1,80.2 	"/>
	<polygon class="st0" points="58.1,89.6 98.8,89.6 98.8,43.7 86.6,43.7 82.7,33.5 89.9,30.5 83.2,25.1 86.1,24.1 80.2,18.7 
		82.2,17.3 72.7,8.4 71.5,21.7 73.4,21 72.4,29 75.1,28.2 73.2,37.2 80.5,34.5 84,43.7 64.1,43.7 49.1,50.1 75,59.9 43,70.4 
		82.1,79.2 	"/>
</g>
</svg>
