<?xml version="1.0" encoding="utf-8"?>
<!-- Generator: Adobe Illustrator 22.0.1, SVG Export Plug-In . SVG Version: 6.00 Build 0)  -->
<svg version="1.1" id="Layer_1" xmlns="http://www.w3.org/2000/svg" xmlns:xlink="http://www.w3.org/1999/xlink" x="0px" y="0px"
	 viewBox="0 0 100 100" style="enable-background:new 0 0 100 100;" xml:space="preserve">
<style type="text/css">
	.st0{fill:#FFFFFF;stroke:#FFFFFF;stroke-width:2;stroke-miterlimit:10;}
	.st1{fill:none;stroke:#FFFFFF;stroke-width:2;stroke-linecap:round;stroke-linejoin:round;stroke-miterlimit:10;}
</style>
<g>
	<circle class="st0" cx="85.8" cy="19.6" r="1.1"/>
	<path class="st1" d="M96.8,28.8c0,0-2.7-1.2-2.6-3.8"/>
	<g>
		<g>
			<path class="st1" d="M80.2,16.3c0,0-6.3-11.7-18.9-7.5c0,0-13.4-7.4,15.9-2.7c0,0,8.9,4.3,21.2,16.9c0,0,2.7,6-4.8,6.7
				C86,30.4,75.2,26.2,78.5,24"/>
			<path class="st1" d="M81.5,28.8c0,0-7,14-6,21.9s-7.8,16.6-7.8,16.6s-2.2,18,1.7,27.1c0,0-0.3,3.3-8,0c0,0,1.6-11-1.1-14.2
				c-2.7-3.2-1.5-9.7-1.4-10.3c0.2-0.5-1.5-8.3-5.1-7.6"/>
			<path class="st1" d="M58.2,67.4c-0.6,0.2-13.6,5.3-35.6,0"/>
			<path class="st1" d="M27.5,48.1c0,0,8.8,9.3-8.6,22.4c0,0-6.9,4.6-4,17.5c0,0,1.6,5.1,2.2,5.4s1.9,3.7-6.7,2.5c0,0,0-6.5-2.1-9
				s-1.6-19.6,2.3-20.7c4-1.2-9.6-5-2.5-18.8c0,0-10.4,3.4-6.5-10.4c0,0,1.3,6.8,9.7,5c0,0,7.7-6.8,10-5.4S49.8,38,49.8,38
				s10.7-1.7,14.3-9.1c3.6-7.4,8.2-9.3,8.2-9.3"/>
			<path class="st1" d="M75.4,11c0,0-9.7,2.7-11.1,2.8s2.2,9.4,14.1,1.5L75.4,11z"/>
			<path class="st1" d="M86.2,29.1l4.1,6.1C90.4,35.3,93.1,28.6,86.2,29.1z"/>
		</g>
		<path class="st1" d="M9.9,90.7c0,0,2.2-1.1,6,0"/>
		<path class="st1" d="M61.7,90.7c0,0,3.3-2.3,6.5,0"/>
	</g>
</g>
</svg>
