<?xml version="1.0" encoding="utf-8"?>
<!-- Generator: Adobe Illustrator 22.1.0, SVG Export Plug-In . SVG Version: 6.00 Build 0)  -->
<svg version="1.1" id="Layer_1" xmlns="http://www.w3.org/2000/svg" xmlns:xlink="http://www.w3.org/1999/xlink" x="0px" y="0px"
	 viewBox="0 0 60 60" style="enable-background:new 0 0 60 60;" xml:space="preserve">
<style type="text/css">
	.st0{fill:#11AA19;stroke:#0AA00E;stroke-miterlimit:10;}
	.st1{fill:#7BB142;stroke:#71A341;stroke-linecap:round;stroke-linejoin:round;stroke-miterlimit:10;}
	.st2{fill:#5E380B;stroke:#543211;stroke-miterlimit:10;}
</style>
<path class="st0" d="M43.4,26.9"/>
<path class="st1" d="M26.5,44.7c0,0,2.1,3.4,4.5-0.4c0,0,0.2-5.6,0.7-6.3c0,0,2.9,1.3,5.4,0.9c0,0,4.3-0.4,6.8-2.3
	c0,0,4.1-2.9,6.3-7.4c0,0,1.8-4.5,1.6-8.1c0,0-0.2-6.3-2-9.9c0,0-1.6-3.8-4.1-6.7c0,0-1.1,3.2-4.3,5.9c0,0-5,3.4-8,4.3
	c0,0-5.4,2.2-6.8,4.3c0,0-4.1,4.5-2.3,9.9c0,0,1.4,5,4.3,7C28.6,36.4,26.8,40.9,26.5,44.7z"/>
<path class="st2" d="M11.4,52.7c0,0-4.5-4.4,4.3-5.1c0,0,2.9-5.5,8.9-1.5c0,0,6.1-7.8,13.7,0.1c0,0,6.9-2.1,8.5,2.4
	c0,0,1.2,3.3-4.1,4.9c0,0-8.4,4.5-8.5,4.8C34.1,58.5,16.5,56.1,11.4,52.7z"/>
<path class="st1" d="M29.5,35.6c0,0,14.1-7.3,14.5-22.4"/>
</svg>
