<?xml version="1.0" encoding="utf-8"?>
<!-- Generator: Adobe Illustrator 22.1.0, SVG Export Plug-In . SVG Version: 6.00 Build 0)  -->
<svg version="1.1" id="Layer_1" xmlns="http://www.w3.org/2000/svg" xmlns:xlink="http://www.w3.org/1999/xlink" x="0px" y="0px"
	 viewBox="0 0 60 60" style="enable-background:new 0 0 60 60;" xml:space="preserve">
<style type="text/css">
	.st0{fill:#E2574C;stroke:#D34D46;stroke-width:2;stroke-miterlimit:10;}
	.st1{fill:#BF392C;stroke:#AF2F28;stroke-width:2;stroke-miterlimit:10;}
	.st2{fill:#EFC75E;stroke:#F2BB40;stroke-width:2;stroke-miterlimit:10;}
	.st3{fill:#2976FF;}
</style>
<path class="st0" d="M102.4,13.1h14.8l10.9,16.3c0,0-6.7-1.7-12.9,3L102.4,13.1z"/>
<path class="st1" d="M131.7,13.1h14.7l-12.6,18.3c0,0-5.1-3.4-12.3-1.9L131.7,13.1z"/>
<circle class="st2" cx="124.9" cy="41.8" r="13.8"/>
<circle class="st2" cx="124.9" cy="41.8" r="7.1"/>
<g id="_x39_p85bt.tif">
	
		<image style="overflow:visible;" width="1180" height="883" id="Layer_0" xlink:href="E1570CADEC0A31DF.png"  transform="matrix(9.135053e-02 0 0 9.135053e-02 -558 -411)">
	</image>
</g>
<g>
	<circle class="st3" cx="30.8" cy="11.6" r="7.6"/>
	<path class="st3" d="M36.1,22H25.6c-2.9,0-5.2,2.4-5.2,5.2V40c0,2.5,2,4.9,4.3,5.2v8.1c0,1.4,1.1,2.5,2.5,2.5h6
		c1.4,0,2.5-1.1,2.5-2.5v-8.1h0.2c2.9,0,5.2-2.4,5.2-5.2V27.2C41.5,24.3,39,22,36.1,22z"/>
</g>
</svg>
