<?xml version="1.0" encoding="utf-8"?>
<!-- Generator: Adobe Illustrator 22.1.0, SVG Export Plug-In . SVG Version: 6.00 Build 0)  -->
<svg version="1.1" id="Layer_1" xmlns="http://www.w3.org/2000/svg" xmlns:xlink="http://www.w3.org/1999/xlink" x="0px" y="0px"
	 viewBox="0 0 100 100" style="enable-background:new 0 0 100 100;" xml:space="preserve">
<style type="text/css">
	.st0{fill:none;stroke:#7655FF;stroke-width:2;stroke-linecap:round;stroke-linejoin:round;stroke-miterlimit:10;}
	.st1{fill:none;stroke:#FFFFFF;stroke-width:2;stroke-miterlimit:10;}
	.st2{fill:#FFFFFF;}
</style>
<path class="st0" d="M5.5,66.3"/>
<circle class="st1" cx="21.6" cy="58.9" r="12.4"/>
<circle class="st1" cx="51.8" cy="58.9" r="12.4"/>
<circle class="st1" cx="82" cy="58.9" r="12.4"/>
<circle class="st1" cx="36.3" cy="71.4" r="12.4"/>
<circle class="st1" cx="66.5" cy="71.4" r="12.4"/>
<g>
	<g>
		<circle class="st2" cx="22.6" cy="19.5" r="3.3"/>
		<path class="st2" d="M24.9,24h-4.6c-1.3,0-2.3,1-2.3,2.3V32c0,1.1,0.9,2.1,1.9,2.3v3.6c0,0.6,0.5,1.1,1.1,1.1h2.6
			c0.6,0,1.1-0.5,1.1-1.1v-3.6h0.1c1.3,0,2.3-1,2.3-2.3v-5.6C27.2,25.1,26.1,24,24.9,24z"/>
	</g>
	<g>
		<circle class="st2" cx="36.7" cy="19.5" r="3.3"/>
		<path class="st2" d="M38.9,24h-4.6c-1.3,0-2.3,1-2.3,2.3V32c0,1.1,0.9,2.1,1.9,2.3v3.6c0,0.6,0.5,1.1,1.1,1.1h2.7
			c0.6,0,1.1-0.5,1.1-1.1v-3.6h0.1c1.3,0,2.3-1,2.3-2.3v-5.6C41.3,25.1,40.3,24,38.9,24z"/>
	</g>
	<g>
		<circle class="st2" cx="50.8" cy="19.5" r="3.3"/>
		<path class="st2" d="M53.1,24h-4.6c-1.3,0-2.3,1-2.3,2.3V32c0,1.1,0.9,2.1,1.9,2.3v3.6c0,0.6,0.5,1.1,1.1,1.1h2.6
			c0.6,0,1.1-0.5,1.1-1.1v-3.6H53c1.3,0,2.3-1,2.3-2.3v-5.6C55.5,25.1,54.3,24,53.1,24z"/>
	</g>
	<g>
		<circle class="st2" cx="64.9" cy="19.5" r="3.3"/>
		<path class="st2" d="M67.2,24h-4.6c-1.3,0-2.3,1-2.3,2.3V32c0,1.1,0.9,2.1,1.9,2.3v3.6c0,0.6,0.5,1.1,1.1,1.1h2.6
			c0.6,0,1.1-0.5,1.1-1.1v-3.6h0.1c1.3,0,2.3-1,2.3-2.3v-5.6C69.5,25.1,68.5,24,67.2,24z"/>
	</g>
	<g>
		<circle class="st2" cx="79" cy="19.5" r="3.3"/>
		<path class="st2" d="M81.3,24h-4.6c-1.3,0-2.3,1-2.3,2.3V32c0,1.1,0.9,2.1,1.9,2.3v3.6c0,0.6,0.5,1.1,1.1,1.1h2.6
			c0.6,0,1.1-0.5,1.1-1.1v-3.6h0.1c1.3,0,2.3-1,2.3-2.3v-5.6C83.7,25.1,82.6,24,81.3,24z"/>
	</g>
</g>
</svg>
