<?xml version="1.0" encoding="utf-8"?>
<!-- Generator: Adobe Illustrator 22.0.1, SVG Export Plug-In . SVG Version: 6.00 Build 0)  -->
<svg version="1.1" id="Layer_1" xmlns="http://www.w3.org/2000/svg" xmlns:xlink="http://www.w3.org/1999/xlink" x="0px" y="0px"
	 viewBox="0 0 100 100" style="enable-background:new 0 0 100 100;" xml:space="preserve">
<style type="text/css">
	.st0{fill:#F05328;stroke:#FFFFFF;stroke-width:2;stroke-miterlimit:10;}
	.st1{fill:#FFFFFF;}
	.st2{fill:none;stroke:#FFFFFF;stroke-width:2;stroke-linecap:round;stroke-linejoin:round;stroke-miterlimit:10;}
	.st3{fill:none;stroke:#FFFFFF;stroke-width:2;stroke-miterlimit:10;}
	.st4{fill:#FFFFFF;stroke:#FFFFFF;stroke-width:2;stroke-miterlimit:10;}
</style>
<g>
	<g>
		<ellipse class="st0" cx="40.1" cy="47" rx="38.6" ry="39.4"/>
		<ellipse class="st1" cx="70.5" cy="49.4" rx="1.3" ry="1.3"/>
		<ellipse class="st1" cx="19" cy="20.6" rx="1.3" ry="1.3"/>
		<ellipse class="st1" cx="11.5" cy="30.4" rx="1.3" ry="1.3"/>
		<ellipse class="st1" cx="10.9" cy="45.9" rx="1.3" ry="1.3"/>
		<ellipse class="st1" cx="18.5" cy="33.9" rx="1.3" ry="1.3"/>
		<ellipse class="st1" cx="14" cy="65" rx="1.3" ry="1.3"/>
		<ellipse class="st1" cx="26.6" cy="75.5" rx="1.3" ry="1.3"/>
		<ellipse class="st1" cx="58.1" cy="47.7" rx="1.3" ry="1.3"/>
		<ellipse class="st1" cx="56.6" cy="26" rx="1.3" ry="1.3"/>
		<ellipse class="st1" cx="50.5" cy="28.9" rx="1.3" ry="1.3"/>
		<ellipse class="st1" cx="67.3" cy="36.5" rx="1.3" ry="1.3"/>
		<ellipse class="st1" cx="66.2" cy="62.8" rx="1.3" ry="1.3"/>
		<g>
			<path class="st2" d="M35,11c0,0,9,2,13.4,12.2"/>
			<path class="st2" d="M50.5,15.6c0,0-8.6-3.2-17.8,3.3"/>
		</g>
	</g>
	<g>
		<line class="st3" x1="35.5" y1="60.3" x2="99.1" y2="60.3"/>
		<g>
			<path class="st0" d="M67.3,63.9v25.4c7.7,0,14.7-3.2,19.7-8.3l-17.5-18C68.9,63.5,68.2,63.9,67.3,63.9z"/>
			<path class="st0" d="M39.3,60.7c0,7.9,3.1,15,8.1,20.1L65,62.9c-0.6-0.5-1-1.3-1-2.2H39.3z"/>
			<path class="st0" d="M69.5,62.9L87,80.8c5-5.1,8.1-12.2,8.1-20.1H70.5C70.5,61.6,70.1,62.4,69.5,62.9z"/>
			<path class="st0" d="M65,62.8L47.7,81.1c5.1,5.1,12.1,8.1,19.8,8l-0.4-25.4C66.2,63.7,65.5,63.3,65,62.8z"/>
			<path class="st4" d="M67.3,60.7L67.3,60.7L67.3,60.7z"/>
			<path class="st4" d="M67.3,60.7L67.3,60.7L67.3,60.7z"/>
		</g>
		<path class="st1" d="M95.2,60.3L95.2,60.3c0,15.8-12.5,28.5-27.9,28.5S39.3,76.1,39.3,60.3l0,0h-3.9c0,17.9,14.3,32.3,31.8,32.3
			s31.8-14.5,31.8-32.3C99.1,60.3,95.2,60.3,95.2,60.3z"/>
		<path class="st1" d="M63.8,60.6L63.8,60.6c0,2,1.5,3.7,3.6,3.7c1.9,0,3.6-1.6,3.6-3.7l0,0H63.8z"/>
	</g>
</g>
</svg>
