<?xml version="1.0" encoding="utf-8"?>
<!-- Generator: Adobe Illustrator 22.0.1, SVG Export Plug-In . SVG Version: 6.00 Build 0)  -->
<svg version="1.1" id="Layer_1" xmlns="http://www.w3.org/2000/svg" xmlns:xlink="http://www.w3.org/1999/xlink" x="0px" y="0px"
	 viewBox="0 0 80.2 68" style="enable-background:new 0 0 80.2 68;" xml:space="preserve">
<style type="text/css">
	.st0{fill:#F05127;stroke:#FFFFFF;stroke-miterlimit:10;}
	.st1{fill:#FFFFFF;}
	.st2{fill:none;stroke:#FFFFFF;stroke-linecap:round;stroke-linejoin:round;stroke-miterlimit:10;}
	.st3{fill:none;stroke:#FFFFFF;stroke-width:0.75;stroke-miterlimit:10;}
	.st4{fill:#FFFFFF;stroke:#FFFFFF;stroke-miterlimit:10;}
</style>
<g>
	<g>
		<circle class="st0" cx="35.4" cy="32.8" r="30"/>
		<circle class="st1" cx="59" cy="34.6" r="1"/>
		<circle class="st1" cx="19" cy="12.7" r="1"/>
		<circle class="st1" cx="13.2" cy="20.1" r="1"/>
		<circle class="st1" cx="12.7" cy="31.9" r="1"/>
		<circle class="st1" cx="18.6" cy="22.8" r="1"/>
		<circle class="st1" cx="15.1" cy="46.5" r="1"/>
		<circle class="st1" cx="24.9" cy="54.5" r="1"/>
		<circle class="st1" cx="49.4" cy="33.3" r="1"/>
		<circle class="st1" cx="48.2" cy="16.8" r="1"/>
		<circle class="st1" cx="43.5" cy="19" r="1"/>
		<circle class="st1" cx="56.5" cy="24.8" r="1"/>
		<circle class="st1" cx="55.7" cy="44.8" r="1"/>
		<g>
			<path class="st2" d="M31.4,5.4c0,0,7,1.5,10.4,9.3"/>
			<path class="st2" d="M43.5,8.9c0,0-6.7-2.4-13.8,2.5"/>
		</g>
	</g>
	<g>
		<line class="st3" x1="31.8" y1="42.9" x2="81.2" y2="42.9"/>
		<g>
			<path class="st0" d="M56.5,45.6v19.3c6,0,11.4-2.4,15.3-6.3L58.2,44.9C57.8,45.3,57.2,45.6,56.5,45.6z"/>
			<path class="st0" d="M34.8,43.2c0,6,2.4,11.4,6.3,15.3l13.6-13.6c-0.5-0.4-0.8-1-0.8-1.7H34.8z"/>
			<path class="st0" d="M58.2,44.9l13.6,13.6c3.9-3.9,6.3-9.3,6.3-15.3H59C59,43.9,58.7,44.5,58.2,44.9z"/>
			<path class="st0" d="M54.7,44.8L41.3,58.7c4,3.9,9.4,6.2,15.4,6.1l-0.3-19.3C55.7,45.5,55.1,45.2,54.7,44.8z"/>
			<polygon class="st4" points="56.5,43.2 56.5,43.2 56.5,43.2 			"/>
			<polygon class="st4" points="56.5,43.2 56.5,43.2 56.5,43.2 			"/>
		</g>
		<path class="st1" d="M78.2,42.9C78.2,42.9,78.2,42.9,78.2,42.9c0,12-9.7,21.7-21.7,21.7s-21.7-9.7-21.7-21.7c0,0,0,0,0,0h-3
			c0,13.6,11.1,24.6,24.7,24.6s24.7-11,24.7-24.6H78.2z"/>
		<path class="st1" d="M53.8,43.1L53.8,43.1c0,1.5,1.2,2.8,2.8,2.8c1.5,0,2.8-1.2,2.8-2.8l0,0L53.8,43.1z"/>
	</g>
</g>
</svg>
