<?xml version="1.0" encoding="utf-8"?>
<!-- Generator: Adobe Illustrator 22.1.0, SVG Export Plug-In . SVG Version: 6.00 Build 0)  -->
<svg version="1.1" id="Layer_1" xmlns="http://www.w3.org/2000/svg" xmlns:xlink="http://www.w3.org/1999/xlink" x="0px" y="0px"
	 viewBox="0 0 60 60" style="enable-background:new 0 0 60 60;" xml:space="preserve">
<style type="text/css">
	.st0{fill:#39B54A;stroke:#EBE6E5;stroke-linecap:round;stroke-linejoin:round;stroke-miterlimit:10;}
</style>
<g>
	<path class="st0" d="M11,14.6c0,0,6.2-12.3,9.9-12.7h16.8c0,0,4.1,0.1,5.8,3.4L47,12l4.1-1.8l-5.5,11.4L32,21.1l4.2-2.2L30.3,8.3
		l-7.5,12.9L11,14.6z"/>
	<path class="st0" d="M52.5,21c0,0,8,11.2,6.6,14.7l-7.9,14.8c0,0-2,3.5-5.7,3.5l-7.6,0l-0.3,4.5l-7.5-10.2l6.7-11.8l0,4.8L49,41
		l-7.9-12.7L52.5,21z"/>
	<path class="st0" d="M26,54.5c0,0-13.8,0.6-16-2.4L1.8,37.4c0,0-1.9-3.6,0.2-6.7l4.1-6.4l-3.6-2.7l12.7-0.7l6.3,12l-4-2.6L11,40.7
		l14.9,0.3L26,54.5z"/>
</g>
</svg>
