<?xml version="1.0" encoding="utf-8"?>
<!-- Generator: Adobe Illustrator 22.1.0, SVG Export Plug-In . SVG Version: 6.00 Build 0)  -->
<svg version="1.1" id="Layer_1" xmlns="http://www.w3.org/2000/svg" xmlns:xlink="http://www.w3.org/1999/xlink" x="0px" y="0px"
	 viewBox="0 0 100 100" style="enable-background:new 0 0 100 100;" xml:space="preserve">
<style type="text/css">
	.st0{fill:none;stroke:#FFFFFF;stroke-width:2;stroke-linejoin:round;stroke-miterlimit:10;}
</style>
<g>
	<path class="st0" d="M18.1,23.8c0,0,10.3-20.7,16.5-21.3h28.1c0,0,6.8,0.2,9.7,5.7l5.9,11.1l6.8-3.1l-9.3,19.1l-22.7-0.6l7.1-3.7
		l-9.9-17.7L37.9,34.8L18.1,23.8z"/>
	<path class="st0" d="M87.4,34.6c0,0,13.4,18.8,11,24.5L85.2,83.9c0,0-3.3,5.9-9.5,5.8H63l-0.5,7.4L50,80l11.3-19.7v7.9l20.3-0.4
		L68.5,46.9L87.4,34.6z"/>
	<path class="st0" d="M43.1,90.4c0,0-23,1-26.6-4L2.9,61.8c0,0-3.1-6.1,0.2-11.1L10,40l-5.9-4.5l21.2-1.2l10.4,20.1L29,50.1
		L18.2,67.3l24.9,0.5V90.4z"/>
</g>
</svg>
