<?xml version="1.0" encoding="utf-8"?>
<!-- Generator: Adobe Illustrator 22.1.0, SVG Export Plug-In . SVG Version: 6.00 Build 0)  -->
<svg version="1.1" id="Layer_1" xmlns="http://www.w3.org/2000/svg" xmlns:xlink="http://www.w3.org/1999/xlink" x="0px" y="0px"
	 viewBox="0 0 100 100" style="enable-background:new 0 0 100 100;" xml:space="preserve">
<style type="text/css">
	.st0{fill:none;stroke:#FFFFFF;stroke-width:2;stroke-miterlimit:10;}
</style>
<path class="st0" d="M17.8,66.7h-7.3c-0.9,0-1.6-0.7-1.6-1.6v-4.7c0-0.9,0.7-1.6,1.6-1.6h7.3c0.9,0,1.6,0.7,1.6,1.6v4.7
	C19.4,66,18.7,66.7,17.8,66.7z"/>
<path class="st0" d="M53.4,66.7h-7.3c-0.9,0-1.6-0.7-1.6-1.6v-4.7c0-0.9,0.7-1.6,1.6-1.6h7.3c0.9,0,1.6,0.7,1.6,1.6v4.7
	C55,66,54.2,66.7,53.4,66.7z"/>
<path class="st0" d="M10.3,35.7l4.6-13c0,0,1.2-2.4,3.3-2.2h26.3c0,0,5-0.6,5.8,2.7l4.5,12.5H10.3z"/>
<path class="st0" d="M57.7,58.8H7.5c-1.9,0-3.5-1.6-3.5-3.5V39.2c0-1.9,1.6-3.5,3.5-3.5h50.2c1.9,0,3.5,1.6,3.5,3.5v16.1
	C61,57.2,59.5,58.8,57.7,58.8z"/>
<circle class="st0" cx="14.3" cy="48.7" r="4.5"/>
<circle class="st0" cx="49.8" cy="48.7" r="4.5"/>
<path class="st0" d="M66.8,81.5h-3.7c-0.9,0-1.6-0.7-1.6-1.5v-1.9c0-0.9,0.7-1.5,1.6-1.5h3.7c0.9,0,1.6,0.7,1.6,1.5V80
	C68.4,80.9,67.6,81.5,66.8,81.5z"/>
<path class="st0" d="M90.2,81.5h-3.7c-0.9,0-1.6-0.7-1.6-1.5v-1.9c0-0.9,0.7-1.5,1.6-1.5h3.7c0.9,0,1.6,0.7,1.6,1.5V80
	C91.9,80.9,91.1,81.5,90.2,81.5z"/>
<path class="st0" d="M62.4,61.1l3.1-8.6c0,0,0.8-1.6,2.2-1.4h17.4c0,0,3.3-0.4,3.8,1.8l2.9,8.3L62.4,61.1L62.4,61.1z"/>
<path class="st0" d="M92.4,76.5H61.8c-1.9,0-3.5-1.5-3.5-3.4v-8c0-1.8,1.6-3.4,3.5-3.4h30.8c1.9,0,3.5,1.5,3.5,3.4v8
	C95.9,75.1,94.4,76.5,92.4,76.5z"/>
<ellipse class="st0" cx="65.1" cy="70.1" rx="2.9" ry="2.8"/>
<ellipse class="st0" cx="88.4" cy="70.1" rx="2.9" ry="2.8"/>
</svg>
