<?xml version="1.0" encoding="utf-8"?>
<!-- Generator: Adobe Illustrator 22.1.0, SVG Export Plug-In . SVG Version: 6.00 Build 0)  -->
<svg version="1.1" id="Layer_1" xmlns="http://www.w3.org/2000/svg" xmlns:xlink="http://www.w3.org/1999/xlink" x="0px" y="0px"
	 viewBox="0 0 100 100" style="enable-background:new 0 0 100 100;" xml:space="preserve">
<style type="text/css">
	.st0{fill:none;stroke:#FFFFFF;stroke-width:2.5;stroke-linecap:round;stroke-linejoin:round;stroke-miterlimit:10;}
	.st1{fill:none;stroke:#FFFFFF;stroke-width:2.5;stroke-miterlimit:10;}
</style>
<path class="st0" d="M35.3,66.8c0,0-2.3-11.6-7.1-21.2c0,0-7.7-15.2-1.9-26.4c0,0,7.7-13.9,22.7-14.5c0,0,15.8-1.5,22.7,11
	c0,0,6.4,8.7,3.3,22c0,0-3.3,9.8-5,12.7c0,0-4.8,8.7-5.2,15.4l-0.2,1.5L35.3,66.8z"/>
<path class="st0" d="M61.2,65.2c0,0-2,3.2-4.3-0.3c0,0-0.2-5.3-0.7-5.9c0,0-2.7,1.1-5.1,0.8c0,0-4-0.3-6.4-2.2c0,0-3.8-2.7-5.9-6.9
	c0,0-1.7-4.2-1.6-7.6c0,0,0.2-5.9,1.9-9.4c0,0,1.6-3.6,3.9-6.2c0,0,1,3.1,4.1,5.6c0,0,4.6,3.2,7.5,4.1c0,0,5,2.1,6.5,4.1
	c0,0,3.9,4.1,2.3,9.3c0,0-1.3,4.7-4,6.7C59.3,57.3,61,61.6,61.2,65.2z"/>
<path class="st1" d="M35.3,66.6l-0.4,22.7h2.2c0,0-0.9,5.1,3.5,6L59.3,95c0,0,4.2-0.1,4.1-5.7h1.4V67L35.3,66.6z"/>
</svg>
