<?xml version="1.0" encoding="utf-8"?>
<!-- Generator: Adobe Illustrator 22.1.0, SVG Export Plug-In . SVG Version: 6.00 Build 0)  -->
<svg version="1.1" id="Layer_1" xmlns="http://www.w3.org/2000/svg" xmlns:xlink="http://www.w3.org/1999/xlink" x="0px" y="0px"
	 viewBox="0 0 60 60" style="enable-background:new 0 0 60 60;" xml:space="preserve">
<style type="text/css">
	.st0{fill:#FFEC5F;stroke:#F7D531;stroke-linecap:round;stroke-linejoin:round;stroke-miterlimit:10;}
	.st1{fill:#7BB142;stroke:#71A341;stroke-linecap:round;stroke-linejoin:round;stroke-miterlimit:10;}
	.st2{fill:#A09F9F;stroke:#757576;stroke-miterlimit:10;}
</style>
<path class="st0" d="M21.3,40.5c0,0-1.4-6.9-4.2-12.6c0,0-4.6-9-1.1-15.6c0,0,4.6-8.2,13.4-8.6c0,0,9.4-0.9,13.4,6.5
	c0,0,3.8,5.2,2,13c0,0-2,5.8-3,7.5c0,0-2.8,5.2-3.1,9.1l-0.1,0.9L21.3,40.5z"/>
<path class="st1" d="M36.6,39.5c0,0-1.2,1.9-2.5-0.2c0,0-0.1-3.1-0.4-3.5c0,0-1.6,0.7-3,0.5c0,0-2.4-0.2-3.8-1.3
	c0,0-2.3-1.6-3.5-4.1c0,0-1-2.5-0.9-4.5c0,0,0.1-3.5,1.1-5.5c0,0,0.9-2.1,2.3-3.7c0,0,0.6,1.8,2.4,3.3c0,0,2.8,1.9,4.5,2.4
	c0,0,3,1.2,3.8,2.4c0,0,2.3,2.5,1.3,5.5c0,0-0.8,2.8-2.4,3.9C35.4,34.9,36.4,37.4,36.6,39.5z"/>
<path class="st2" d="M21.2,40.4L21,53.8h1.3c0,0-0.6,3,2.1,3.5l11.1-0.2c0,0,2.5-0.1,2.4-3.4h0.8V40.6L21.2,40.4z"/>
</svg>
