<?xml version="1.0" encoding="utf-8"?>
<!-- Generator: Adobe Illustrator 22.0.1, SVG Export Plug-In . SVG Version: 6.00 Build 0)  -->
<svg version="1.1" id="Layer_1" xmlns="http://www.w3.org/2000/svg" xmlns:xlink="http://www.w3.org/1999/xlink" x="0px" y="0px"
	 viewBox="0 0 100 100" style="enable-background:new 0 0 100 100;" xml:space="preserve">
<style type="text/css">
	.st0{fill:#FFFFFF;}
	.st1{fill:#17A7E0;}
	.st2{fill:none;stroke:#FFFFFF;stroke-linecap:round;stroke-linejoin:round;stroke-miterlimit:10;}
</style>
<path class="st0" d="M89.4,39.6c0-21.7-17.6-39.3-39.3-39.3S10.9,17.9,10.9,39.6c0,15.4,8.8,28.6,21.7,35.1l17.6,24l17.6-24
	C80.6,68.2,89.4,55,89.4,39.6z"/>
<circle class="st1" cx="50.2" cy="39.2" r="34.5"/>
<g>
	<path class="st2" d="M44,35.5c0,0-2.3,1.9,0.9,2.7c0,0,0.2,0.9-0.9,1.5c-1,0.7,0.7,2.4,1.2,1.9c0,0-2,1.9-0.7,2.2
		c0,0-1.6,3.8,1.9,5.3c0,0,4.4,4.5,7.2,4.8c2.8,0.3,3.3,0.9,3.3,0.9s2.8,1,3.2,0.6s8.4,1.9,4.5-2l0.4-1c0,0,3.5,2.9,2.3-0.1
		c0,0,1.7-1,0.7-1.7s-2.6-8.5-5.3-4.7c0,0-3.1,0.7-1.2-2c0,0-0.4-3.7-4.4-4.3S54.7,38,54.7,38s-0.5-3.4-3.5,1c0,0,1.7-3.5-2.5-2.7
		c0,0,1.5-4.4-1.9-2.3C46.9,34,46.5,36,44,35.5z"/>
	<path class="st2" d="M30.8,26c0,0-1.5-1.5,0.5-2.4s5.4-1.4,6.1,0c0,0,1.8,0.3,1.9,1.1c0,0,1.6-0.2,2,0.5c0,0,1-0.1,1.6,1.2
		c0.7,1.2,3.3,3.3-1.4,3.7c0,0-1.8,1.7-2.8,1s-2.9-0.3-2.9-0.3s-3.9,0.5-3.1-1.4C33.5,27.6,28,30.4,30.8,26z"/>
</g>
</svg>
