<?xml version="1.0" encoding="utf-8"?>
<!-- Generator: Adobe Illustrator 22.0.1, SVG Export Plug-In . SVG Version: 6.00 Build 0)  -->
<svg version="1.1" id="Layer_1" xmlns="http://www.w3.org/2000/svg" xmlns:xlink="http://www.w3.org/1999/xlink" x="0px" y="0px"
	 viewBox="0 0 100 100" style="enable-background:new 0 0 100 100;" xml:space="preserve">
<style type="text/css">
	.st0{fill:#FFFFFF;}
</style>
<g>
	<g>
		<circle class="st0" cx="8.2" cy="37.7" r="4.9"/>
		<path class="st0" d="M11.6,44.4H4.8c-1.9,0-3.5,1.6-3.5,3.5v8.3c0,1.7,1.2,3.1,2.9,3.4v5.3c0,0.9,0.7,1.7,1.7,1.7h3.9
			c0.9,0,1.7-0.7,1.7-1.7v-5.3h0.2c1.9,0,3.5-1.6,3.5-3.5v-8.3C15.1,45.9,13.5,44.4,11.6,44.4z"/>
	</g>
	<g>
		<circle class="st0" cx="29.1" cy="37.7" r="4.9"/>
		<path class="st0" d="M32.5,44.4h-6.8c-1.9,0-3.5,1.6-3.5,3.5v8.3c0,1.7,1.2,3.1,2.9,3.4v5.3c0,0.9,0.7,1.7,1.7,1.7h3.9
			c0.9,0,1.7-0.7,1.7-1.7v-5.3h0.2c1.9,0,3.5-1.6,3.5-3.5v-8.3C36,45.9,34.4,44.4,32.5,44.4z"/>
	</g>
	<g>
		<circle class="st0" cx="50" cy="37.7" r="4.9"/>
		<path class="st0" d="M53.4,44.4h-6.8c-1.9,0-3.5,1.6-3.5,3.5v8.3c0,1.7,1.2,3.1,2.9,3.4v5.3c0,0.9,0.7,1.7,1.7,1.7h3.9
			c0.9,0,1.7-0.7,1.7-1.7v-5.3h0.2c1.9,0,3.5-1.6,3.5-3.5v-8.3C56.9,45.9,55.3,44.4,53.4,44.4z"/>
	</g>
	<g>
		<circle class="st0" cx="70.9" cy="37.7" r="4.9"/>
		<path class="st0" d="M74.3,44.4h-6.8c-1.9,0-3.5,1.6-3.5,3.5v8.3c0,1.7,1.2,3.1,2.9,3.4v5.3c0,0.9,0.7,1.7,1.7,1.7h3.9
			c0.9,0,1.7-0.7,1.7-1.7v-5.3h0.2c1.9,0,3.5-1.6,3.5-3.5v-8.3C77.8,45.9,76.2,44.4,74.3,44.4z"/>
	</g>
	<g>
		<circle class="st0" cx="91.8" cy="37.7" r="4.9"/>
		<path class="st0" d="M95.2,44.4h-6.8c-1.9,0-3.5,1.6-3.5,3.5v8.3c0,1.7,1.2,3.1,2.9,3.4v5.3c0,0.9,0.7,1.7,1.7,1.7h3.9
			c0.9,0,1.7-0.7,1.7-1.7v-5.3h0.2c1.9,0,3.5-1.6,3.5-3.5v-8.3C98.7,45.9,97.1,44.4,95.2,44.4z"/>
	</g>
</g>
</svg>
