<?xml version="1.0" encoding="utf-8"?>
<!-- Generator: Adobe Illustrator 22.0.1, SVG Export Plug-In . SVG Version: 6.00 Build 0)  -->
<svg version="1.1" id="Layer_1" xmlns="http://www.w3.org/2000/svg" xmlns:xlink="http://www.w3.org/1999/xlink" x="0px" y="0px"
	 viewBox="0 0 100 100" style="enable-background:new 0 0 100 100;" xml:space="preserve">
<style type="text/css">
	.st0{fill:#FFFFFF;stroke:#FFFFFF;stroke-width:2;stroke-miterlimit:10;}
	.st1{fill:#17A7E0;stroke:#FFFFFF;stroke-width:2;stroke-miterlimit:10;}
</style>
<g>
	<path class="st0" d="M89.4,39.6c0-21.7-17.6-39.3-39.3-39.3S10.9,17.9,10.9,39.6c0,15.4,8.8,28.6,21.7,35.1l17.6,24l17.6-24
		C80.6,68.2,89.4,55,89.4,39.6z"/>
	<circle class="st1" cx="50.2" cy="39.2" r="34.5"/>
	<g>
		<path class="st0" d="M43.8,34.6c0,0-2.8,2.3,1.1,3.3c0,0,0.2,1.1-1.1,1.9c-1.2,0.8,0.9,3,1.5,2.3c0,0-2.5,2.3-0.8,2.7
			c0,0-2,4.7,2.3,6.5c0,0,5.4,5.5,8.8,5.9s4,1.1,4,1.1s3.4,1.2,3.9,0.7s10.3,2.3,5.5-2.5l0.5-1.2c0,0,4.3,3.6,2.8-0.1
			c0,0,2.1-1.2,0.9-2.1c-1.2-0.9-3.2-10.5-6.5-5.8c0,0-3.8,0.9-1.5-2.5c0,0-0.5-4.6-5.4-5.3S57,37.7,57,37.7s-0.6-4.2-4.3,1.2
			c0,0,2.1-4.3-3.1-3.3c0,0,1.9-5.4-2.3-2.8C47.4,32.8,46.9,35.3,43.8,34.6z"/>
		<path class="st0" d="M27.6,23c0,0-1.9-1.9,0.6-2.9s6.6-1.7,7.5,0c0,0,2.2,0.4,2.3,1.4c0,0,2-0.2,2.4,0.6c0,0,1.2-0.1,2,1.5
			c0.9,1.5,4.1,4-1.7,4.6c0,0-2.2,2.1-3.4,1.2S33.7,29,33.7,29s-4.8,0.6-3.8-1.7S24.2,28.4,27.6,23z"/>
	</g>
</g>
</svg>
