<?xml version="1.0" encoding="utf-8"?>
<!-- Generator: Adobe Illustrator 22.0.1, SVG Export Plug-In . SVG Version: 6.00 Build 0)  -->
<svg version="1.1" id="Layer_1" xmlns="http://www.w3.org/2000/svg" xmlns:xlink="http://www.w3.org/1999/xlink" x="0px" y="0px"
	 viewBox="0 0 100 100" style="enable-background:new 0 0 100 100;" xml:space="preserve">
<style type="text/css">
	.st0{fill:#CCCCCC;stroke:#808080;stroke-miterlimit:10;}
	.st1{fill:#17A7E0;stroke:#0071BC;stroke-miterlimit:10;}
	.st2{fill:#009245;stroke:#006837;stroke-miterlimit:10;}
</style>
<g>
	<path class="st0" d="M88.3,40.1C88.3,18.7,71,1.3,49.6,1.3S10.9,18.7,10.9,40.1c0,15.2,8.7,28.2,21.4,34.6l17.4,23.7L67,74.7
		C79.7,68.3,88.3,55.3,88.3,40.1z"/>
	<circle class="st1" cx="49.7" cy="39.7" r="34"/>
	<g>
		<path class="st2" d="M43.4,35.1c0,0-2.8,2.3,1.1,3.3c0,0,0.2,1.1-1.1,1.9c-1.2,0.8,0.9,3,1.5,2.3c0,0-2.5,2.3-0.8,2.7
			c0,0-2,4.6,2.3,6.4c0,0,5.3,5.4,8.7,5.8c3.4,0.4,3.9,1.1,3.9,1.1s3.4,1.2,3.8,0.7c0.5-0.5,10.2,2.3,5.4-2.5l0.5-1.2
			c0,0,4.2,3.6,2.8-0.1c0,0,2.1-1.2,0.9-2.1c-1.2-0.9-3.2-10.4-6.4-5.7c0,0-3.7,0.9-1.5-2.5c0,0-0.5-4.5-5.3-5.2s-2.8-1.8-2.8-1.8
			s-0.6-4.1-4.2,1.2c0,0,2.1-4.2-3.1-3.3c0,0,1.9-5.3-2.3-2.8C46.9,33.4,46.4,35.8,43.4,35.1z"/>
		<path class="st2" d="M27.4,23.7c0,0-1.9-1.9,0.6-2.9s6.5-1.7,7.4,0c0,0,2.2,0.4,2.3,1.4c0,0,2-0.2,2.4,0.6c0,0,1.2-0.1,2,1.5
			c0.9,1.5,4,3.9-1.7,4.5c0,0-2.2,2.1-3.4,1.2c-1.2-0.9-3.6-0.4-3.6-0.4s-4.7,0.6-3.7-1.7C30.6,25.7,24,29,27.4,23.7z"/>
	</g>
</g>
</svg>
