<?xml version="1.0" encoding="utf-8"?>
<!-- Generator: Adobe Illustrator 22.1.0, SVG Export Plug-In . SVG Version: 6.00 Build 0)  -->
<svg version="1.1" id="Layer_1" xmlns="http://www.w3.org/2000/svg" xmlns:xlink="http://www.w3.org/1999/xlink" x="0px" y="0px"
	 viewBox="0 0 100 100" style="enable-background:new 0 0 100 100;" xml:space="preserve">
<style type="text/css">
	.st0{fill:none;stroke:#FFFFFF;stroke-width:2;stroke-linecap:round;stroke-linejoin:round;stroke-miterlimit:10;}
	.st1{fill:none;stroke:#FFFFFF;stroke-miterlimit:10;}
	.st2{fill:#FFFFFF;stroke:#FFFFFF;stroke-miterlimit:10;}
	.st3{fill:#6AFF84;stroke:#FFFFFF;stroke-miterlimit:10;}
	.st4{fill:#FFFFFF;}
</style>
<path class="st0" d="M156.4,111.9c0,0,0.6-5.4,8.7-5.4h29c0,0,8.8-0.5,8.8,5.4H156.4z"/>
<path class="st0" d="M158.4,75.7c0,0-9.8-2.6-15.7-10.7c0,0-4.8-6.8-3.1-13.3c0,0,1.3-3.3,5.2-3.2c0,0,5-0.6,5.6,4.3
	c0,0-1.3,7.8,3.8,7.1c0,0-2.1-14.9-1.3-15.3c0,0-9.5-5.8-17.3,1.9c0,0-6.1,8.1-0.6,16.4c0,0,9.1,18.3,28.5,20.2
	C163.6,83,158.5,77.3,158.4,75.7z"/>
<path class="st0" d="M200.5,76.3c0,0,10.2-2.7,16.2-11c0,0,5-7,3.2-13.7c0,0-1.4-3.4-5.4-3.3c0,0-5.2-0.6-5.8,4.5c0,0,1.4,8-4,7.3
	c0,0,2.1-15.3,1.3-15.8c0,0,9.9-5.9,17.9,2c0,0,6.3,8.3,0.6,16.8c0,0-9.4,18.8-29.5,20.8C195.2,83.9,200.4,77.9,200.5,76.3z"/>
<circle class="st1" cx="179.5" cy="58.7" r="17.5"/>
<path class="st2" d="M164.2,51.4l0.4,4.4l4.5-2.4c0,0,1.9-5.6,2.9-6.4l-3.8-1.6C168.3,45.3,164.9,48,164.2,51.4z"/>
<polygon class="st2" points="184.9,42.4 181.5,44.8 186.1,49.4 191.1,49.7 189.1,44 "/>
<polygon class="st2" points="175.3,59.6 183,58 187,64.4 181.9,70.3 174.5,67.1 "/>
<path class="st2" d="M162.8,62.3c0,0,3,5.1,5.3,6.6l0.2,3.2C168.3,72,163.1,67.3,162.8,62.3z"/>
<path class="st2" d="M196.7,55.6l-3.1,8.6l0.4,3.6C194.1,67.8,198.3,61.5,196.7,55.6z"/>
<line class="st3" x1="169.1" y1="53.4" x2="175.3" y2="59.6"/>
<path class="st3" d="M164.2,56.5"/>
<path class="st3" d="M164.6,55.8c0,0-1.9,4.4-0.7,8.2"/>
<path class="st3" d="M168.1,68.9"/>
<line class="st3" x1="174.5" y1="67.1" x2="168.1" y2="68.9"/>
<line class="st3" x1="187" y1="64.4" x2="193.6" y2="64.2"/>
<line class="st3" x1="186.1" y1="49.4" x2="183" y2="58"/>
<path class="st1" d="M191.1,49.7c0,0,3.9,2.8,5.1,7.2"/>
<line class="st3" x1="181.9" y1="70.3" x2="183" y2="75.3"/>
<path class="st1" d="M172.1,46.9c0,0,5.2-3.3,9.5-2.1"/>
<path class="st0" d="M153.4,41.4c0,0,0-4.8,4.6-4.8h44.1c0,0,4.9-0.5,3.6,5.4c0,0,1.6,27.3-8,38.9c0,0-3.1,4.2-8,7.1
	c0,0-5.3,1.5-4,6.4c0,0-1.3,5.3,2.8,7c0,0,6.7,1.2,5.6,5h-29c0,0-0.6-3.7,5.2-4.9c0,0,4.6-1.6,3.7-6.3c0,0,1.9-4.2-3-6.5
	c0,0-11-5.6-14.1-17.2C156.9,71.5,151.5,53,153.4,41.4z"/>
<path class="st4" d="M186,97.1h-12.5c-1.4,0-2.6-1.2-2.6-2.6v0c0-1.4,1.2-2.6,2.6-2.6H186c1.4,0,2.6,1.2,2.6,2.6v0
	C188.6,95.9,187.4,97.1,186,97.1z"/>
<polygon class="st0" points="45.1,-171.8 48.3,-179.8 56.5,-176.6 64.2,-180.8 69.1,-173.4 77.6,-172.7 77.6,-163.2 83.5,-157.8 
	78.4,-150.5 80.3,-141.3 71.7,-139.5 68.3,-131.6 59.5,-134.6 51.7,-130.4 46.8,-137.8 38.4,-138.8 39.2,-147.6 32.1,-153.4 
	37.7,-160.3 35.8,-169 "/>
<polygon class="st0" points="40.5,-127.9 43.9,-130.4 49.6,-122.2 59.6,-126.3 70.3,-122.2 73.8,-130.4 76.3,-128.6 76.3,-92.5 
	58.3,-107.8 40.5,-92.5 "/>
<g>
	<circle class="st1" cx="51.2" cy="44.7" r="17.4"/>
	<path class="st2" d="M35.9,37.4l0.4,4.4l4.5-2.4c0,0,1.8-5.5,2.9-6.4L40,31.4C40,31.4,36.7,34,35.9,37.4z"/>
	<polygon class="st2" points="56.6,28.5 53.2,30.9 57.7,35.5 62.8,35.8 60.8,30.1 	"/>
	<polygon class="st2" points="47.1,45.6 54.7,44.1 58.7,50.4 53.6,56.3 46.2,53 	"/>
	<path class="st2" d="M34.6,48.3c0,0,3,5.1,5.2,6.6l0.2,3.2C40.1,58,34.9,53.3,34.6,48.3z"/>
	<path class="st2" d="M68.3,41.6l-3.1,8.6l0.4,3.6C65.7,53.8,69.9,47.5,68.3,41.6z"/>
	<line class="st3" x1="40.9" y1="39.4" x2="47.1" y2="45.6"/>
	<path class="st3" d="M35.9,42.5"/>
	<path class="st1" d="M36.4,41.8c0,0-1.9,4.4-0.7,8.2"/>
	<path class="st3" d="M39.9,54.8"/>
	<line class="st3" x1="46.2" y1="53" x2="39.9" y2="54.8"/>
	<line class="st3" x1="58.7" y1="50.4" x2="65.3" y2="50.2"/>
	<line class="st3" x1="57.7" y1="35.5" x2="54.7" y2="44.1"/>
	<path class="st1" d="M62.8,35.8c0,0,3.9,2.8,5,7.2"/>
	<line class="st3" x1="53.6" y1="56.3" x2="54.7" y2="61.2"/>
	<path class="st1" d="M43.8,33c0,0,5.2-3.3,9.4-2.1"/>
</g>
<g id="VALKPc.tif">
	
		<image style="overflow:visible;" width="511" height="511" id="Layer_0" xlink:href="A351ED6CB90B28AD.png"  transform="matrix(0.2862 0 0 0.2862 -212.2049 -35.6825)">
	</image>
</g>
<g>
	<polygon class="st0" points="7.7,82.2 7.7,18.9 94.9,18.9 94.9,82.2 82.5,70.4 19.8,70.4 	"/>
	<line class="st0" x1="7.7" y1="18.9" x2="19.8" y2="70.4"/>
	<line class="st0" x1="94.9" y1="18.9" x2="82.5" y2="70.4"/>
</g>
</svg>
