<?xml version="1.0" encoding="utf-8"?>
<!-- Generator: Adobe Illustrator 22.1.0, SVG Export Plug-In . SVG Version: 6.00 Build 0)  -->
<svg version="1.1" id="Layer_1" xmlns="http://www.w3.org/2000/svg" xmlns:xlink="http://www.w3.org/1999/xlink" x="0px" y="0px"
	 viewBox="0 0 60 60" style="enable-background:new 0 0 60 60;" xml:space="preserve">
<style type="text/css">
	.st0{fill:#E2574C;stroke:#D34D46;stroke-width:2;stroke-miterlimit:10;}
	.st1{fill:#BF392C;stroke:#AF2F28;stroke-width:2;stroke-miterlimit:10;}
	.st2{fill:#EFC75E;stroke:#F2BB40;stroke-width:2;stroke-miterlimit:10;}
	.st3{fill:none;stroke:#000000;stroke-miterlimit:10;}
	.st4{stroke:#000000;stroke-miterlimit:10;}
	.st5{fill:#6AFF84;stroke:#000000;stroke-miterlimit:10;}
	.st6{fill:none;stroke:#7F7F7F;stroke-width:2;stroke-linecap:round;stroke-linejoin:round;stroke-miterlimit:10;}
</style>
<path class="st0" d="M129.5,6.7h14.8L155.2,23c0,0-6.7-1.7-12.9,3L129.5,6.7z"/>
<path class="st1" d="M158.8,6.7h14.7L160.8,25c0,0-5.1-3.4-12.3-1.9L158.8,6.7z"/>
<circle class="st2" cx="152" cy="35.4" r="13.8"/>
<circle class="st2" cx="152" cy="35.4" r="7.1"/>
<g id="kA2A1s_1_">
	
		<image style="overflow:visible;" width="225" height="225" id="kA2A1s" xlink:href="D739A9334DB59230.jpg"  transform="matrix(0.4862 0 0 0.4862 -213.9324 99.6046)">
	</image>
</g>
<circle class="st3" cx="30" cy="28.5" r="10.1"/>
<path class="st4" d="M21.1,24.3l0.3,2.5l2.6-1.4c0,0,1.1-3.2,1.7-3.7l-2.2-0.9C23.5,20.8,21.5,22.4,21.1,24.3z"/>
<polygon class="st4" points="33.1,19.1 31.1,20.5 33.8,23.2 36.7,23.4 35.5,20.1 "/>
<polygon class="st4" points="27.6,29.1 32,28.2 34.3,31.9 31.3,35.3 27,33.4 "/>
<path class="st4" d="M20.3,30.6c0,0,1.7,3,3.1,3.8l0.1,1.8C23.5,36.3,20.5,33.6,20.3,30.6z"/>
<path class="st4" d="M39.9,26.7l-1.8,5l0.3,2.1C38.4,33.8,40.9,30.2,39.9,26.7z"/>
<line class="st5" x1="24" y1="25.5" x2="27.6" y2="29.1"/>
<path class="st5" d="M21.1,27.3"/>
<path class="st3" d="M21.3,26.9c0,0-1.1,2.6-0.4,4.7"/>
<path class="st5" d="M23.4,34.5"/>
<line class="st5" x1="27" y1="33.4" x2="23.4" y2="34.5"/>
<line class="st5" x1="34.3" y1="31.9" x2="38.2" y2="31.7"/>
<line class="st5" x1="33.8" y1="23.2" x2="32" y2="28.2"/>
<path class="st3" d="M36.7,23.4c0,0,2.3,1.6,2.9,4.2"/>
<line class="st5" x1="31.3" y1="35.3" x2="32" y2="38.2"/>
<path class="st3" d="M25.7,21.7c0,0,3-1.9,5.5-1.2"/>
<g>
	<polygon class="st6" points="4.6,50.4 4.6,13.5 55.4,13.5 55.4,50.4 48.2,43.5 11.7,43.5 	"/>
	<line class="st6" x1="4.6" y1="13.5" x2="11.7" y2="43.5"/>
	<line class="st6" x1="55.4" y1="13.5" x2="48.2" y2="43.5"/>
</g>
</svg>
