<?xml version="1.0" encoding="utf-8"?>
<!-- Generator: Adobe Illustrator 22.1.0, SVG Export Plug-In . SVG Version: 6.00 Build 0)  -->
<svg version="1.1" id="Layer_1" xmlns="http://www.w3.org/2000/svg" xmlns:xlink="http://www.w3.org/1999/xlink" x="0px" y="0px"
	 viewBox="0 0 100 100" style="enable-background:new 0 0 100 100;" xml:space="preserve">
<style type="text/css">
	.st0{fill:#FFFFFF;}
	.st1{fill:none;stroke:#FFFFFF;stroke-width:2;stroke-miterlimit:10;}
	.st2{fill:none;stroke:#FFFFFF;stroke-width:2;stroke-linecap:round;stroke-miterlimit:10;}
</style>
<g>
	<circle class="st0" cx="50.2" cy="50.1" r="24.2"/>
	<path class="st1" d="M75.6,56.9"/>
	<line class="st2" x1="50.2" y1="1.4" x2="50.2" y2="19.1"/>
	<line class="st2" x1="71.5" y1="6.3" x2="63.7" y2="22.2"/>
	<line class="st2" x1="88.5" y1="20" x2="74.5" y2="30.9"/>
	<line class="st2" x1="97.8" y1="39.7" x2="80.4" y2="43.5"/>
	<line class="st2" x1="97.5" y1="61.5" x2="80.3" y2="57.4"/>
	<line class="st2" x1="87.8" y1="81" x2="74.1" y2="69.8"/>
	<line class="st2" x1="70.5" y1="94.3" x2="63.1" y2="78.2"/>
	<line class="st2" x1="49.1" y1="98.7" x2="49.5" y2="81"/>
	<line class="st2" x1="27.9" y1="93.3" x2="36.1" y2="77.6"/>
	<line class="st2" x1="11.3" y1="79.3" x2="25.5" y2="68.6"/>
	<line class="st2" x1="2.4" y1="59.3" x2="19.9" y2="55.9"/>
	<line class="st2" x1="3.2" y1="37.5" x2="20.3" y2="42.1"/>
	<line class="st2" x1="13.4" y1="18.2" x2="26.8" y2="29.8"/>
	<line class="st2" x1="31" y1="5.3" x2="38" y2="21.6"/>
</g>
</svg>
