<?xml version="1.0" encoding="utf-8"?>
<!-- Generator: Adobe Illustrator 22.1.0, SVG Export Plug-In . SVG Version: 6.00 Build 0)  -->
<svg version="1.1" id="Layer_1" xmlns="http://www.w3.org/2000/svg" xmlns:xlink="http://www.w3.org/1999/xlink" x="0px" y="0px"
	 viewBox="0 0 60 60" style="enable-background:new 0 0 60 60;" xml:space="preserve">
<style type="text/css">
	.st0{fill:#F9ED32;stroke:#F7D634;stroke-width:3;stroke-miterlimit:10;}
	.st1{fill:#F9ED32;stroke:#F7D634;stroke-width:3;stroke-linecap:round;stroke-miterlimit:10;}
</style>
<g>
	<circle class="st0" cx="30.4" cy="30.1" r="13.8"/>
	<path class="st0" d="M44.9,34"/>
	<line class="st1" x1="30.4" y1="2.2" x2="30.4" y2="12.4"/>
	<line class="st1" x1="42.6" y1="5" x2="38.2" y2="14.2"/>
	<line class="st1" x1="52.3" y1="12.9" x2="44.3" y2="19.2"/>
	<line class="st1" x1="57.7" y1="24.2" x2="47.7" y2="26.3"/>
	<line class="st1" x1="57.5" y1="36.7" x2="47.6" y2="34.3"/>
	<line class="st1" x1="51.9" y1="47.8" x2="44.1" y2="41.4"/>
	<line class="st1" x1="42" y1="55.4" x2="37.8" y2="46.2"/>
	<line class="st1" x1="29.8" y1="57.9" x2="30" y2="47.8"/>
	<line class="st1" x1="17.7" y1="54.8" x2="22.3" y2="45.8"/>
	<line class="st1" x1="8.2" y1="46.8" x2="16.3" y2="40.7"/>
	<line class="st1" x1="3.1" y1="35.4" x2="13.1" y2="33.4"/>
	<line class="st1" x1="3.5" y1="22.9" x2="13.3" y2="25.5"/>
	<line class="st1" x1="9.4" y1="11.9" x2="17.1" y2="18.5"/>
	<line class="st1" x1="19.5" y1="4.5" x2="23.5" y2="13.8"/>
</g>
</svg>
