<?xml version="1.0" encoding="utf-8"?>
<!-- Generator: Adobe Illustrator 22.0.1, SVG Export Plug-In . SVG Version: 6.00 Build 0)  -->
<svg version="1.1" id="Layer_2_1_" xmlns="http://www.w3.org/2000/svg" xmlns:xlink="http://www.w3.org/1999/xlink" x="0px" y="0px"
	 viewBox="0 0 100 100" style="enable-background:new 0 0 100 100;" xml:space="preserve">
<style type="text/css">
	.st0{fill:none;stroke:#FFFFFF;stroke-width:2;stroke-linecap:round;stroke-linejoin:round;stroke-miterlimit:10;}
	.st1{fill:#152D53;stroke:#FFFFFF;stroke-width:2;stroke-linecap:round;stroke-linejoin:round;stroke-miterlimit:10;}
	.st2{fill:#0C2650;stroke:#FFFFFF;stroke-width:2;stroke-linecap:round;stroke-linejoin:round;stroke-miterlimit:10;}
</style>
<g>
	<g>
		<path class="st0" d="M72.7,67c0,0,4.9-1.4,7.2,0c2.3,1.4,1.5-0.5,1.5-0.5s3.7-2.2,4.2,1.1c0.5,3.1,0.5,10.5,0.5,10.5
			s-5,2.6-5.7-4.2c0,0-6.8-1.4-7.4-0.5c-0.7,0.8-3.1-0.4-3.1-0.4S67.7,67.5,72.7,67z"/>
		<path class="st0" d="M33.5,9.1c0,0,0.3,5.4,8,0.9s11.6-0.9,11.6-0.9c7.2,8.7-0.8,16.1-0.8,16.1c-0.1,2.4,3.8,4.5,3.8,4.5
			c10.7,5.5,7.8,21.6,10.1,28.3c2.3,6.5-7.6,8.8-7.6,8.8s-6.8,9.7-6.5,8.9c0.4-0.8-8.5-6.9-8.5-6.9l7.2-11.6
			c-8.4-18-3.4-23.5-3.4-23.5l-1.2-4.5l0,0c-10,4.5-7.7-11.8-7.7-11.8C32.5,17.1,33.5,9.1,33.5,9.1z"/>
		<path class="st0" d="M45.4,69.8c0,0-3,2.6-2.6,3.8c0.4,1.2-3.1,13.1-3.1,13.1s-5.3-1.2-6.2,2.8l11.1,3.8c0,0,1.6-2.7,0.9-5.3
			c0,0-1.2-3.2,0.1-4.3c1.5-1.1,5-9.9,4.5-10.4C49.4,72.7,45.4,69.8,45.4,69.8z"/>
		<path class="st1" d="M57,68.7c0,0,8.9,9.3,10.4,9.2c1.5-0.1,5.4-12.8,5.4-12.8l-8,0.9L64,64.1C64,64,57.4,63.5,57,68.7z"/>
		<path class="st0" d="M26.3,34.8c0.8,0,1.6,0.4,2.2,1.2c0.5,0.8,1.4,1.5,2.3,1.8l11.9,5l3.5-5.9l1.4,9.5C46,49.6,41.7,48,41.7,48
			l-12.2-5c-0.8-0.3-1.6-0.5-2.6-0.4c-0.1,0-0.3,0-0.4,0c-1.6,0-3-1.8-3-3.9C23.5,36.4,24.7,34.8,26.3,34.8z"/>
		<path class="st0" d="M66.5,31.7c0,0,2.2-0.7,4.7,5.7c2.6,6.4,4.3,8.4,4.3,8.4l1.1,1.8c0.7,0.3,1.2,0.8,1.5,1.5
			c0.7,1.6-0.1,3.5-1.8,4.5c-1.6,0.8-3.5,0.3-4.1-1.4c-0.1-0.3-0.1-0.7-0.3-0.9c0-0.9-0.4-1.9-0.9-2.7l-6.5-10.8
			c0,0-0.8,1.6-1.8,1.2l-4.6-6.5L66.5,31.7z"/>
		<path class="st1" d="M48.1,34.4c4.7,2,8.7-4.1,8.7-4.1h13.1l-4.7,11.5l-8-7.4c0.4-4.2-1.1-4.2,0.4-4.2"/>
		<path class="st1" d="M47.2,35.3l-6.6,4.9l5.9,8.2l1.6,0.3C48.1,48.7,50.5,37.5,47.2,35.3z"/>
		<path class="st0" d="M47,81.4c0,0-4.3-0.8-5.3-2.3l-2,7.4c0,0,3.8,3.2,5.1,1.6C44.9,88.2,43.4,84.8,47,81.4z"/>
		<path class="st0" d="M44.9,88.2c0,0,0.8,5.4-0.4,5s-11.1-3.8-11.1-3.8s0.5-4.1,6.2-2.8C39.7,86.6,42,89.8,44.9,88.2z"/>
		<path class="st0" d="M56.1,29.5"/>
		<path class="st1" d="M56.1,29.5c0,0-2.4,5.7-9.1,4.2c0,0-3.1,11.9,3.7,23.1c3.7,5.9,14.7-2.7,14.7-2.7S64.3,27.5,56.1,29.5z"/>
		<path class="st1" d="M65.4,54.1c0,0-9.1,7.6-15.4,3.7l-6.5,10.7c0,0,7.7,6.9,8.5,6.9s6.4-8.4,6.4-8.4S70,63.8,66,54"/>
		<path class="st0" d="M50.3,27c0,0,14.5-10.5,1.2-19.3c0,0-2.3-2-11.5,2.6c0,0-3,1.8-6.5-1.4c0,0-0.5,5.9,4.2,7.2
			c4.7,1.2,7.6,0,7.6,0l0.5,3.5c0,0,5.1-0.4,2.4,4.7C48.2,24.1,48.8,27.2,50.3,27z"/>
		<path class="st0" d="M81.2,67.4c0.9,0.3-2.2-1.5-5.9-0.9c-1.6,0.3,1.4,5.8,0,6.5s5.3,0.7,5.3,0.7S82.4,72,81.2,67.4z"/>
	</g>
	<path class="st2" d="M54.2,7.1c0,0,9.9-11.5,13.7-0.5s-0.8,13-0.8,13S62.8,3.7,56.2,9.4"/>
	<path class="st2" d="M54.5,10.7l-1.6-0.9c-0.4-0.3-0.5-0.8-0.3-1.4l0.1-0.1c0.3-0.4,0.8-0.7,1.2-0.4l1.6,0.9
		c0.4,0.3,0.5,0.8,0.3,1.4l-0.1,0.1C55.4,10.9,54.9,11,54.5,10.7z"/>
	<ellipse class="st2" cx="21.3" cy="87.5" rx="9.3" ry="10.1"/>
</g>
</svg>
