<?xml version="1.0" encoding="utf-8"?>
<!-- Generator: Adobe Illustrator 22.0.1, SVG Export Plug-In . SVG Version: 6.00 Build 0)  -->
<svg version="1.1" id="Layer_2" xmlns="http://www.w3.org/2000/svg" xmlns:xlink="http://www.w3.org/1999/xlink" x="0px" y="0px"
	 viewBox="0 0 100 100" style="enable-background:new 0 0 100 100;" xml:space="preserve">
<style type="text/css">
	.st0{fill:none;stroke:#FFFFFF;stroke-width:2;stroke-linecap:round;stroke-linejoin:round;stroke-miterlimit:10;}
	.st1{fill:#152D53;stroke:#FFFFFF;stroke-width:2;stroke-linecap:round;stroke-linejoin:round;stroke-miterlimit:10;}
	.st2{fill:#0C2650;stroke:#FFFFFF;stroke-width:2;stroke-linecap:round;stroke-linejoin:round;stroke-miterlimit:10;}
</style>
<g>
	<path class="st0" d="M5.2,62.6c0,0-0.8,4.3,0.5,4.6c0,0-0.6,5-4.2,3.1l0.3-9C1.8,61.3,4.1,60.2,5.2,62.6z"/>
	<g>
		<g>
			<path class="st0" d="M11.5,62.3c0,0-3.6-1-5.3,0c-1.7,1-1.1-0.4-1.1-0.4s-2.7-1.6-3.1,0.8s-0.4,7.8-0.4,7.8s3.7,1.9,4.2-3.1
				c0,0,5-1,5.5-0.4c0.5,0.6,2.3-0.3,2.3-0.3S15.2,62.7,11.5,62.3z"/>
			<path class="st0" d="M40.5,19.4c0,0-0.2,4-5.9,0.7S26,19.4,26,19.4c-5.3,6.4,0.6,11.9,0.6,11.9c0.1,1.8-2.8,3.3-2.8,3.3
				c-7.9,4.1-5.8,16-7.5,20.9s5.6,6.5,5.6,6.5s5,7.2,4.8,6.6c-0.3-0.6,6.3-5.1,6.3-5.1l-5.3-8.6c6.1-13.1,2.4-17.2,2.4-17.2l0.9-3.3
				l0,0c7.5,3.4,5.8-8.6,5.8-8.6C41.2,25.4,40.5,19.4,40.5,19.4z"/>
			<path class="st0" d="M31.7,64.3c0,0,2.2,1.9,1.9,2.8s2.3,9.7,2.3,9.7s3.9-0.9,4.6,2.1l-8.2,2.8c0,0-1.2-2-0.7-3.9
				c0,0,0.9-2.4-0.1-3.2c-1.1-0.8-3.7-7.3-3.3-7.7C28.7,66.5,31.7,64.3,31.7,64.3z"/>
			<path class="st1" d="M23.1,63.6c0,0-6.6,6.9-7.7,6.8c-1.1-0.1-4-9.5-4-9.5l5.8,0.7l0.6-1.4C17.9,60.1,22.8,59.6,23.1,63.6z"/>
			<path class="st0" d="M45.8,38.5c-0.6,0-1.1,0.3-1.5,0.8c-0.5,0.6-1.1,1.2-1.9,1.5l-8.6,3.6L31.3,40l-1,7c1.2,2.4,4.4,1.2,4.4,1.2
				l8.7-3.6c0.8-0.3,1.6-0.4,2.5-0.4c0,0,0,0,0,0c1.2,0,2.2-1.3,2.2-2.9C48,39.8,47,38.5,45.8,38.5z"/>
			<path class="st0" d="M16.1,36.2c0,0-1.6-0.5-3.5,4.2s-4.1,7.5-4.1,7.5l0,0C8,48,7.7,48.5,7.5,49c-0.5,1.2,0.1,2.6,1.3,3.3
				c1.2,0.6,2.6,0.2,3-1c0.1-0.1,0.1-0.3,0.1-0.4c0.2-0.9,0.4-1.8,0.9-2.6l4.7-7.7c0,0,0.6,1.2,1.3,0.9l3.4-4.8L16.1,36.2z"/>
			<path class="st1" d="M29.7,38.1c-3.5,1.5-6.4-3-6.4-3l-9.7,0l3.5,8.5l5.9-5.5c-0.3-3.1,0.8-3.1-0.3-3.1"/>
			<path class="st1" d="M30.4,38.9l4.9,3.6l-4.4,6.1l-1.2,0.2C29.7,48.8,27.9,40.5,30.4,38.9z"/>
			<path class="st0" d="M30.5,73c0,0,3.2-0.6,3.9-1.7l1.5,5.5c0,0-2.8,2.4-3.8,1.2C32.1,77.9,33.2,75.5,30.5,73z"/>
			<path class="st0" d="M32.1,77.9c0,0-0.6,4,0.3,3.7c0.9-0.3,8.2-2.8,8.2-2.8s-0.4-3-4.6-2.1C35.9,76.8,34.2,79.1,32.1,77.9z"/>
			<path class="st0" d="M23.8,34.6"/>
			<path class="st1" d="M23.8,34.6c0,0,1.8,4.2,6.7,3.1c0,0,2.3,8.8-2.7,17.1c-2.7,4.4-10.9-2-10.9-2S17.7,33.1,23.8,34.6z"/>
			<path class="st1" d="M16.9,52.8c0,0,6.7,5.6,11.4,2.7l4.8,7.9c0,0-5.7,5.1-6.3,5.1S22,62.4,22,62.4s-8.6-2.4-5.6-9.6"/>
			<path class="st0" d="M28.1,32.7c0,0-10.7-7.8-0.9-14.3c0,0,1.7-1.5,8.5,1.9c0,0,2.2,1.3,4.8-1c0,0,0.4,4.4-3.1,5.3s-5.6,0-5.6,0
				l-0.4,2.6c0,0-3.8-0.3-1.8,3.5C29.6,30.6,29.2,32.9,28.1,32.7z"/>
			<path class="st0" d="M5.2,62.6c-0.7,0.2,1.6-1.1,4.4-0.7c1.2,0.2-1,4.3,0,4.8s-3.9,0.5-3.9,0.5S4.3,66,5.2,62.6z"/>
		</g>
		<g>
			<path class="st0" d="M88,62.7c0,0,3.6-1,5.3,0c1.7,1,1.1-0.4,1.1-0.4s2.7-1.6,3.1,0.8c0.4,2.3,0.4,7.8,0.4,7.8s-3.7,1.9-4.2-3.1
				c0,0-5-1-5.5-0.4c-0.5,0.6-2.3-0.3-2.3-0.3S84.3,63.1,88,62.7z"/>
			<path class="st0" d="M59,19.9c0,0,0.2,4,5.9,0.7s8.6-0.7,8.6-0.7c5.3,6.4-0.6,11.9-0.6,11.9c-0.1,1.8,2.8,3.3,2.8,3.3
				c7.9,4.1,5.8,16,7.5,20.9c1.7,4.8-5.6,6.5-5.6,6.5s-5,7.2-4.8,6.6c0.3-0.6-6.3-5.1-6.3-5.1l5.3-8.6C65.6,42.1,69.3,38,69.3,38
				l-0.9-3.3l0,0C61,38,62.7,26,62.7,26C58.3,25.8,59,19.9,59,19.9z"/>
			<path class="st0" d="M67.8,64.8c0,0-2.2,1.9-1.9,2.8c0.3,0.9-2.3,9.7-2.3,9.7s-3.9-0.9-4.6,2.1l8.2,2.8c0,0,1.2-2,0.7-3.9
				c0,0-0.9-2.4,0.1-3.2c1.1-0.8,3.7-7.3,3.3-7.7C70.8,66.9,67.8,64.8,67.8,64.8z"/>
			<path class="st1" d="M76.4,64c0,0,6.6,6.9,7.7,6.8c1.1-0.1,4-9.5,4-9.5L82.2,62l-0.6-1.4C81.6,60.5,76.7,60.1,76.4,64z"/>
			<path class="st0" d="M53.7,38.9c0.6,0,1.2,0.3,1.6,0.9c0.4,0.6,1,1.1,1.7,1.3l8.8,3.7l2.6-4.4l1,7c-1.2,2.4-4.4,1.2-4.4,1.2
				l-9-3.7c-0.6-0.2-1.2-0.4-1.9-0.3c-0.1,0-0.2,0-0.3,0c-1.2,0-2.2-1.3-2.2-2.9S52.5,38.9,53.7,38.9z"/>
			<path class="st0" d="M83.4,36.6c0,0,1.6-0.5,3.5,4.2s3.2,6.2,3.2,6.2l0.8,1.3c0.5,0.2,0.9,0.6,1.1,1.1c0.5,1.2-0.1,2.6-1.3,3.3
				c-1.2,0.6-2.6,0.2-3-1c-0.1-0.2-0.1-0.5-0.2-0.7c0-0.7-0.3-1.4-0.7-2L82,41c0,0-0.6,1.2-1.3,0.9l-3.4-4.8L83.4,36.6z"/>
			<path class="st1" d="M69.8,38.6c3.5,1.5,6.4-3,6.4-3l9.7,0l-3.5,8.5l-5.9-5.5c0.3-3.1-0.8-3.1,0.3-3.1"/>
			<path class="st1" d="M69.1,39.3l-4.9,3.6l4.4,6.1l1.2,0.2C69.8,49.2,71.6,40.9,69.1,39.3z"/>
			<path class="st0" d="M69,73.4c0,0-3.2-0.6-3.9-1.7l-1.5,5.5c0,0,2.8,2.4,3.8,1.2C67.4,78.4,66.3,75.9,69,73.4z"/>
			<path class="st0" d="M67.4,78.4c0,0,0.6,4-0.3,3.7c-0.9-0.3-8.2-2.8-8.2-2.8s0.4-3,4.6-2.1C63.6,77.2,65.3,79.6,67.4,78.4z"/>
			<path class="st0" d="M75.7,35"/>
			<path class="st1" d="M75.7,35c0,0-1.8,4.2-6.7,3.1c0,0-2.3,8.8,2.7,17.1c2.7,4.4,10.9-2,10.9-2S81.8,33.5,75.7,35z"/>
			<path class="st1" d="M82.6,53.2c0,0-6.7,5.6-11.4,2.7l-4.8,7.9c0,0,5.7,5.1,6.3,5.1s4.7-6.2,4.7-6.2s8.6-2.4,5.6-9.6"/>
			<path class="st0" d="M71.4,33.1c0,0,10.7-7.8,0.9-14.3c0,0-1.7-1.5-8.5,1.9c0,0-2.2,1.3-4.8-1c0,0-0.4,4.4,3.1,5.3
				c3.5,0.9,5.6,0,5.6,0l0.4,2.6c0,0,3.8-0.3,1.8,3.5C69.9,31,70.3,33.3,71.4,33.1z"/>
			<path class="st0" d="M94.3,63c0.7,0.2-1.6-1.1-4.4-0.7c-1.2,0.2,1,4.3,0,4.8c-1,0.5,3.9,0.5,3.9,0.5S95.2,66.4,94.3,63z"/>
		</g>
		<path class="st2" d="M74.3,18.4c0,0,7.3-8.5,10.1-0.4s-0.6,9.6-0.6,9.6s-3.1-11.7-8-7.5"/>
		<path class="st2" d="M74.5,21.1l-1.2-0.7c-0.3-0.2-0.4-0.6-0.2-1l0.1-0.1c0.2-0.3,0.6-0.5,0.9-0.3l1.2,0.7c0.3,0.2,0.4,0.6,0.2,1
			l-0.1,0.1C75.2,21.2,74.8,21.3,74.5,21.1z"/>
		<ellipse class="st2" cx="50" cy="77.9" rx="6.9" ry="7.5"/>
	</g>
</g>
</svg>
