<?xml version="1.0" encoding="utf-8"?>
<!-- Generator: Adobe Illustrator 22.0.1, SVG Export Plug-In . SVG Version: 6.00 Build 0)  -->
<svg version="1.1" id="Layer_1" xmlns="http://www.w3.org/2000/svg" xmlns:xlink="http://www.w3.org/1999/xlink" x="0px" y="0px"
	 viewBox="0 0 100 100" style="enable-background:new 0 0 100 100;" xml:space="preserve">
<style type="text/css">
	.st0{fill:none;stroke:#FFFFFF;stroke-miterlimit:10;}
	.st1{fill:#1AA8E1;stroke:#FFFFFF;stroke-miterlimit:10;}
</style>
<g>
	<circle class="st0" cx="62.7" cy="13.3" r="11.3"/>
	<path class="st1" d="M79.7,40.3H62.3c-0.1-0.3-0.3-0.6-0.5-0.9l-10.1-13c-1.2-1.5-3-2.1-4.7-1.6c-0.4-0.1-0.8-0.2-1.2-0.2H29.7
		c-0.4,0-0.8,0.1-1.1,0.1c-1.1-0.1-2.3,0.4-3,1.3L15.1,39.3c-1.2,1.5-0.8,7.9-0.8,7.9l3.1,1.5c1.5,1.2,5-1.2,6.2-2.7l8.6-10.8H39
		l-12.8,19c-1.7,1-2.8,2.9-2.8,5v16.2l-15,4.4c-3,0.9-4.8,4.1-3.9,7.1s4.1,4.8,7.1,3.9l19-5.5c2.7-0.8,4.4-3.5,4.1-6.2
		c0.3-0.7,0.5-1.5,0.5-2.4v-7c1.4-0.2,2.8-1,3.8-2.2L50,77.8v14.4c0,3.1,2.6,5.7,5.7,5.7s5.7-2.6,5.7-5.7V75c0-2.2-1.2-4.1-3-5
		L46.3,58.8c-0.3-0.3-0.7-0.5-1.1-0.7l7.7-11.4c0.7,1.4,2.2,2.3,3.9,2.3h22.9c2.4,0,4.4-2,4.4-4.4v0C84,42.3,82.1,40.3,79.7,40.3z"
		/>
	<circle class="st0" cx="83" cy="77.3" r="11.5"/>
</g>
</svg>
