<?xml version="1.0" encoding="utf-8"?>
<!-- Generator: Adobe Illustrator 22.0.1, SVG Export Plug-In . SVG Version: 6.00 Build 0)  -->
<svg version="1.1" id="Layer_1" xmlns="http://www.w3.org/2000/svg" xmlns:xlink="http://www.w3.org/1999/xlink" x="0px" y="0px"
	 viewBox="0 0 100 100" style="enable-background:new 0 0 100 100;" xml:space="preserve">
<style type="text/css">
	.st0{fill:none;stroke:#FFFFFF;stroke-width:2;stroke-linecap:round;stroke-linejoin:round;stroke-miterlimit:10;}
	.st1{fill:#F05328;stroke:#FFFFFF;stroke-width:2;stroke-linecap:round;stroke-linejoin:round;stroke-miterlimit:10;}
	.st2{fill:none;stroke:#FFFFFF;stroke-width:2;stroke-miterlimit:10;}
	.st3{fill:#FFFFFF;}
</style>
<g>
	<path class="st0" d="M85.3,45.7c0,0,3.7-5.6,7.7-5.4c4,0.1,8.3,3.8,4.1,13.9c-4.3,10.1-15.4,12.1-15.4,12.1"/>
	<g>
		<path class="st0" d="M39,83.7c0,0,20-29.4-16-44.8"/>
		<path class="st0" d="M23,38.7c0,0-19.8,29.5,16.3,44.8"/>
		<path class="st0" d="M37.3,80.2c0-0.9,0.2-20.8-11.1-30.9"/>
	</g>
	<path class="st1" d="M85.3,36.9C85.3,36.9,85.3,36.8,85.3,36.9c0-0.4,0-0.5,0-0.5h-0.1c-0.2-0.4-0.6-0.6-1.1-0.6H38.4
		c-0.5,0-0.8,0.3-1.1,0.6h-0.1c0,0,0,0.1,0,0.4v0.1v3.2c0,0.1,0,0.1,0,0.3c0.2,9.7,2.1,34.8,15,46.3h18.2
		c12.9-11.5,14.7-36.7,15-46.3c0-0.1,0-0.1,0-0.3V36.9z"/>
	<g>
		<path class="st1" d="M48.8,83c0,0-14.4-35.6-46.9-15"/>
		<g>
			<path class="st1" d="M1.8,67.9c0,0,14.6,35.6,47,14.8"/>
			<path class="st1" d="M44.9,82.2c-0.7-0.5-17.6-13.5-32.4-10.3"/>
		</g>
	</g>
	<g>
		<path class="st2" d="M63.5,35.8c0,0,3.5,4.8,2.3,15.6"/>
		<path class="st0" d="M67.6,55.8L65.5,51l-5.1,0.6l0,0c-0.2,0-0.6,0.1-0.7,0.4l-4.9,9.1c-0.2,0.4-0.1,0.9,0.2,1.1l6.6,4
			c0.4,0.3,0.8,0.1,1.1-0.3l4.9-9.1C68.1,56.6,67.8,56.5,67.6,55.8z"/>
		<ellipse class="st3" cx="63.5" cy="55" rx="1" ry="1"/>
	</g>
	<path class="st0" d="M53.7,28.3c0,0,4.1-10-3.5-12s4.7-11.9,4.7-11.9"/>
	<path class="st0" d="M61.3,24.9c0,0-3.3-8.2,0-10.2s3.1-5,3.1-5"/>
</g>
</svg>
