<?xml version="1.0" encoding="utf-8"?>
<!-- Generator: Adobe Illustrator 22.0.1, SVG Export Plug-In . SVG Version: 6.00 Build 0)  -->
<svg version="1.1" id="Layer_1" xmlns="http://www.w3.org/2000/svg" xmlns:xlink="http://www.w3.org/1999/xlink" x="0px" y="0px"
	 viewBox="0 0 100 100" style="enable-background:new 0 0 100 100;" xml:space="preserve">
<style type="text/css">
	.st0{fill:#4AB85C;stroke:#009444;stroke-linecap:round;stroke-linejoin:round;stroke-miterlimit:10;}
	.st1{fill:none;stroke:#BCBEC0;stroke-linecap:round;stroke-linejoin:round;stroke-miterlimit:10;}
	.st2{fill:#F1F2F2;stroke:#BCBEC0;stroke-linecap:round;stroke-linejoin:round;stroke-miterlimit:10;}
	.st3{fill:none;stroke:#16937B;stroke-linecap:round;stroke-linejoin:round;stroke-miterlimit:10;}
	.st4{fill:#00B8A6;stroke:#16937B;stroke-linecap:round;stroke-linejoin:round;stroke-miterlimit:10;}
	.st5{fill:#F1F2F2;stroke:#16937B;stroke-miterlimit:10;}
</style>
<g>
	<path class="st0" d="M39.3,84c0,0,19.1-26.9-15.3-41"/>
	<path class="st0" d="M24,42.9c0,0-19,27,15.5,41"/>
	<path class="st0" d="M37.7,80.9c0-0.8,0.3-19-10.6-28.3"/>
</g>
<g>
	<path class="st0" d="M48.6,83.4c0,0-13.7-32.6-44.9-13.8"/>
	<g>
		<path class="st0" d="M3.6,69.6c0,0,13.9,32.5,45,13.6"/>
		<path class="st0" d="M44.9,82.7c-0.7-0.5-16.9-12.3-31.1-9.5"/>
	</g>
</g>
<path class="st1" d="M83.6,49.4c0,0,3.5-5,7.3-5c3.8,0.1,8,3.4,3.9,12.7c-4.1,9.2-14.7,11.1-14.7,11.1"/>
<path class="st2" d="M83.7,41.2C83.7,41.2,83.7,41.2,83.7,41.2c0-0.4,0-0.5,0-0.5h-0.1c-0.2-0.3-0.6-0.5-1-0.5H38.7
	c-0.4,0-0.8,0.2-1,0.5h-0.1c0,0,0,0.1,0,0.4c0,0,0,0.1,0,0.1v2.9c0,0.1,0,0.1,0,0.2c0.2,8.9,1.9,31.9,14.3,42.4h17.4
	c12.4-10.5,14.1-33.5,14.3-42.4c0-0.1,0-0.1,0-0.2V41.2z"/>
<path class="st3" d="M62.7,40.2c0,0,3.3,4.4,2.2,14.3"/>
<path class="st4" d="M66.6,58.5l-1.9-4.4l-4.9,0.6l0,0c-0.3,0-0.5,0.1-0.7,0.4l-4.8,8.3c-0.2,0.4-0.1,0.8,0.3,1.1l6.4,3.7
	c0.4,0.2,0.8,0.1,1.1-0.3l4.8-8.3C67.1,59.2,67,59.1,66.6,58.5z"/>
<circle class="st5" cx="62.8" cy="57.8" r="0.9"/>
</svg>
