<?xml version="1.0" encoding="utf-8"?>
<!-- Generator: Adobe Illustrator 22.0.1, SVG Export Plug-In . SVG Version: 6.00 Build 0)  -->
<svg version="1.1" id="Layer_1" xmlns="http://www.w3.org/2000/svg" xmlns:xlink="http://www.w3.org/1999/xlink" x="0px" y="0px"
	 viewBox="0 0 86 72.8" style="enable-background:new 0 0 86 72.8;" xml:space="preserve">
<style type="text/css">
	.st0{fill:none;stroke:#FFFFFF;stroke-linecap:round;stroke-linejoin:round;stroke-miterlimit:10;}
	.st1{fill:#F05127;stroke:#FFFFFF;stroke-linecap:round;stroke-linejoin:round;stroke-miterlimit:10;}
	.st2{fill:none;stroke:#FFFFFF;stroke-miterlimit:10;}
	.st3{fill:#FFFFFF;}
</style>
<g>
	<path class="st0" d="M72.2,35c0,0,3.1-4.4,6.4-4.3s6.9,3,3.4,11c-3.6,8-12.8,9.6-12.8,9.6"/>
	<g>
		<path class="st0" d="M33.8,65.1c0,0,16.6-23.3-13.3-35.5"/>
		<path class="st0" d="M20.5,29.4c0,0-16.4,23.4,13.5,35.5"/>
		<path class="st0" d="M32.4,62.3c0-0.7,0.2-16.5-9.2-24.5"/>
	</g>
	<path class="st1" d="M72.2,28C72.2,28,72.2,27.9,72.2,28c0-0.3,0-0.4,0-0.4h-0.1c-0.2-0.3-0.5-0.5-0.9-0.5H33.3
		c-0.4,0-0.7,0.2-0.9,0.5h-0.1c0,0,0,0.1,0,0.3c0,0,0,0.1,0,0.1v2.5c0,0.1,0,0.1,0,0.2c0.2,7.7,1.7,27.6,12.4,36.7h15.1
		C70.5,58.3,72,38.3,72.2,30.7c0-0.1,0-0.1,0-0.2V28z"/>
	<g>
		<path class="st1" d="M41.9,64.5c0,0-11.9-28.2-38.9-11.9"/>
		<g>
			<path class="st1" d="M2.9,52.6c0,0,12.1,28.2,39,11.7"/>
			<path class="st1" d="M38.7,63.9c-0.6-0.4-14.6-10.7-26.9-8.2"/>
		</g>
	</g>
	<g>
		<path class="st2" d="M54.1,27.1c0,0,2.9,3.8,1.9,12.4"/>
		<path class="st0" d="M57.5,43l-1.7-3.8l-4.2,0.5l0,0c-0.2,0-0.5,0.1-0.6,0.3l-4.1,7.2c-0.2,0.3-0.1,0.7,0.2,0.9l5.5,3.2
			c0.3,0.2,0.7,0.1,0.9-0.2l4.1-7.2C57.9,43.6,57.7,43.5,57.5,43z"/>
		<circle class="st3" cx="54.1" cy="42.3" r="0.8"/>
	</g>
	<path class="st0" d="M46,21.2c0,0,3.4-7.9-2.9-9.5S47,2.3,47,2.3"/>
	<path class="st0" d="M52.3,18.5c0,0-2.7-6.5,0-8.1c2.7-1.6,2.6-4,2.6-4"/>
</g>
</svg>
