<?xml version="1.0" encoding="utf-8"?>
<!-- Generator: Adobe Illustrator 22.1.0, SVG Export Plug-In . SVG Version: 6.00 Build 0)  -->
<svg version="1.1" id="Layer_1" xmlns="http://www.w3.org/2000/svg" xmlns:xlink="http://www.w3.org/1999/xlink" x="0px" y="0px"
	 viewBox="0 0 60 60" style="enable-background:new 0 0 60 60;" xml:space="preserve">
<style type="text/css">
	.st0{fill:#2E3192;stroke:#2D327E;stroke-miterlimit:10;}
	.st1{fill:#2E3192;stroke:#2C347D;stroke-width:0.75;stroke-miterlimit:10;}
</style>
<path class="st0" d="M0.6,36c0,0,14.3-5.9,22.1-18.8c0,0,5.5-9.1,15.5-10.9c0,0,11-0.8,15.3,4.5c0,0,1.8,2.7,1.6,4.9
	c0,0,0.8,6.3-5.9,6.3c0,0,2.2-1.6,2.1-4.5c0,0-0.1-1.6-2.1-2.7c0,0-3.2-1.8-6,0.1c0,0-4.1,2.5-4.3,6.7c0,0-0.5,8,6.3,11.8
	c0,0,5.9,3.7,13.5,2.5v3.6c0,0-2.8-0.2-4.2,0.8c0,0-2.5,3.4-6.7,0c0,0-3.3-3.5-7.4,0.1c0,0-3.1,4.3-7.7,0.1c0,0-3-3.2-5.9-0.1
	c0,0-3.9,3.7-7.8,0.1c0,0-3.7-3.8-7.2,0c0,0-3.1,4.3-7.6,0.1c0,0-1.1-1.8-3.6-1.2L0.6,36z"/>
<path class="st1" d="M1.1,46.4c0,0,2.2-0.8,3.4,0.2c0,0,3.7,3.6,6.5,0.7c0,0,3.8-4,9.2,0c0,0,3.2,3.1,5.9,0c0,0,3.8-4.2,8.5,0
	c0,0,3.3,3.3,6.1,0c0,0,3.5-4.1,8.2,0.1c0,0,2.7,3.1,5.9,0c0,0,0.9-2.1,4.6-1.3v5.2c0,0-3.2-0.2-4.4,0.8c0,0-2.8,3.6-6.4,0
	c0,0-3.5-3.2-6.7-0.1c0,0-3.8,3.9-7.5,0c0,0-3.9-3.3-6.9,0c0,0-4.6,4-8.3,0.1c0,0-3.4-3.4-6.9,0c0,0-2.7,4-7.8,0
	c0,0-1.6-1.6-3.6-0.8L1.1,46.4z"/>
</svg>
