<?xml version="1.0" encoding="utf-8"?>
<!-- Generator: Adobe Illustrator 22.1.0, SVG Export Plug-In . SVG Version: 6.00 Build 0)  -->
<svg version="1.1" id="Layer_1" xmlns="http://www.w3.org/2000/svg" xmlns:xlink="http://www.w3.org/1999/xlink" x="0px" y="0px"
	 viewBox="0 0 100 100" style="enable-background:new 0 0 100 100;" xml:space="preserve">
<style type="text/css">
	.st0{fill:none;stroke:#FFFFFF;stroke-width:2;stroke-miterlimit:10;}
</style>
<g>
	<path class="st0" d="M1.7,57.5c0,0,23.8-9.8,36.8-31.3c0,0,9.2-15.1,25.8-18.1c0,0,18.3-1.4,25.4,7.6c0,0,3,4.6,2.7,8.2
		c0,0,1.4,10.5-9.8,10.5c0,0,3.7-2.7,3.5-7.6c0,0-0.2-2.7-3.5-4.6c0,0-5.2-3-10,0.2c0,0-6.8,4.1-7.1,11.1c0,0-0.9,13.3,10.5,19.7
		c0,0,9.8,6.2,22.4,4.1v6.1c0,0-4.7-0.4-6.9,1.2c0,0-4.2,5.6-11.1,0.1c0,0-5.6-5.8-12.3,0.1c0,0-5.1,7.2-12.8,0.2
		c0,0-5.1-5.4-9.8-0.1c0,0-6.6,6.2-12.9,0.1c0,0-6.1-6.2-12-0.1c0,0-5.2,7.1-12.5,0.1c0,0-1.7-3.1-6.1-2.1L1.7,57.5z"/>
	<path class="st0" d="M1.7,73.8c0,0,3.6-1.2,5.7,0.2c0,0,6.1,6.1,10.8,1.2c0,0,6.3-6.6,15.2-0.1c0,0,5.2,5.2,9.8-0.1
		c0,0,6.4-6.9,14.1-0.1c0,0,5.6,5.6,10.2,0.1c0,0,5.8-6.8,13.7,0.2c0,0,4.6,5.1,9.8,0c0,0,1.5-3.5,7.7-2.1v8.5c0,0-5.2-0.2-7.3,1.4
		c0,0-4.6,5.9-10.7,0c0,0-5.8-5.2-11.1-0.1c0,0-6.2,6.4-12.5,0c0,0-6.4-5.6-11.4-0.1c0,0-7.6,6.7-13.7,0.1c0,0-5.7-5.6-11.4-0.1
		c0,0-4.6,6.6-13,0c0,0-2.6-2.6-5.9-1.2L1.7,73.8z"/>
</g>
</svg>
