<?xml version="1.0" encoding="utf-8"?>
<!-- Generator: Adobe Illustrator 22.0.1, SVG Export Plug-In . SVG Version: 6.00 Build 0)  -->
<svg version="1.1" id="Layer_1" xmlns="http://www.w3.org/2000/svg" xmlns:xlink="http://www.w3.org/1999/xlink" x="0px" y="0px"
	 viewBox="0 0 100 100" style="enable-background:new 0 0 100 100;" xml:space="preserve">
<style type="text/css">
	.st0{fill:#FBB040;stroke:#FBB040;stroke-miterlimit:10;}
	.st1{fill:none;stroke:#FBB040;stroke-miterlimit:10;}
	.st2{fill:#D8A745;stroke:#FBB040;stroke-linecap:round;stroke-linejoin:round;stroke-miterlimit:10;}
</style>
<g>
	<path class="st0" d="M49.3,97.7h1.4c0.1,0,0.3-0.1,0.3-0.3V36.3c0-0.1-0.1-0.3-0.3-0.3h-1.4c-0.1,0-0.3,0.1-0.3,0.3v61.2
		C49,97.6,49.1,97.7,49.3,97.7z"/>
	<path class="st1" d="M50.1,12c0,0-2.9-5.6-7.2-4.9"/>
	<path class="st1" d="M57.3,7.1C53,6.4,50.1,12,50.1,12V3.3"/>
	<g>
		<path class="st2" d="M50.9,55.8c17.5-1.1,18-17.7,18-17.7C51.4,39.2,50.9,55.8,50.9,55.8z"/>
		<path class="st2" d="M49.1,55.8c-17.5-1.1-18-17.7-18-17.7C48.6,39.2,49.1,55.8,49.1,55.8z"/>
		<path class="st2" d="M50.9,70.1c17.5-1.1,18-17.7,18-17.7C51.4,53.5,50.9,70.1,50.9,70.1z"/>
		<path class="st2" d="M49.1,70.1c-17.5-1.1-18-17.7-18-17.7C48.6,53.5,49.1,70.1,49.1,70.1z"/>
		<path class="st2" d="M49.9,37.3C61.5,24.1,50.1,12,50.1,12C38.5,25.2,49.9,37.3,49.9,37.3z"/>
		<path class="st2" d="M50.9,41.7c17.5-1.1,18-17.7,18-17.7C51.4,25,50.9,41.7,50.9,41.7z"/>
		<path class="st2" d="M49.1,41.7c-17.5-1.1-18-17.7-18-17.7C48.6,25,49.1,41.7,49.1,41.7z"/>
	</g>
</g>
</svg>
