<?xml version="1.0" encoding="utf-8"?>
<!-- Generator: Adobe Illustrator 22.0.1, SVG Export Plug-In . SVG Version: 6.00 Build 0)  -->
<svg version="1.1" id="Layer_1" xmlns="http://www.w3.org/2000/svg" xmlns:xlink="http://www.w3.org/1999/xlink" x="0px" y="0px"
	 viewBox="0 0 100 100" style="enable-background:new 0 0 100 100;" xml:space="preserve">
<style type="text/css">
	.st0{fill:#FBB040;stroke:#FBB040;stroke-width:2;stroke-linecap:round;stroke-linejoin:round;stroke-miterlimit:10;}
	.st1{fill:none;stroke:#FBB040;stroke-width:2;stroke-linecap:round;stroke-linejoin:round;stroke-miterlimit:10;}
	.st2{fill:#D8A745;stroke:#FBB040;stroke-width:2;stroke-linecap:round;stroke-linejoin:round;stroke-miterlimit:10;}
</style>
<g>
	<path class="st0" d="M49.1,98.5h1.6c0.1,0,0.3-0.1,0.3-0.3V35.4c0-0.1-0.1-0.3-0.3-0.3h-1.6c-0.1,0-0.3,0.1-0.3,0.3v62.9
		C48.8,98.4,48.9,98.5,49.1,98.5z"/>
	<path class="st1" d="M50,10.5c0,0-3.2-5.7-7.9-5"/>
	<path class="st1" d="M57.9,5.4c-4.7-0.7-7.9,5-7.9,5v-9"/>
	<g>
		<path class="st2" d="M50.9,55.4c19.2-1.2,19.8-18.2,19.8-18.2C51.4,38.4,50.9,55.4,50.9,55.4z"/>
		<path class="st2" d="M48.9,55.4c-19.2-1.2-19.8-18.2-19.8-18.2C48.4,38.4,48.9,55.4,48.9,55.4z"/>
		<path class="st2" d="M50.9,70.1C70.1,69,70.7,51.9,70.7,51.9C51.4,53.1,50.9,70.1,50.9,70.1z"/>
		<path class="st2" d="M48.9,70.1C29.7,69,29.1,51.9,29.1,51.9C48.4,53.1,48.9,70.1,48.9,70.1z"/>
		<path class="st2" d="M49.8,36.4c12.7-13.5,0.2-26,0.2-26C37.3,24,49.8,36.4,49.8,36.4z"/>
		<path class="st2" d="M50.9,40.9c19.2-1.2,19.8-18.2,19.8-18.2C51.4,23.8,50.9,40.9,50.9,40.9z"/>
		<path class="st2" d="M48.9,40.9c-19.2-1.2-19.8-18.2-19.8-18.2C48.4,23.8,48.9,40.9,48.9,40.9z"/>
	</g>
</g>
</svg>
