<?xml version="1.0" encoding="utf-8"?>
<!-- Generator: Adobe Illustrator 22.1.0, SVG Export Plug-In . SVG Version: 6.00 Build 0)  -->
<svg version="1.1" id="Layer_1" xmlns="http://www.w3.org/2000/svg" xmlns:xlink="http://www.w3.org/1999/xlink" x="0px" y="0px"
	 viewBox="0 0 100 100" style="enable-background:new 0 0 100 100;" xml:space="preserve">
<style type="text/css">
	.st0{fill:none;stroke:#FFFFFF;stroke-width:2;stroke-miterlimit:10;}
</style>
<g>
	<circle class="st0" cx="49.6" cy="41.5" r="5.8"/>
	<path class="st0" d="M40.1,41.1c0,0-22.2,14.5-24.5,20.5c0,0,3,2.1,29.8-10.9C45.3,50.7,39.3,48,40.1,41.1z"/>
	<path class="st0" d="M55.1,33.2c0,0-1.2-26.5-5.2-31.5c0,0-3.4,1.5-5.7,31.2C44.1,32.8,49.5,29,55.1,33.2z"/>
	<path class="st0" d="M53.6,50.6c0,0,23.5,12.4,29.8,11.5c0,0,0.4-3.7-23.9-20.8C59.4,41.3,60,47.9,53.6,50.6z"/>
	<path class="st0" d="M46.2,51.1c0,0,3.4,1.4,6.6-0.1l2.8,44.9c0,0-5.5,6.7-11.8,0L46.2,51.1z"/>
</g>
</svg>
