<?xml version="1.0" encoding="utf-8"?>
<!-- Generator: Adobe Illustrator 22.1.0, SVG Export Plug-In . SVG Version: 6.00 Build 0)  -->
<svg version="1.1" id="Layer_1" xmlns="http://www.w3.org/2000/svg" xmlns:xlink="http://www.w3.org/1999/xlink" x="0px" y="0px"
	 viewBox="0 0 60 60" style="enable-background:new 0 0 60 60;" xml:space="preserve">
<style type="text/css">
	.st0{fill:#939598;stroke:#808285;stroke-width:0.75;stroke-miterlimit:10;}
</style>
<circle class="st0" cx="30.5" cy="24.8" r="3.5"/>
<path class="st0" d="M24.7,24.5c0,0-13.5,8.8-14.8,12.4c0,0,1.8,1.3,18-6.6C27.9,30.3,24.3,28.7,24.7,24.5z"/>
<path class="st0" d="M33.8,19.7c0,0-0.7-16.1-3.2-19.1c0,0-2,0.9-3.5,18.9C27.2,19.5,30.4,17.2,33.8,19.7z"/>
<path class="st0" d="M32.9,30.3c0,0,14.2,7.5,18,7c0,0,0.2-2.2-14.5-12.6C36.4,24.7,36.8,28.6,32.9,30.3z"/>
<path class="st0" d="M28.4,30.6c0,0,2,0.9,4-0.1l1.7,27.2c0,0-3.3,4.1-7.2,0L28.4,30.6z"/>
</svg>
