<?xml version="1.0" encoding="utf-8"?>
<!-- Generator: Adobe Illustrator 22.1.0, SVG Export Plug-In . SVG Version: 6.00 Build 0)  -->
<svg version="1.1" id="Layer_1" xmlns="http://www.w3.org/2000/svg" xmlns:xlink="http://www.w3.org/1999/xlink" x="0px" y="0px"
	 viewBox="0 0 60 60" style="enable-background:new 0 0 60 60;" xml:space="preserve">
<style type="text/css">
	.st0{fill:none;stroke:#000000;stroke-width:3;stroke-linecap:round;stroke-linejoin:round;stroke-miterlimit:10;}
	.st1{fill:#6B3908;stroke:#6B3908;stroke-miterlimit:10;}
	.st2{fill:none;stroke:#000000;stroke-width:2;stroke-linecap:round;stroke-linejoin:round;stroke-miterlimit:10;}
	.st3{fill:#6B3908;stroke:#FCCC00;stroke-width:2;stroke-miterlimit:10;}
	.st4{fill:none;stroke:#562C05;stroke-width:2;stroke-miterlimit:10;}
	.st5{fill:none;stroke:#7655FF;stroke-width:2;stroke-linecap:round;stroke-linejoin:round;stroke-miterlimit:10;}
</style>
<path class="st0" d="M18.9,17c0,0-1.5-8.8,9.1-8.4c0,0,13.3-1.9,12.1,8.4"/>
<path class="st1" d="M51.1,51.2H7.8c-2.2,0-4.1-1.8-4.1-4.1v-28c0-2.2,1.8-4.1,4.1-4.1h43.3c2.2,0,4.1,1.8,4.1,4.1v28
	C55.1,49.3,53.3,51.2,51.1,51.2z"/>
<path class="st2" d="M3.7,19.1c0,0,4.2,12.2,15.6,11.9l21.5,0c0,0,9.3,1.1,14-11.9"/>
<path class="st3" d="M31.2,36.3h-3.5c-1.5,0-2.6-1.2-2.6-2.6v-5.2c0-1.5,1.2-2.6,2.6-2.6h3.5c1.5,0,2.6,1.2,2.6,2.6v5.2
	C33.9,35.2,32.7,36.3,31.2,36.3z"/>
<path class="st4" d="M51,51.2H7.8c-2.2,0-4.1-1.8-4.1-4.1v-28c0-2.2,1.8-4.1,4.1-4.1H51c2.2,0,4.1,1.8,4.1,4.1v28
	C55.1,49.3,53.3,51.2,51,51.2z"/>
<path class="st5" d="M78.3-1.4"/>
</svg>
